<svg xmlns="http://www.w3.org/2000/svg" xmlns:xlink="http://www.w3.org/1999/xlink" width="49.5" height="60.500244140625" viewBox="0 0 49.5 60.500244140625" fill="none"><g opacity="1"  transform="translate(2.75 2.75)  rotate(0)"><path  id="路径 1" style="fill:#FFFFFF; opacity:1;" d="M23.2635,41.1776l22,11.3801l-1.2635,2.4425h-2.75v-52.25019v0h-38.5v0v52.25019h-2.75l-1.26347,-2.4425l21.99997,-11.3801c0.09733,-0.05033 0.19727,-0.09467 0.2998,-0.133c0.1026,-0.0384 0.2071,-0.07057 0.3135,-0.0965c0.10647,-0.02587 0.21407,-0.04533 0.3228,-0.0584c0.10873,-0.013 0.21787,-0.0195 0.3274,-0.0195c0.10953,0 0.21867,0.0065 0.3274,0.0195c0.1088,0.01307 0.2164,0.03253 0.3228,0.0584c0.1064,0.02593 0.2109,0.0581 0.3135,0.0965c0.1026,0.03833 0.20253,0.08267 0.2998,0.133zM20.7365,46.0628l1.2635,-2.4426l1.2635,2.4426l-22.00003,11.38c-0.19526,0.101 -0.3997,0.1775 -0.6133,0.2295c-0.21361,0.05193 -0.43033,0.0779 -0.65017,0.0779c-0.09007,0 -0.17991,-0.0044 -0.26955,-0.0132c-0.08963,-0.00887 -0.17862,-0.02207 -0.26695,-0.0396c-0.08833,-0.0176 -0.1756,-0.03947 -0.26178,-0.0656c-0.08619,-0.02613 -0.17089,-0.05643 -0.2541,-0.0909c-0.08321,-0.03447 -0.16453,-0.07293 -0.24396,-0.1154c-0.07943,-0.04247 -0.15659,-0.0887 -0.23148,-0.1387c-0.07489,-0.05007 -0.14714,-0.10367 -0.21676,-0.1608c-0.06962,-0.05713 -0.13627,-0.11753 -0.19996,-0.1812c-0.06369,-0.06373 -0.1241,-0.1304 -0.18124,-0.2c-0.05713,-0.0696 -0.11072,-0.14187 -0.16076,-0.2168c-0.05004,-0.07487 -0.09629,-0.152 -0.13874,-0.2314c-0.04246,-0.07947 -0.08092,-0.1608 -0.11539,-0.244c-0.03447,-0.0832 -0.06477,-0.1679 -0.09091,-0.2541c-0.02615,-0.0862 -0.04801,-0.17347 -0.06558,-0.2618c-0.01757,-0.08833 -0.03076,-0.1773 -0.03959,-0.2669c-0.00883,-0.08967 -0.01325,-0.17953 -0.01325,-0.2696v-52.25019c0,-0.74479 0.14428,-1.4586 0.43285,-2.14143c0.27837,-0.65871 0.67091,-1.24142 1.17761,-1.74812c0.5067,-0.50671 1.08941,-0.89925 1.74812,-1.17762c0.68282,-0.28857 1.39663,-0.43285 2.14143,-0.43285h38.5c0.7448,0 1.45863,0.14428 2.1415,0.43285c0.65867,0.27837 1.24137,0.67091 1.7481,1.17762c0.50667,0.5067 0.8992,1.0894 1.1776,1.74812c0.28853,0.68283 0.4328,1.39665 0.4328,2.14143v52.25019c0,0.21987 -0.02597,0.4366 -0.0779,0.6502c-0.052,0.2136 -0.1285,0.41803 -0.2295,0.6133c-0.0414,0.08 -0.0866,0.15777 -0.1356,0.2333c-0.049,0.0756 -0.1016,0.14857 -0.1578,0.2189c-0.0562,0.0704 -0.11573,0.13787 -0.1786,0.2024c-0.0628,0.06453 -0.12863,0.12587 -0.1975,0.184c-0.0688,0.05807 -0.1403,0.1126 -0.2145,0.1636c-0.0742,0.05107 -0.15073,0.09837 -0.2296,0.1419c-0.07887,0.04353 -0.15967,0.0831 -0.2424,0.1187c-0.08273,0.03553 -0.167,0.06697 -0.2528,0.0943c-0.08587,0.02733 -0.17283,0.05037 -0.2609,0.0691c-0.08807,0.01873 -0.17687,0.03313 -0.2664,0.0432c-0.08953,0.01007 -0.1793,0.0157 -0.2693,0.0169c-0.09007,0.0012 -0.17997,-0.002 -0.2697,-0.0096c-0.0898,-0.0076 -0.17897,-0.0196 -0.2675,-0.036c-0.0886,-0.0164 -0.17613,-0.03707 -0.2626,-0.062c-0.08653,-0.025 -0.17163,-0.05417 -0.2553,-0.0875c-0.08367,-0.03333 -0.1655,-0.0707 -0.2455,-0.1121z"></path><path  id="路径 2" style="fill:#FFFFFF; opacity:1;" d="M33.0004,21.9999h-22c-0.09007,0 -0.1799,-0.00443 -0.2695,-0.0133c-0.08967,-0.0088 -0.17867,-0.022 -0.267,-0.0396c-0.08833,-0.01753 -0.1756,-0.03937 -0.2618,-0.0655c-0.08613,-0.0262 -0.17082,-0.05653 -0.25405,-0.091c-0.08321,-0.03447 -0.16453,-0.0729 -0.24396,-0.1153c-0.07943,-0.04247 -0.15659,-0.08873 -0.23148,-0.1388c-0.07489,-0.05 -0.14714,-0.10357 -0.21676,-0.1607c-0.06962,-0.0572 -0.13627,-0.11763 -0.19996,-0.1813c-0.06369,-0.06367 -0.1241,-0.1303 -0.18124,-0.1999c-0.05713,-0.06967 -0.11072,-0.14193 -0.16076,-0.2168c-0.05004,-0.07487 -0.09629,-0.15203 -0.13874,-0.2315c-0.04246,-0.0794 -0.08092,-0.1607 -0.11539,-0.2439c-0.03447,-0.08327 -0.06477,-0.16797 -0.09091,-0.2541c-0.02615,-0.0862 -0.04801,-0.17347 -0.06558,-0.2618c-0.01757,-0.08833 -0.03077,-0.17733 -0.0396,-0.267c-0.00883,-0.0896 -0.01324,-0.17943 -0.01324,-0.2695c0,-0.09007 0.00441,-0.17993 0.01324,-0.2696c0.00883,-0.0896 0.02203,-0.17857 0.0396,-0.2669c0.01757,-0.08833 0.03943,-0.1756 0.06558,-0.2618c0.02614,-0.0862 0.05644,-0.1709 0.09091,-0.2541c0.03447,-0.0832 0.07293,-0.16453 0.11539,-0.244c0.04245,-0.0794 0.0887,-0.15653 0.13874,-0.2314c0.05004,-0.07493 0.10363,-0.1472 0.16076,-0.2168c0.05714,-0.0696 0.11755,-0.13627 0.18124,-0.2c0.06369,-0.06367 0.13034,-0.12407 0.19996,-0.1812c0.06962,-0.05713 0.14187,-0.11073 0.21676,-0.1608c0.07489,-0.05 0.15205,-0.09623 0.23148,-0.1387c0.07943,-0.04247 0.16075,-0.08093 0.24396,-0.1154c0.08323,-0.03447 0.16792,-0.06477 0.25405,-0.0909c0.0862,-0.02613 0.17347,-0.048 0.2618,-0.0656c0.08833,-0.01753 0.17733,-0.03073 0.267,-0.0396c0.0896,-0.0088 0.17943,-0.0132 0.2695,-0.0132h22c0.09007,0 0.17993,0.0044 0.2696,0.0132c0.0896,0.00887 0.17857,0.02207 0.2669,0.0396c0.08833,0.0176 0.1756,0.03947 0.2618,0.0656c0.0862,0.02613 0.1709,0.05643 0.2541,0.0909c0.0832,0.03447 0.16453,0.07293 0.244,0.1154c0.0794,0.04247 0.15653,0.0887 0.2314,0.1387c0.07493,0.05007 0.1472,0.10367 0.2168,0.1608c0.0696,0.05713 0.13627,0.11753 0.2,0.1812c0.06367,0.06373 0.12407,0.1304 0.1812,0.2c0.05713,0.0696 0.11073,0.14187 0.1608,0.2168c0.05,0.07487 0.09623,0.152 0.1387,0.2314c0.04247,0.07947 0.08093,0.1608 0.1154,0.244c0.03447,0.0832 0.06477,0.1679 0.0909,0.2541c0.02613,0.0862 0.048,0.17347 0.0656,0.2618c0.01753,0.08833 0.03073,0.1773 0.0396,0.2669c0.0088,0.08967 0.0132,0.17953 0.0132,0.2696c0,0.09007 -0.0044,0.1799 -0.0132,0.2695c-0.00887,0.08967 -0.02207,0.17867 -0.0396,0.267c-0.0176,0.08833 -0.03947,0.1756 -0.0656,0.2618c-0.02613,0.08613 -0.05643,0.17083 -0.0909,0.2541c-0.03447,0.0832 -0.07293,0.1645 -0.1154,0.2439c-0.04247,0.07947 -0.0887,0.15663 -0.1387,0.2315c-0.05007,0.07487 -0.10367,0.14713 -0.1608,0.2168c-0.05713,0.0696 -0.11753,0.13623 -0.1812,0.1999c-0.06373,0.06367 -0.1304,0.1241 -0.2,0.1813c-0.0696,0.05713 -0.14187,0.1107 -0.2168,0.1607c-0.07487,0.05007 -0.152,0.09633 -0.2314,0.1388c-0.07947,0.0424 -0.1608,0.08083 -0.244,0.1153c-0.0832,0.03447 -0.1679,0.0648 -0.2541,0.091c-0.0862,0.02613 -0.17347,0.04797 -0.2618,0.0655c-0.08833,0.0176 -0.1773,0.0308 -0.2669,0.0396c-0.08967,0.00887 -0.17953,0.0133 -0.2696,0.0133z"></path></g></svg>