<svg xmlns="http://www.w3.org/2000/svg" xmlns:xlink="http://www.w3.org/1999/xlink" width="27.17669677734375" height="37.6292724609375" viewBox="0 0 27.17669677734375 37.6292724609375" fill="none"><path  id="路径 5" style="fill:#FFFFFF; opacity:1;" d="M10.9904,19.1375l14.3602,10.856c0.14013,0.09553 0.274,0.19923 0.4016,0.3111c0.12753,0.1118 0.2478,0.23093 0.3608,0.3574c0.11307,0.12647 0.21803,0.25933 0.3149,0.3986c0.09687,0.13927 0.18493,0.28387 0.2642,0.4338c0.07927,0.15 0.14917,0.30423 0.2097,0.4627c0.06047,0.15847 0.11113,0.32 0.152,0.4846c0.0408,0.16467 0.0715,0.3312 0.0921,0.4996c0.02053,0.16833 0.0308,0.33733 0.0308,0.507c0,0.0684 -0.00167,0.13677 -0.005,0.2051c-0.00333,0.06833 -0.00837,0.13657 -0.0151,0.2047c-0.00673,0.06807 -0.0151,0.13597 -0.0251,0.2037c-0.01007,0.06767 -0.02177,0.13507 -0.0351,0.2022c-0.01333,0.06707 -0.02833,0.1338 -0.045,0.2002c-0.0166,0.06633 -0.03483,0.13227 -0.0547,0.1978c-0.01987,0.06547 -0.04133,0.1304 -0.0644,0.1948c-0.02307,0.06447 -0.04767,0.1283 -0.0738,0.1915c-0.0262,0.0632 -0.05393,0.12573 -0.0832,0.1876c-0.02927,0.06187 -0.06003,0.12297 -0.0923,0.1833c-0.03227,0.06033 -0.06597,0.11987 -0.1011,0.1786c-0.0352,0.05867 -0.0718,0.11643 -0.1098,0.1733c-0.038,0.05693 -0.0774,0.11287 -0.1182,0.1678c-0.04073,0.055 -0.0828,0.10893 -0.1262,0.1618c-0.0434,0.05287 -0.0881,0.10467 -0.1341,0.1554c-0.04593,0.05067 -0.0931,0.1002 -0.1415,0.1486c-0.04833,0.0484 -0.09787,0.09557 -0.1486,0.1415c-0.05073,0.04593 -0.10253,0.09063 -0.1554,0.1341c-0.05287,0.0434 -0.1068,0.08547 -0.1618,0.1262c-0.05493,0.0408 -0.11087,0.0802 -0.1678,0.1182c-0.05687,0.038 -0.11463,0.0746 -0.1733,0.1098c-0.05873,0.03513 -0.11827,0.06883 -0.1786,0.1011c-0.06033,0.03227 -0.12143,0.06303 -0.1833,0.0923c-0.06187,0.02927 -0.1244,0.05697 -0.1876,0.0831c-0.0632,0.0262 -0.12703,0.05083 -0.1915,0.0739c-0.0644,0.02307 -0.12933,0.04453 -0.1948,0.0644c-0.06547,0.01987 -0.1314,0.0381 -0.1978,0.0547c-0.0664,0.0166 -0.13313,0.0316 -0.2002,0.045c-0.06713,0.01333 -0.13453,0.02503 -0.2022,0.0351c-0.06773,0.01 -0.13563,0.01837 -0.2037,0.0251c-0.06807,0.00667 -0.1363,0.0117 -0.2047,0.0151c-0.06833,0.00333 -0.1367,0.005 -0.2051,0.005c-0.2262,0 -0.45093,-0.01823 -0.6742,-0.0547c-0.2232,-0.03647 -0.44203,-0.0907 -0.6565,-0.1627c-0.21447,-0.072 -0.4217,-0.1608 -0.6217,-0.2664c-0.2,-0.10567 -0.3902,-0.22673 -0.5706,-0.3632l-0.003,0.004l-18.81004,-14.22c-0.27789,-0.21007 -0.52566,-0.45113 -0.7433,-0.7232c-0.17151,-0.21433 -0.32047,-0.44337 -0.44686,-0.6871c-0.1264,-0.24367 -0.22781,-0.49733 -0.30423,-0.761c-0.07642,-0.26373 -0.12639,-0.53233 -0.14991,-0.8058c-0.02351,-0.27353 -0.02012,-0.54673 0.01018,-0.8196c0.0303,-0.27287 0.08692,-0.54013 0.16987,-0.8018c0.08295,-0.26173 0.19063,-0.51283 0.32304,-0.7533c0.13241,-0.24047 0.287,-0.46573 0.46379,-0.6758c0.17678,-0.21007 0.37235,-0.40083 0.58671,-0.5723l18.81006,-15.05004l0.0018,0.00226c0.18413,-0.14759 0.37937,-0.27865 0.5857,-0.39317c0.20627,-0.11453 0.42073,-0.2109 0.6434,-0.28912c0.22267,-0.07821 0.4503,-0.13716 0.6829,-0.17683c0.2326,-0.03967 0.4669,-0.05951 0.7029,-0.05951c0.0684,0 0.13677,0.00168 0.2051,0.00504c0.0684,0.00336 0.13663,0.00839 0.2047,0.0151c0.06807,0.00671 0.13597,0.01508 0.2037,0.02512c0.06767,0.01004 0.13507,0.02173 0.2022,0.03508c0.06707,0.01335 0.1338,0.02834 0.2002,0.04496c0.0664,0.01663 0.13233,0.03487 0.1978,0.05473c0.06547,0.01986 0.1304,0.04132 0.1948,0.06437c0.06447,0.02305 0.1283,0.04767 0.1915,0.07386c0.0632,0.02619 0.12573,0.05391 0.1876,0.08316c0.06187,0.02926 0.12297,0.06001 0.1833,0.09227c0.06033,0.03226 0.11987,0.06597 0.1786,0.10115c0.05867,0.03518 0.11643,0.07177 0.1733,0.10979c0.05693,0.03802 0.11287,0.0774 0.1678,0.11816c0.055,0.04076 0.10893,0.08285 0.1618,0.12626c0.05287,0.04341 0.10467,0.08809 0.1554,0.13404c0.05073,0.04595 0.10027,0.09312 0.1486,0.14151c0.0484,0.04839 0.09557,0.09793 0.1415,0.14863c0.046,0.0507 0.0907,0.1025 0.1341,0.15539c0.0434,0.05289 0.08547,0.10682 0.1262,0.16178c0.0408,0.05496 0.0802,0.11089 0.1182,0.16778c0.038,0.05689 0.0746,0.11469 0.1098,0.17338c0.03513,0.05869 0.06883,0.1182 0.1011,0.17855c0.03227,0.06035 0.06303,0.12145 0.0923,0.18331c0.02927,0.06185 0.057,0.12439 0.0832,0.18761c0.02613,0.06321 0.05073,0.12703 0.0738,0.19146c0.02307,0.06443 0.04453,0.12938 0.0644,0.19486c0.01987,0.06548 0.0381,0.13141 0.0547,0.19778c0.01667,0.06637 0.03167,0.13312 0.045,0.20023c0.01333,0.06711 0.02503,0.13451 0.0351,0.20219c0.01,0.06769 0.01837,0.13558 0.0251,0.20368c0.00673,0.06809 0.01177,0.13631 0.0151,0.20466c0.00333,0.06834 0.005,0.13672 0.005,0.20515c0,0.16276 -0.00947,0.32497 -0.0284,0.48662c-0.01893,0.16165 -0.0472,0.32166 -0.0848,0.48001c-0.03767,0.15835 -0.0844,0.31397 -0.1402,0.46687c-0.0558,0.15289 -0.1203,0.30202 -0.1935,0.44738c-0.07327,0.14536 -0.1547,0.28597 -0.2443,0.42182c-0.08967,0.13585 -0.1869,0.26602 -0.2917,0.39052c-0.10487,0.12449 -0.2166,0.24246 -0.3352,0.35391c-0.11867,0.11145 -0.24337,0.21561 -0.3741,0.3125z"></path></svg>