<svg xmlns="http://www.w3.org/2000/svg" xmlns:xlink="http://www.w3.org/1999/xlink" width="71.5" height="68.451904296875" viewBox="0 0 71.5 68.451904296875" fill="none"><g opacity="1"  transform="translate(3.25 3.22509765625)  rotate(0)"><path  id="路径 1" style="fill:#FFFFFF; opacity:1;" d="M32.5,52.0484c1.424,0 2.80603,0.22377 4.1461,0.6713c1.29553,0.43267 2.4939,1.05467 3.5951,1.866c1.08613,0.80027 2.0245,1.74533 2.8151,2.8352c0.8014,1.1048 1.4109,2.3035 1.8285,3.5961l-3.0948,0.9846l-0.9276,-3.0909c2.428,-0.71753 4.7262,-1.73557 6.8946,-3.0541c2.1384,-1.30027 4.07883,-2.84873 5.8213,-4.6454l2.3417,2.2364l-2.4871,2.0761c-0.9704,-1.1448 -1.71717,-2.41517 -2.2403,-3.8111c-0.54173,-1.44547 -0.8126,-2.94443 -0.8126,-4.4969c0,-1.74927 0.34057,-3.42377 1.0217,-5.0235c0.6576,-1.54447 1.58557,-2.91127 2.7839,-4.1004c1.19833,-1.1892 2.5757,-2.11007 4.1321,-2.7626c1.61213,-0.676 3.29957,-1.014 5.0623,-1.014c0.45687,0 0.87797,0.01793 1.2633,0.0538l-0.3033,3.2111l-3.1846,-0.6441c0.3964,-1.93007 0.5946,-3.8787 0.5946,-5.8459c0,-2.99633 -0.44663,-5.90183 -1.3399,-8.7165l3.0999,-0.9687v3.2251c0.10667,0 0.20463,-0.00493 0.2939,-0.0148c-0.14927,0.01647 -0.29057,0.0247 -0.4239,0.0247c-1.76307,0 -3.45107,-0.33867 -5.064,-1.016c-1.5558,-0.6534 -2.93287,-1.5751 -4.1312,-2.7651c-1.19773,-1.1894 -2.12537,-2.55593 -2.7829,-4.0996c-0.68127,-1.5994 -1.0219,-3.27267 -1.0219,-5.0198c0,-2.03576 0.4477,-3.94219 1.3431,-5.7193l2.9069,1.44232l-2.2144,2.36067c-1.70467,-1.57466 -3.57093,-2.92729 -5.5988,-4.0579c-2.0564,-1.14651 -4.2212,-2.03222 -6.4944,-2.65712l0.8676,-3.10807l2.8958,1.4641c-0.53593,1.04382 -1.20413,1.99882 -2.0046,2.86501c-0.7974,0.86289 -1.69543,1.60456 -2.6941,2.22503c-1.0164,0.6314 -2.0986,1.11328 -3.2466,1.44564c-1.1848,0.34302 -2.3983,0.51453 -3.6405,0.51453c-1.2422,0 -2.4557,-0.17151 -3.6405,-0.51453c-1.14807,-0.33236 -2.23027,-0.81424 -3.2466,-1.44564c-0.99873,-0.62047 -1.8968,-1.36214 -2.6942,-2.22503c-0.8004,-0.86618 -1.46857,-1.82118 -2.0045,-2.86501l2.8958,-1.4641l0.8676,3.10807c-2.27327,0.6249 -4.43807,1.51061 -6.4944,2.65712c-2.02787,1.13061 -3.89413,2.48324 -5.5988,4.05789l-2.2144,-2.36066l2.9069,-1.44231c0.90207,1.79033 1.3531,3.69676 1.3531,5.71929c0,1.74747 -0.34133,3.4213 -1.024,5.0215c-0.6584,1.54313 -1.58687,2.9094 -2.7854,4.0988c-1.19856,1.18933 -2.57536,2.11067 -4.13041,2.764c-1.61254,0.67747 -3.29927,1.0162 -5.06019,1.0162c-0.13165,0 -0.2713,-0.00773 -0.41893,-0.0232c0.08449,0.00887 0.17746,0.0133 0.27893,0.0133v-3.2251l3.0999,0.9687c-0.89327,2.81467 -1.3399,5.72017 -1.3399,8.7165c0,1.96727 0.19818,3.9159 0.59454,5.8459l-3.18454,0.6441l-0.30335,-3.2111c0.38532,-0.03587 0.80977,-0.0538 1.27335,-0.0538c1.76059,0 3.44675,0.33803 5.05848,1.0141c1.55562,0.65253 2.93273,1.5731 4.13132,2.7617c1.19913,1.18913 2.1279,2.55563 2.7863,4.0995c0.6826,1.60053 1.0239,3.2756 1.0239,5.0252c0,1.5528 -0.2733,3.05387 -0.8199,4.5032c-0.52493,1.39173 -1.2726,2.66 -2.243,3.8048l-2.4871,-2.0761l2.3417,-2.2364c1.74247,1.79667 3.6829,3.34513 5.8213,4.6454c2.1684,1.31853 4.4666,2.33657 6.8946,3.0541l-0.9276,3.0909l-3.0948,-0.9846c0.4176,-1.2926 1.0271,-2.4913 1.8285,-3.5961c0.7906,-1.08987 1.72897,-2.03493 2.8151,-2.8352c1.1012,-0.81133 2.29957,-1.43333 3.5951,-1.866c1.34007,-0.44753 2.7221,-0.6713 4.1461,-0.6713zM32.5,58.4987c-0.7144,0 -1.40537,0.11147 -2.0729,0.3344c-0.64527,0.21547 -1.24307,0.52593 -1.7934,0.9314c-0.54573,0.40213 -1.01727,0.87707 -1.4146,1.4248c-0.40113,0.55293 -0.7059,1.15193 -0.9143,1.797c-0.03207,0.0992 -0.0689,0.19667 -0.1105,0.2924c-0.04153,0.09573 -0.08767,0.18923 -0.1384,0.2805c-0.05073,0.09127 -0.1058,0.17987 -0.1652,0.2658c-0.05933,0.086 -0.12277,0.16893 -0.1903,0.2488c-0.06747,0.07987 -0.13867,0.1563 -0.2136,0.2293c-0.07493,0.073 -0.15327,0.14223 -0.235,0.2077c-0.08173,0.06547 -0.16643,0.12687 -0.2541,0.1842c-0.08773,0.05733 -0.17803,0.11033 -0.2709,0.159c-0.09293,0.0486 -0.188,0.09267 -0.2852,0.1322c-0.0972,0.03947 -0.19607,0.0742 -0.2966,0.1042c-0.1006,0.03 -0.20243,0.0551 -0.3055,0.0753c-0.103,0.0202 -0.20677,0.0354 -0.3113,0.0456c-0.10453,0.0102 -0.2093,0.01537 -0.3143,0.0155c-0.10507,0.00007 -0.20987,-0.00487 -0.3144,-0.0148c-0.10453,-0.00993 -0.20837,-0.0249 -0.3115,-0.0449c-0.10307,-0.01993 -0.20493,-0.04477 -0.3056,-0.0745c-2.9716,-0.87813 -5.7834,-2.1235 -8.4354,-3.7361c-2.61175,-1.58807 -4.98132,-3.4789 -7.1087,-5.6725c-0.06885,-0.071 -0.13429,-0.14497 -0.19632,-0.2219c-0.06203,-0.07693 -0.12038,-0.15653 -0.17505,-0.2388c-0.05467,-0.08227 -0.10544,-0.16683 -0.1523,-0.2537c-0.04686,-0.08693 -0.08962,-0.17577 -0.12828,-0.2665c-0.03865,-0.0908 -0.07304,-0.18313 -0.10317,-0.277c-0.03013,-0.09393 -0.05586,-0.189 -0.07721,-0.2852c-0.02135,-0.09627 -0.03821,-0.19327 -0.0506,-0.291c-0.01238,-0.0978 -0.02023,-0.19593 -0.02356,-0.2944c-0.00332,-0.09847 -0.00209,-0.1969 0.00368,-0.2953c0.00577,-0.0984 0.01607,-0.1963 0.03088,-0.2937c0.01481,-0.09747 0.03409,-0.19403 0.05782,-0.2897c0.02374,-0.09573 0.05184,-0.19013 0.08429,-0.2832c0.03245,-0.09313 0.06913,-0.1846 0.11004,-0.2744c0.0409,-0.0898 0.08586,-0.17757 0.13487,-0.2633c0.04901,-0.08567 0.10186,-0.16897 0.15857,-0.2499c0.0567,-0.08087 0.11701,-0.159 0.18094,-0.2344c0.48983,-0.57787 0.86634,-1.21573 1.12954,-1.9136c0.27171,-0.7204 0.40756,-1.46783 0.40755,-2.2423c0,-0.87713 -0.16996,-1.71423 -0.50989,-2.5113c-0.32887,-0.7712 -0.79384,-1.4548 -1.39489,-2.0508c-0.60092,-0.59593 -1.29007,-1.05693 -2.06745,-1.383c-0.80283,-0.33673 -1.64541,-0.5051 -2.52776,-0.5051c-0.26089,0 -0.4831,0.00853 -0.66665,0.0256c-0.09871,0.0092 -0.19763,0.0139 -0.29678,0.0141c-0.09914,0.0002 -0.19809,-0.0041 -0.29683,-0.0129c-0.09875,-0.0088 -0.19688,-0.02203 -0.29441,-0.0397c-0.09752,-0.01773 -0.19403,-0.03983 -0.28952,-0.0663c-0.09549,-0.02647 -0.18956,-0.0572 -0.28221,-0.0922c-0.09265,-0.035 -0.1835,-0.07413 -0.27255,-0.1174c-0.08905,-0.04327 -0.17591,-0.09047 -0.2606,-0.1416c-0.08469,-0.05113 -0.16686,-0.106 -0.24649,-0.1646c-0.07963,-0.0586 -0.1564,-0.1207 -0.2303,-0.1863c-0.07391,-0.0656 -0.14464,-0.1344 -0.2122,-0.2064c-0.06756,-0.072 -0.13167,-0.1469 -0.19232,-0.2247c-0.06065,-0.0778 -0.1176,-0.1582 -0.17084,-0.2412c-0.05323,-0.083 -0.10254,-0.16823 -0.14792,-0.2557c-0.04537,-0.08753 -0.08663,-0.1769 -0.12376,-0.2681c-0.03714,-0.0912 -0.07,-0.1839 -0.09859,-0.2781c-0.02859,-0.0942 -0.05278,-0.1895 -0.07257,-0.2859c-0.48364,-2.35507 -0.72546,-4.73307 -0.72546,-7.134c0,-3.65747 0.5467,-7.2088 1.6401,-10.654c0.02575,-0.0812 0.0547,-0.16123 0.08684,-0.2401c0.03214,-0.07887 0.06737,-0.15637 0.10569,-0.2325c0.03831,-0.07613 0.0796,-0.15063 0.12387,-0.2235c0.04426,-0.07287 0.09135,-0.1439 0.14128,-0.2131c0.04993,-0.06913 0.10253,-0.13623 0.1578,-0.2013c0.05528,-0.06507 0.11306,-0.12783 0.17334,-0.1883c0.06029,-0.06053 0.12289,-0.11857 0.1878,-0.1741c0.06492,-0.0556 0.13194,-0.10857 0.20108,-0.1589c0.06914,-0.05033 0.14017,-0.09787 0.2131,-0.1426c0.07293,-0.04473 0.14753,-0.08657 0.22379,-0.1255c0.07626,-0.03887 0.15396,-0.0747 0.23308,-0.1075c0.07912,-0.03273 0.15943,-0.06237 0.24091,-0.0889c0.08149,-0.02647 0.1639,-0.0497 0.24724,-0.0697c0.08334,-0.02 0.16734,-0.0367 0.25202,-0.0501c0.08467,-0.0134 0.16974,-0.02347 0.25522,-0.0302c0.08548,-0.00673 0.17109,-0.0101 0.25683,-0.0101c0.12663,0 0.26114,0.00747 0.40351,0.0224c-0.07923,-0.00827 -0.16706,-0.0124 -0.26351,-0.0124c0.88141,0 1.72343,-0.1686 2.52606,-0.5058c0.77745,-0.32667 1.46689,-0.7884 2.06834,-1.3852c0.60145,-0.59687 1.06674,-1.28107 1.39589,-2.0526c0.3398,-0.79647 0.5097,-1.63203 0.50971,-2.5067c0,-1.0074 -0.2223,-1.95229 -0.66689,-2.83466c-0.03893,-0.07725 -0.07467,-0.15593 -0.10722,-0.23604c-0.03256,-0.08011 -0.06183,-0.16138 -0.0878,-0.24382c-0.02597,-0.08244 -0.04858,-0.16578 -0.06781,-0.25002c-0.01923,-0.08424 -0.03502,-0.16911 -0.04737,-0.25461c-0.01235,-0.0855 -0.02123,-0.17135 -0.02664,-0.25756c-0.00541,-0.08621 -0.00732,-0.1725 -0.00574,-0.25886c0.00158,-0.08636 0.00665,-0.17252 0.01521,-0.25847c0.00856,-0.08596 0.02058,-0.17144 0.03605,-0.25644c0.01548,-0.08499 0.03437,-0.16924 0.05667,-0.25273c0.0223,-0.08349 0.04794,-0.16596 0.07691,-0.24741c0.02898,-0.08145 0.0612,-0.16162 0.09667,-0.24049c0.03547,-0.07888 0.07406,-0.15622 0.11579,-0.23203c0.04173,-0.0758 0.08645,-0.14982 0.13418,-0.22205c0.04772,-0.07224 0.09828,-0.14246 0.15169,-0.21066c0.05341,-0.06821 0.10948,-0.13418 0.16823,-0.19791c0.05875,-0.06373 0.11998,-0.12503 0.18369,-0.18388c2.08345,-1.92453 4.36468,-3.57787 6.84368,-4.96002c2.51507,-1.40226 5.16277,-2.48553 7.9431,-3.24981c0.0894,-0.02459 0.17973,-0.04533 0.271,-0.06224c0.0912,-0.01691 0.18297,-0.02991 0.2753,-0.03901c0.0924,-0.00911 0.185,-0.01428 0.2778,-0.01551c0.0928,-0.00123 0.18547,0.00147 0.278,0.00812c0.09253,0.00664 0.18463,0.0172 0.2763,0.03168c0.09167,0.01447 0.18253,0.03281 0.2726,0.05501c0.09007,0.0222 0.179,0.04818 0.2668,0.07794c0.08787,0.02976 0.17427,0.06319 0.2592,0.1003c0.08493,0.0371 0.1681,0.07774 0.2495,0.12191c0.08147,0.04418 0.16087,0.09173 0.2382,0.14265c0.07733,0.05093 0.15233,0.10504 0.225,0.16234c0.0726,0.05729 0.14263,0.11757 0.2101,0.18082c0.06747,0.06326 0.13207,0.12926 0.1938,0.198c0.0618,0.06875 0.1205,0.13999 0.1761,0.21372c0.0556,0.07373 0.1079,0.14969 0.1569,0.22788c0.04907,0.07818 0.09467,0.1583 0.1368,0.24036c0.5464,1.06425 1.33183,1.91459 2.3563,2.55101c1.04853,0.65144 2.1945,0.97716 3.4379,0.97716c1.24333,0 2.3893,-0.32572 3.4379,-0.97716c1.02447,-0.63642 1.8099,-1.48676 2.3563,-2.55101c0.04213,-0.08206 0.0877,-0.16218 0.1367,-0.24036c0.04907,-0.07818 0.1014,-0.15414 0.157,-0.22787c0.0556,-0.07373 0.1143,-0.14497 0.1761,-0.21372c0.06173,-0.06875 0.12633,-0.13475 0.1938,-0.198c0.0674,-0.06325 0.13743,-0.12353 0.2101,-0.18083c0.07267,-0.0573 0.14767,-0.11141 0.225,-0.16234c0.07733,-0.05092 0.1567,-0.09847 0.2381,-0.14264c0.08147,-0.04418 0.16467,-0.08482 0.2496,-0.12192c0.08493,-0.03711 0.1713,-0.07054 0.2591,-0.1003c0.08787,-0.02976 0.17683,-0.05574 0.2669,-0.07794c0.09007,-0.0222 0.18093,-0.04054 0.2726,-0.05501c0.0916,-0.01447 0.1837,-0.02503 0.2763,-0.03168c0.09253,-0.00665 0.1852,-0.00935 0.278,-0.00812c0.0928,0.00123 0.18537,0.0064 0.2777,0.01551c0.0924,0.0091 0.1842,0.0221 0.2754,0.03901c0.0912,0.01691 0.18153,0.03765 0.271,0.06224c2.78027,0.76428 5.42797,1.84755 7.9431,3.24981c2.479,1.38215 4.76023,3.03549 6.8437,4.96002c0.06367,0.05885 0.1249,0.12015 0.1837,0.18388c0.05873,0.06373 0.1148,0.1297 0.1682,0.19791c0.0534,0.0682 0.10397,0.13842 0.1517,0.21066c0.04773,0.07223 0.09247,0.14625 0.1342,0.22205c0.04167,0.07581 0.08023,0.15315 0.1157,0.23202c0.03547,0.07888 0.0677,0.15905 0.0967,0.2405c0.029,0.08145 0.05463,0.16392 0.0769,0.24741c0.02233,0.08349 0.04123,0.16774 0.0567,0.25273c0.01547,0.085 0.02747,0.17048 0.036,0.25644c0.0086,0.08595 0.0137,0.17211 0.0153,0.25847c0.00153,0.08637 -0.0004,0.17265 -0.0058,0.25886c-0.0054,0.08621 -0.01427,0.17206 -0.0266,0.25756c-0.0124,0.0855 -0.0282,0.17037 -0.0474,0.25461c-0.0192,0.08424 -0.0418,0.16758 -0.0678,0.25002c-0.026,0.08244 -0.05527,0.16371 -0.0878,0.24382c-0.03253,0.08011 -0.06827,0.15879 -0.1072,0.23604c-0.43793,0.86911 -0.6569,1.81399 -0.6569,2.83466c0,0.8756 0.16967,1.71173 0.509,2.5084c0.3286,0.77147 0.79313,1.45537 1.3936,2.0517c0.60067,0.5964 1.28957,1.0578 2.0667,1.3842c0.8032,0.33733 1.64677,0.506 2.5307,0.506c-0.10667,0 -0.20463,0.0049 -0.2939,0.0147c0.14927,-0.01647 0.29057,-0.0247 0.4239,-0.0247c0.08573,0 0.17133,0.00337 0.2568,0.0101c0.08547,0.00673 0.17053,0.0168 0.2552,0.0302c0.08467,0.0134 0.16867,0.0301 0.252,0.0501c0.08333,0.02 0.16577,0.04323 0.2473,0.0697c0.08147,0.02653 0.16177,0.05617 0.2409,0.0889c0.07913,0.0328 0.15683,0.06863 0.2331,0.1075c0.07627,0.03893 0.15087,0.08077 0.2238,0.1255c0.07293,0.04473 0.14397,0.09227 0.2131,0.1426c0.06913,0.05033 0.13613,0.1033 0.201,0.1589c0.06493,0.05553 0.12753,0.11357 0.1878,0.1741c0.06033,0.06053 0.11813,0.1233 0.1734,0.1883c0.05527,0.06507 0.10787,0.13217 0.1578,0.2013c0.04993,0.0692 0.09703,0.14023 0.1413,0.2131c0.04427,0.07287 0.08557,0.14737 0.1239,0.2235c0.03827,0.07613 0.07347,0.15363 0.1056,0.2325c0.0322,0.07887 0.06117,0.1589 0.0869,0.2401c1.0934,3.4452 1.6401,6.99653 1.6401,10.654c0,2.40093 -0.24183,4.77893 -0.7255,7.134c-0.0198,0.0964 -0.044,0.1917 -0.0726,0.2859c-0.02853,0.0942 -0.06137,0.1869 -0.0985,0.2781c-0.03713,0.0912 -0.0784,0.18057 -0.1238,0.2681c-0.0454,0.08747 -0.0947,0.1727 -0.1479,0.2557c-0.05327,0.083 -0.11023,0.1634 -0.1709,0.2412c-0.0606,0.0778 -0.1247,0.1527 -0.1923,0.2247c-0.06753,0.072 -0.13827,0.1408 -0.2122,0.2064c-0.07387,0.0656 -0.15063,0.1277 -0.2303,0.1863c-0.0796,0.0586 -0.16177,0.11347 -0.2465,0.1646c-0.08467,0.05113 -0.17153,0.09833 -0.2606,0.1416c-0.089,0.04327 -0.17983,0.0824 -0.2725,0.1174c-0.09267,0.035 -0.18673,0.06573 -0.2822,0.0922c-0.09553,0.02647 -0.19207,0.04857 -0.2896,0.0663c-0.09747,0.01767 -0.1956,0.0309 -0.2944,0.0397c-0.09873,0.0088 -0.19767,0.0131 -0.2968,0.0129c-0.09913,-0.0002 -0.19807,-0.0049 -0.2968,-0.0141c-0.18353,-0.01707 -0.4024,-0.0256 -0.6566,-0.0256c-0.88487,0 -1.729,0.16843 -2.5324,0.5053c-0.77707,0.3258 -1.46567,0.78647 -2.0658,1.382c-0.60007,0.59547 -1.06427,1.27877 -1.3926,2.0499c-0.33947,0.79727 -0.5092,1.63493 -0.5092,2.513c0,0.77873 0.13497,1.52823 0.4049,2.2485c0.26127,0.69727 0.63533,1.33307 1.1222,1.9074c0.06393,0.0754 0.12423,0.15353 0.1809,0.2344c0.05673,0.08093 0.1096,0.16423 0.1586,0.2499c0.049,0.08573 0.09397,0.1735 0.1349,0.2633c0.04087,0.0898 0.07753,0.18127 0.11,0.2744c0.03247,0.09313 0.06057,0.18753 0.0843,0.2832c0.02373,0.09567 0.043,0.19223 0.0578,0.2897c0.0148,0.0974 0.0251,0.1953 0.0309,0.2937c0.00573,0.0984 0.00697,0.19683 0.0037,0.2953c-0.00333,0.09847 -0.0112,0.1966 -0.0236,0.2944c-0.0124,0.09773 -0.02927,0.19473 -0.0506,0.291c-0.02133,0.0962 -0.04707,0.19127 -0.0772,0.2852c-0.03013,0.09387 -0.06453,0.1862 -0.1032,0.277c-0.03867,0.09073 -0.08143,0.17957 -0.1283,0.2665c-0.0468,0.08687 -0.09757,0.17143 -0.1523,0.2537c-0.05467,0.08227 -0.113,0.16187 -0.175,0.2388c-0.062,0.07693 -0.12743,0.1509 -0.1963,0.2219c-2.1274,2.1936 -4.49697,4.08443 -7.1087,5.6725c-2.652,1.6126 -5.4638,2.85797 -8.4354,3.7361c-0.10067,0.02973 -0.20257,0.05457 -0.3057,0.0745c-0.10307,0.02 -0.20687,0.03497 -0.3114,0.0449c-0.10453,0.00993 -0.20933,0.01483 -0.3144,0.0147c-0.105,-0.00007 -0.20977,-0.0052 -0.3143,-0.0154c-0.10453,-0.01027 -0.20833,-0.02547 -0.3114,-0.0456c-0.103,-0.0202 -0.2048,-0.0453 -0.3054,-0.0753c-0.1006,-0.03 -0.1995,-0.06473 -0.2967,-0.1042c-0.0972,-0.03953 -0.19223,-0.0836 -0.2851,-0.1322c-0.09287,-0.04867 -0.18317,-0.10167 -0.2709,-0.159c-0.08773,-0.05733 -0.17243,-0.11873 -0.2541,-0.1842c-0.08173,-0.06547 -0.16007,-0.1347 -0.235,-0.2077c-0.07493,-0.07307 -0.14617,-0.14953 -0.2137,-0.2294c-0.06747,-0.07987 -0.1309,-0.16277 -0.1903,-0.2487c-0.05933,-0.086 -0.11437,-0.17463 -0.1651,-0.2659c-0.05073,-0.0912 -0.0969,-0.18467 -0.1385,-0.2804c-0.04153,-0.09573 -0.07833,-0.1932 -0.1104,-0.2924c-0.20847,-0.64507 -0.51323,-1.24407 -0.9143,-1.797c-0.39733,-0.54773 -0.86887,-1.02267 -1.4146,-1.4248c-0.55033,-0.40547 -1.14813,-0.71597 -1.7934,-0.9315c-0.66753,-0.22287 -1.3585,-0.3343 -2.0729,-0.3343z"></path><path  id="路径 2" style="fill:#FFFFFF; opacity:1;" d="M40.6253,31.09c0,-1.09727 -0.21243,-2.1448 -0.6373,-3.1426c-0.41073,-0.9648 -0.99123,-1.8197 -1.7415,-2.5647c-0.75007,-0.74473 -1.6106,-1.32093 -2.5816,-1.7286c-1.00347,-0.42127 -2.0567,-0.6319 -3.1597,-0.6319c-1.10573,0 -2.16123,0.2108 -3.1665,0.6324c-0.97213,0.40767 -1.8335,0.98393 -2.5841,1.7288c-0.7506,0.7448 -1.3313,1.59957 -1.7421,2.5643c-0.42487,0.99753 -0.6373,2.04497 -0.6373,3.1423c0,1.09453 0.21227,2.1397 0.6368,3.1355c0.4108,0.96353 0.99143,1.81747 1.7419,2.5618c0.75073,0.74453 1.61223,1.3206 2.5845,1.7282c1.00547,0.42153 2.06107,0.6323 3.1668,0.6323c1.103,0 2.15633,-0.2106 3.16,-0.6318c0.97107,-0.40753 1.83173,-0.98357 2.582,-1.7281c0.7502,-0.74447 1.33063,-1.5985 1.7413,-2.5621c0.42453,-0.996 0.6368,-2.04127 0.6368,-3.1358zM47.1253,31.09c0,1.96647 -0.3834,3.84923 -1.1502,5.6483c-0.73993,1.7362 -1.78383,3.2731 -3.1317,4.6107c-1.34793,1.33753 -2.8967,2.37347 -4.6463,3.1078c-1.81293,0.76087 -3.71023,1.1413 -5.6919,1.1413c-1.98353,0 -3.88237,-0.3803 -5.6965,-1.1409c-1.751,-0.73413 -3.30087,-1.76997 -4.6496,-3.1075c-1.34867,-1.3376 -2.39313,-2.87463 -3.1334,-4.6111c-0.767,-1.79907 -1.1505,-3.68193 -1.1505,-5.6486c0,-1.96867 0.38333,-3.85307 1.15,-5.6532c0.74007,-1.73793 1.78447,-3.27607 3.1332,-4.6144c1.34867,-1.3384 2.89867,-2.37483 4.65,-3.1093c1.81407,-0.76073 3.713,-1.1411 5.6968,-1.1411c1.98193,0 3.87933,0.38053 5.6922,1.1416c1.74987,0.7346 3.29873,1.7711 4.6466,3.1095c1.34793,1.3384 2.3918,2.8764 3.1316,4.614c0.76647,1.8002 1.1497,3.6845 1.1497,5.6529z"></path></g></svg>