<svg xmlns="http://www.w3.org/2000/svg" xmlns:xlink="http://www.w3.org/1999/xlink" width="42.3603515625" height="42.35986328125" viewBox="0 0 42.3603515625 42.35986328125" fill="none"><g opacity="1"  transform="translate(4.18017578125 4.179931640625)  rotate(0)"><path  id="路径 6" style="fill:#FFFFFF; opacity:1;" d="M34.2051,12.825c0.06833,0.0034 0.13653,0.00843 0.2046,0.0151c0.06807,0.00673 0.13593,0.0151 0.2036,0.0251c0.06767,0.01007 0.13507,0.02177 0.2022,0.0351c0.06707,0.01333 0.1338,0.02833 0.2002,0.045c0.06633,0.0166 0.13223,0.03483 0.1977,0.0547c0.06547,0.01987 0.1304,0.0413 0.1948,0.0643c0.0644,0.02307 0.1282,0.0477 0.1914,0.0739c0.0632,0.0262 0.12573,0.0539 0.1876,0.0831c0.0618,0.02927 0.12287,0.06003 0.1832,0.0923c0.06033,0.0322 0.11983,0.0659 0.1785,0.1011c0.05873,0.03513 0.11653,0.07173 0.1734,0.1098c0.05687,0.038 0.11277,0.07737 0.1677,0.1181c0.05493,0.04073 0.10887,0.0828 0.1618,0.1262c0.05287,0.0434 0.10463,0.08807 0.1553,0.134c0.05067,0.04593 0.1002,0.0931 0.1486,0.1415c0.0484,0.0484 0.09557,0.09793 0.1415,0.1486c0.04593,0.05067 0.0906,0.10243 0.134,0.1553c0.0434,0.05293 0.08547,0.10687 0.1262,0.1618c0.04073,0.05493 0.0801,0.11083 0.1181,0.1677c0.03807,0.05687 0.07467,0.11463 0.1098,0.1733c0.0352,0.05873 0.0689,0.11827 0.1011,0.1786c0.03227,0.06033 0.06303,0.1214 0.0923,0.1832c0.0292,0.06187 0.0569,0.1244 0.0831,0.1876c0.0262,0.0632 0.05083,0.127 0.0739,0.1914c0.023,0.0644 0.04443,0.12933 0.0643,0.1948c0.01987,0.06547 0.0381,0.13137 0.0547,0.1977c0.01667,0.0664 0.03167,0.13313 0.045,0.2002c0.01333,0.06713 0.02503,0.13453 0.0351,0.2022c0.01,0.06767 0.01837,0.13553 0.0251,0.2036c0.00667,0.06807 0.0117,0.13627 0.0151,0.2046c0.00333,0.06833 0.005,0.1367 0.005,0.2051c0,0.0684 -0.00167,0.13677 -0.005,0.2051c-0.0034,0.06833 -0.00843,0.13653 -0.0151,0.2046c-0.00673,0.06807 -0.0151,0.13593 -0.0251,0.2036c-0.01007,0.06767 -0.02177,0.13507 -0.0351,0.2022c-0.01333,0.06707 -0.02833,0.1338 -0.045,0.2002c-0.0166,0.06633 -0.03483,0.13223 -0.0547,0.1977c-0.01987,0.06547 -0.0413,0.1304 -0.0643,0.1948c-0.02307,0.0644 -0.0477,0.1282 -0.0739,0.1914c-0.0262,0.0632 -0.0539,0.12573 -0.0831,0.1876c-0.02927,0.0618 -0.06003,0.12287 -0.0923,0.1832c-0.0322,0.06033 -0.0659,0.11983 -0.1011,0.1785c-0.0352,0.05873 -0.0718,0.11653 -0.1098,0.1734c-0.038,0.05687 -0.07737,0.11277 -0.1181,0.1677c-0.04073,0.05493 -0.0828,0.10887 -0.1262,0.1618c-0.0434,0.05287 -0.08807,0.10463 -0.134,0.1553c-0.04593,0.05067 -0.0931,0.1002 -0.1415,0.1486c-0.0484,0.0484 -0.09793,0.09557 -0.1486,0.1415c-0.05067,0.04593 -0.10243,0.0906 -0.1553,0.134c-0.05293,0.0434 -0.10687,0.08547 -0.1618,0.1262c-0.05493,0.04073 -0.11083,0.0801 -0.1677,0.1181c-0.05687,0.03807 -0.11467,0.07467 -0.1734,0.1098c-0.05867,0.0352 -0.11817,0.0689 -0.1785,0.1011c-0.06033,0.03227 -0.1214,0.06303 -0.1832,0.0923c-0.06187,0.0292 -0.1244,0.0569 -0.1876,0.0831c-0.0632,0.0262 -0.127,0.05083 -0.1914,0.0739c-0.0644,0.023 -0.12933,0.04443 -0.1948,0.0643c-0.06547,0.01987 -0.13137,0.0381 -0.1977,0.0547c-0.0664,0.01667 -0.13313,0.03167 -0.2002,0.045c-0.06713,0.01333 -0.13453,0.02503 -0.2022,0.0351c-0.06767,0.01 -0.13553,0.01837 -0.2036,0.0251c-0.06807,0.00667 -0.13627,0.0117 -0.2046,0.0151c-0.06833,0.00333 -0.1367,0.005 -0.2051,0.005h-34c-0.06841,0 -0.13678,-0.00167 -0.2051,-0.005c-0.06833,-0.0034 -0.13653,-0.00843 -0.20461,-0.0151c-0.06808,-0.00673 -0.13595,-0.0151 -0.20362,-0.0251c-0.06767,-0.01007 -0.13505,-0.02177 -0.20214,-0.0351c-0.06709,-0.01333 -0.13382,-0.02833 -0.20018,-0.045c-0.06636,-0.0166 -0.13227,-0.03483 -0.19773,-0.0547c-0.06546,-0.01987 -0.1304,-0.0413 -0.19481,-0.0643c-0.06441,-0.02307 -0.12821,-0.0477 -0.19142,-0.0739c-0.0632,-0.0262 -0.12572,-0.0539 -0.18756,-0.0831c-0.06184,-0.02927 -0.12293,-0.06003 -0.18326,-0.0923c-0.06033,-0.0322 -0.11983,-0.0659 -0.17851,-0.1011c-0.05867,-0.03513 -0.11645,-0.07173 -0.17333,-0.1098c-0.05688,-0.038 -0.11279,-0.07737 -0.16774,-0.1181c-0.05495,-0.04073 -0.10886,-0.0828 -0.16174,-0.1262c-0.05288,-0.0434 -0.10467,-0.08807 -0.15536,-0.134c-0.05069,-0.04593 -0.10022,-0.0931 -0.14859,-0.1415c-0.04837,-0.0484 -0.09552,-0.09793 -0.14147,-0.1486c-0.04594,-0.05067 -0.09061,-0.10243 -0.134,-0.1553c-0.0434,-0.05293 -0.08548,-0.10687 -0.12623,-0.1618c-0.04075,-0.05493 -0.08012,-0.11083 -0.11813,-0.1677c-0.03801,-0.05687 -0.0746,-0.11467 -0.10977,-0.1734c-0.03517,-0.05867 -0.06887,-0.11817 -0.10112,-0.1785c-0.03225,-0.06033 -0.063,-0.1214 -0.09225,-0.1832c-0.02925,-0.06187 -0.05696,-0.1244 -0.08314,-0.1876c-0.02617,-0.0632 -0.05078,-0.127 -0.07383,-0.1914c-0.02305,-0.0644 -0.0445,-0.12933 -0.06436,-0.1948c-0.01986,-0.06547 -0.0381,-0.13137 -0.05472,-0.1977c-0.01662,-0.0664 -0.0316,-0.13313 -0.04495,-0.2002c-0.01335,-0.06713 -0.02504,-0.13453 -0.03508,-0.2022c-0.01003,-0.06767 -0.0184,-0.13553 -0.02511,-0.2036c-0.00671,-0.06807 -0.01174,-0.13627 -0.01509,-0.2046c-0.00336,-0.06833 -0.00504,-0.1367 -0.00504,-0.2051c0,-0.0684 0.00168,-0.13677 0.00504,-0.2051c0.00335,-0.06833 0.00838,-0.13653 0.01509,-0.2046c0.00671,-0.06807 0.01508,-0.13593 0.02511,-0.2036c0.01004,-0.06767 0.02173,-0.13507 0.03508,-0.2022c0.01335,-0.06707 0.02833,-0.1338 0.04495,-0.2002c0.01662,-0.06633 0.03486,-0.13223 0.05472,-0.1977c0.01986,-0.06547 0.04131,-0.1304 0.06436,-0.1948c0.02305,-0.0644 0.04766,-0.1282 0.07383,-0.1914c0.02618,-0.0632 0.05389,-0.12573 0.08314,-0.1876c0.02925,-0.0618 0.06,-0.12287 0.09225,-0.1832c0.03225,-0.06033 0.06595,-0.11983 0.10112,-0.1785c0.03517,-0.05873 0.07176,-0.11653 0.10977,-0.1734c0.03801,-0.05687 0.07738,-0.11277 0.11813,-0.1677c0.04075,-0.05493 0.08283,-0.10887 0.12623,-0.1618c0.04339,-0.05287 0.08806,-0.10463 0.134,-0.1553c0.04595,-0.05067 0.0931,-0.1002 0.14147,-0.1486c0.04837,-0.0484 0.0979,-0.09557 0.14859,-0.1415c0.05069,-0.04593 0.10248,-0.0906 0.15536,-0.134c0.05288,-0.0434 0.10679,-0.08547 0.16174,-0.1262c0.05495,-0.04073 0.11086,-0.0801 0.16774,-0.1181c0.05688,-0.03807 0.11466,-0.07467 0.17333,-0.1098c0.05868,-0.0352 0.11818,-0.0689 0.17851,-0.1011c0.06033,-0.03227 0.12142,-0.06303 0.18326,-0.0923c0.06184,-0.0292 0.12436,-0.0569 0.18756,-0.0831c0.06321,-0.0262 0.12701,-0.05083 0.19142,-0.0739c0.06441,-0.023 0.12935,-0.04443 0.19481,-0.0643c0.06546,-0.01987 0.13137,-0.0381 0.19773,-0.0547c0.06636,-0.01667 0.13309,-0.03167 0.20018,-0.045c0.06709,-0.01333 0.13448,-0.02503 0.20214,-0.0351c0.06767,-0.01 0.13554,-0.01837 0.20362,-0.0251c0.06808,-0.00667 0.13628,-0.0117 0.20461,-0.0151c0.06833,-0.00333 0.13669,-0.005 0.2051,-0.005h34c0.0684,0 0.13677,0.00167 0.2051,0.005z"></path><path  id="路径 6" style="fill:#FFFFFF; opacity:1;" d="M21.1759,34.2051c-0.00333,0.06833 -0.00833,0.13653 -0.015,0.2046c-0.00673,0.06807 -0.01513,0.13593 -0.0252,0.2036c-0.01,0.06767 -0.02167,0.13507 -0.035,0.2022c-0.0134,0.06707 -0.0284,0.1338 -0.045,0.2002c-0.0166,0.06633 -0.03483,0.13223 -0.0547,0.1977c-0.01987,0.06547 -0.04133,0.1304 -0.0644,0.1948c-0.023,0.0644 -0.0476,0.1282 -0.0738,0.1914c-0.0262,0.0632 -0.05393,0.12573 -0.0832,0.1876c-0.0292,0.0618 -0.05993,0.12287 -0.0922,0.1832c-0.03227,0.06033 -0.06597,0.11983 -0.1011,0.1785c-0.0352,0.05873 -0.0718,0.11653 -0.1098,0.1734c-0.038,0.05687 -0.07737,0.11277 -0.1181,0.1677c-0.04073,0.05493 -0.0828,0.10887 -0.1262,0.1618c-0.0434,0.05287 -0.0881,0.10463 -0.1341,0.1553c-0.04593,0.05067 -0.09307,0.1002 -0.1414,0.1486c-0.0484,0.0484 -0.09793,0.09557 -0.1486,0.1415c-0.05067,0.04593 -0.10247,0.0906 -0.1554,0.134c-0.05287,0.0434 -0.10677,0.08547 -0.1617,0.1262c-0.05493,0.04073 -0.11083,0.0801 -0.1677,0.1181c-0.05693,0.03807 -0.11473,0.07467 -0.1734,0.1098c-0.05867,0.0352 -0.11817,0.0689 -0.1785,0.1011c-0.06033,0.03227 -0.1214,0.06303 -0.1832,0.0923c-0.06187,0.0292 -0.1244,0.0569 -0.1876,0.0831c-0.0632,0.0262 -0.127,0.05083 -0.1914,0.0739c-0.0644,0.023 -0.12933,0.04443 -0.1948,0.0643c-0.06547,0.01987 -0.1314,0.0381 -0.1978,0.0547c-0.06633,0.01667 -0.13303,0.03167 -0.2001,0.045c-0.06713,0.01333 -0.13453,0.02503 -0.2022,0.0351c-0.06767,0.01 -0.13553,0.01837 -0.2036,0.0251c-0.06807,0.00667 -0.13627,0.0117 -0.2046,0.0151c-0.06833,0.00333 -0.1367,0.005 -0.2051,0.005c-0.0684,0 -0.13677,-0.00167 -0.2051,-0.005c-0.06833,-0.0034 -0.13653,-0.00843 -0.2046,-0.0151c-0.06813,-0.00673 -0.13603,-0.0151 -0.2037,-0.0251c-0.06767,-0.01007 -0.13503,-0.02177 -0.2021,-0.0351c-0.06707,-0.01333 -0.1338,-0.02833 -0.2002,-0.045c-0.06633,-0.0166 -0.13223,-0.03483 -0.1977,-0.0547c-0.06547,-0.01987 -0.1304,-0.0413 -0.1948,-0.0643c-0.0644,-0.02307 -0.1282,-0.0477 -0.1914,-0.0739c-0.0632,-0.0262 -0.12573,-0.0539 -0.1876,-0.0831c-0.06187,-0.02927 -0.12297,-0.06003 -0.1833,-0.0923c-0.06033,-0.0322 -0.11983,-0.0659 -0.1785,-0.1011c-0.05867,-0.0352 -0.11643,-0.0718 -0.1733,-0.1098c-0.05687,-0.038 -0.11277,-0.07737 -0.1677,-0.1181c-0.055,-0.04073 -0.10893,-0.0828 -0.1618,-0.1262c-0.05287,-0.0434 -0.10463,-0.08807 -0.1553,-0.134c-0.05073,-0.04593 -0.10027,-0.0931 -0.1486,-0.1415c-0.0484,-0.0484 -0.09557,-0.09793 -0.1415,-0.1486c-0.04593,-0.05067 -0.0906,-0.10243 -0.134,-0.1553c-0.0434,-0.05293 -0.08547,-0.10687 -0.1262,-0.1618c-0.0408,-0.05493 -0.0802,-0.11083 -0.1182,-0.1677c-0.038,-0.05687 -0.07457,-0.11467 -0.1097,-0.1734c-0.0352,-0.05867 -0.06893,-0.11817 -0.1012,-0.1785c-0.0322,-0.06033 -0.06293,-0.1214 -0.0922,-0.1832c-0.02927,-0.06187 -0.05697,-0.1244 -0.0831,-0.1876c-0.0262,-0.0632 -0.05083,-0.127 -0.0739,-0.1914c-0.023,-0.0644 -0.04443,-0.12933 -0.0643,-0.1948c-0.01987,-0.06547 -0.03813,-0.13137 -0.0548,-0.1977c-0.0166,-0.0664 -0.03157,-0.13313 -0.0449,-0.2002c-0.01333,-0.06713 -0.02503,-0.13453 -0.0351,-0.2022c-0.01,-0.06767 -0.01837,-0.13553 -0.0251,-0.2036c-0.00673,-0.06807 -0.01177,-0.13627 -0.0151,-0.2046c-0.00333,-0.06833 -0.005,-0.1367 -0.005,-0.2051v-34c0,-0.06841 0.00167,-0.13678 0.005,-0.2051c0.00333,-0.06833 0.00837,-0.13653 0.0151,-0.20461c0.00673,-0.06808 0.0151,-0.13595 0.0251,-0.20362c0.01007,-0.06767 0.02177,-0.13505 0.0351,-0.20214c0.01333,-0.06709 0.0283,-0.13382 0.0449,-0.20018c0.01667,-0.06636 0.03493,-0.13227 0.0548,-0.19773c0.01987,-0.06546 0.0413,-0.1304 0.0643,-0.19481c0.02307,-0.06441 0.0477,-0.12821 0.0739,-0.19142c0.02613,-0.0632 0.05383,-0.12572 0.0831,-0.18756c0.02927,-0.06184 0.06,-0.12293 0.0922,-0.18326c0.03227,-0.06033 0.066,-0.11983 0.1012,-0.17851c0.03513,-0.05867 0.0717,-0.11645 0.1097,-0.17333c0.038,-0.05688 0.0774,-0.11279 0.1182,-0.16774c0.04073,-0.05495 0.0828,-0.10886 0.1262,-0.16174c0.0434,-0.05288 0.08807,-0.10467 0.134,-0.15536c0.04593,-0.05069 0.0931,-0.10022 0.1415,-0.14859c0.04833,-0.04837 0.09787,-0.09552 0.1486,-0.14147c0.05067,-0.04594 0.10243,-0.09061 0.1553,-0.134c0.05287,-0.0434 0.1068,-0.08548 0.1618,-0.12623c0.05493,-0.04075 0.11083,-0.08012 0.1677,-0.11813c0.05687,-0.03801 0.11463,-0.0746 0.1733,-0.10977c0.05867,-0.03517 0.11817,-0.06887 0.1785,-0.10112c0.06033,-0.03225 0.12143,-0.063 0.1833,-0.09225c0.06187,-0.02925 0.1244,-0.05696 0.1876,-0.08314c0.0632,-0.02617 0.127,-0.05078 0.1914,-0.07383c0.0644,-0.02305 0.12933,-0.0445 0.1948,-0.06436c0.06547,-0.01986 0.13137,-0.0381 0.1977,-0.05472c0.0664,-0.01662 0.13313,-0.0316 0.2002,-0.04495c0.06707,-0.01335 0.13443,-0.02504 0.2021,-0.03508c0.06767,-0.01003 0.13557,-0.0184 0.2037,-0.02511c0.06807,-0.00671 0.13627,-0.01174 0.2046,-0.01509c0.06833,-0.00336 0.1367,-0.00504 0.2051,-0.00504c0.0684,0 0.13677,0.00168 0.2051,0.00504c0.06833,0.00335 0.13653,0.00838 0.2046,0.01509c0.06807,0.00671 0.13593,0.01508 0.2036,0.02511c0.06767,0.01004 0.13507,0.02173 0.2022,0.03508c0.06707,0.01335 0.13377,0.02833 0.2001,0.04495c0.0664,0.01662 0.13233,0.03486 0.1978,0.05472c0.06547,0.01986 0.1304,0.04131 0.1948,0.06436c0.0644,0.02305 0.1282,0.04766 0.1914,0.07383c0.0632,0.02618 0.12573,0.05389 0.1876,0.08314c0.0618,0.02925 0.12287,0.06 0.1832,0.09225c0.06033,0.03225 0.11983,0.06595 0.1785,0.10112c0.05867,0.03517 0.11647,0.07176 0.1734,0.10977c0.05687,0.03801 0.11277,0.07738 0.1677,0.11813c0.05493,0.04075 0.10883,0.08283 0.1617,0.12623c0.05293,0.04339 0.10473,0.08806 0.1554,0.134c0.05067,0.04595 0.1002,0.0931 0.1486,0.14147c0.04833,0.04837 0.0955,0.0979 0.1415,0.14859c0.04593,0.05069 0.0906,0.10248 0.134,0.15536c0.0434,0.05288 0.08547,0.10679 0.1262,0.16174c0.04073,0.05495 0.0801,0.11086 0.1181,0.16774c0.038,0.05688 0.0746,0.11466 0.1098,0.17333c0.03513,0.05868 0.06883,0.11818 0.1011,0.17851c0.03227,0.06033 0.063,0.12142 0.0922,0.18326c0.02927,0.06184 0.057,0.12436 0.0832,0.18756c0.0262,0.06321 0.0508,0.12701 0.0738,0.19142c0.02307,0.06441 0.04453,0.12935 0.0644,0.19481c0.01987,0.06546 0.0381,0.13137 0.0547,0.19773c0.0166,0.06636 0.0316,0.13309 0.045,0.20018c0.01333,0.06709 0.025,0.13448 0.035,0.20214c0.01007,0.06767 0.01847,0.13554 0.0252,0.20362c0.00667,0.06808 0.01167,0.13628 0.015,0.20461c0.0034,0.06833 0.0051,0.13669 0.0051,0.2051v34c0,0.0684 -0.0017,0.13677 -0.0051,0.2051z"></path></g></svg>