<svg xmlns="http://www.w3.org/2000/svg" xmlns:xlink="http://www.w3.org/1999/xlink" width="45.099609375" height="45.5341796875" viewBox="0 0 45.099609375 45.5341796875" fill="none"><g opacity="1"  transform="translate(2.0498046875 2.0498046875)  rotate(0)"><path  id="路径 1" style="fill:#FFFFFF; opacity:1;" d="M2.65212,5.90585c0.00797,-0.08099 0.0199,-0.16139 0.03578,-0.24121c0.01587,-0.07982 0.03562,-0.15867 0.05925,-0.23655c0.02362,-0.07787 0.051,-0.15441 0.08215,-0.2296c0.03114,-0.07519 0.06589,-0.14867 0.10426,-0.22044c0.03836,-0.07177 0.08015,-0.14149 0.12536,-0.20916c0.04521,-0.06767 0.09364,-0.13295 0.14527,-0.19586c0.05163,-0.06291 0.10621,-0.12313 0.16376,-0.18068c0.05754,-0.05755 0.11777,-0.11214 0.18068,-0.16377c0.06291,-0.05163 0.12819,-0.10005 0.19586,-0.14526c0.06767,-0.04521 0.13739,-0.087 0.20916,-0.12536c0.07177,-0.03837 0.14525,-0.07312 0.22044,-0.10427c0.07519,-0.03114 0.15172,-0.05852 0.2296,-0.08215c0.07787,-0.02362 0.15672,-0.04337 0.23654,-0.05925c0.07982,-0.01587 0.16022,-0.0278 0.24121,-0.03578c0.08099,-0.00797 0.16218,-0.01196 0.24356,-0.01196h30.75c0.0814,0 0.1626,0.00399 0.2436,0.01196c0.081,0.00798 0.1614,0.01991 0.2412,0.03578c0.0798,0.01588 0.15863,0.03563 0.2365,0.05925c0.07793,0.02363 0.15447,0.05101 0.2296,0.08215c0.0752,0.03115 0.1487,0.0659 0.2205,0.10427c0.07173,0.03836 0.14143,0.08015 0.2091,0.12536c0.06767,0.04521 0.13297,0.09363 0.1959,0.14526c0.06293,0.05163 0.12317,0.10622 0.1807,0.16377c0.05753,0.05755 0.1121,0.11777 0.1637,0.18068c0.05167,0.06291 0.1001,0.12819 0.1453,0.19586c0.0452,0.06767 0.087,0.1374 0.1254,0.20917c0.03833,0.07177 0.07307,0.14525 0.1042,0.22044c0.03113,0.07519 0.05853,0.15172 0.0822,0.22959c0.0236,0.07788 0.04333,0.15673 0.0592,0.23655c0.01587,0.07982 0.0278,0.16022 0.0358,0.24121c0.008,0.08099 0.012,0.16218 0.012,0.24356v34.85029c0,0.0814 -0.004,0.1626 -0.012,0.2436c-0.008,0.08093 -0.01993,0.16133 -0.0358,0.2412c-0.01587,0.0798 -0.0356,0.15863 -0.0592,0.2365c-0.02367,0.07787 -0.05107,0.1544 -0.0822,0.2296c-0.03113,0.0752 -0.06587,0.1487 -0.1042,0.2205c-0.0384,0.07173 -0.0802,0.14143 -0.1254,0.2091c-0.0452,0.06767 -0.09363,0.13297 -0.1453,0.1959c-0.0516,0.06287 -0.10617,0.1231 -0.1637,0.1807c-0.05753,0.05753 -0.11777,0.1121 -0.1807,0.1637c-0.06293,0.05167 -0.12823,0.1001 -0.1959,0.1453c-0.06767,0.0452 -0.13737,0.087 -0.2091,0.1254c-0.0718,0.03833 -0.1453,0.07307 -0.2205,0.1042c-0.07513,0.03113 -0.15167,0.05853 -0.2296,0.0822c-0.07787,0.0236 -0.1567,0.04333 -0.2365,0.0592c-0.0798,0.01587 -0.1602,0.0278 -0.2412,0.0358c-0.081,0.008 -0.1622,0.012 -0.2436,0.012h-30.75c-0.08138,0 -0.16257,-0.004 -0.24356,-0.012c-0.08099,-0.008 -0.16139,-0.01993 -0.24121,-0.0358c-0.07982,-0.01587 -0.15867,-0.0356 -0.23654,-0.0592c-0.07788,-0.02367 -0.15441,-0.05107 -0.2296,-0.0822c-0.07519,-0.03113 -0.14867,-0.06587 -0.22044,-0.1042c-0.07177,-0.0384 -0.14149,-0.0802 -0.20916,-0.1254c-0.06767,-0.0452 -0.13295,-0.09363 -0.19586,-0.1453c-0.06291,-0.0516 -0.12314,-0.10617 -0.18068,-0.1637c-0.05755,-0.0576 -0.11213,-0.11783 -0.16376,-0.1807c-0.05163,-0.06293 -0.10006,-0.12823 -0.14527,-0.1959c-0.04521,-0.06767 -0.087,-0.13737 -0.12536,-0.2091c-0.03837,-0.0718 -0.07312,-0.1453 -0.10426,-0.2205c-0.03115,-0.0752 -0.05853,-0.15173 -0.08215,-0.2296c-0.02363,-0.07787 -0.04338,-0.1567 -0.05925,-0.2365c-0.01588,-0.07987 -0.02781,-0.16027 -0.03578,-0.2412c-0.00798,-0.081 -0.01197,-0.1622 -0.01197,-0.2436v-34.85029c0,-0.08138 0.00399,-0.16257 0.01197,-0.24356zM7.60985,38.5148h25.78035v-29.88052h-25.78035z"></path><path  id="路径 2" style="fill:#FFFFFF; opacity:1;" d="M14.3494,29.7271v-13.325c0,-0.0672 0.0033,-0.1342 0.0099,-0.201c0.0066,-0.0668 0.01643,-0.13313 0.0295,-0.199c0.01313,-0.06587 0.02943,-0.1309 0.0489,-0.1951c0.01947,-0.06427 0.04207,-0.12743 0.0678,-0.1895c0.02567,-0.062 0.05433,-0.1226 0.086,-0.1818c0.0316,-0.0592 0.06607,-0.11673 0.1034,-0.1726c0.03733,-0.0558 0.07727,-0.10967 0.1198,-0.1616c0.0426,-0.05187 0.08763,-0.10153 0.1351,-0.149c0.04753,-0.04747 0.09723,-0.0925 0.1491,-0.1351c0.05193,-0.0426 0.1058,-0.08257 0.1616,-0.1199c0.0558,-0.03727 0.1133,-0.07173 0.1725,-0.1034c0.05927,-0.03167 0.1199,-0.06033 0.1819,-0.086c0.06207,-0.02567 0.1252,-0.04827 0.1894,-0.0678c0.06427,-0.01947 0.12933,-0.03577 0.1952,-0.0489c0.06587,-0.01307 0.1322,-0.0229 0.199,-0.0295c0.0668,-0.00653 0.13377,-0.0098 0.2009,-0.0098c0.06713,0 0.1341,0.00327 0.2009,0.0098c0.06687,0.0066 0.1332,0.01643 0.199,0.0295c0.06587,0.01313 0.13093,0.02943 0.1952,0.0489c0.06427,0.01953 0.1274,0.04213 0.1894,0.0678c0.06207,0.02567 0.1227,0.05433 0.1819,0.086c0.0592,0.03167 0.1167,0.06613 0.1725,0.1034c0.05587,0.03733 0.10973,0.0773 0.1616,0.1199c0.05193,0.0426 0.10163,0.08763 0.1491,0.1351c0.04747,0.04747 0.0925,0.09713 0.1351,0.149c0.0426,0.05193 0.08253,0.1058 0.1198,0.1616c0.03733,0.05587 0.07183,0.1134 0.1035,0.1726c0.0316,0.0592 0.06027,0.1198 0.086,0.1818c0.02567,0.06207 0.04823,0.12523 0.0677,0.1895c0.01953,0.0642 0.03583,0.12923 0.0489,0.1951c0.01313,0.06587 0.02297,0.1322 0.0295,0.199c0.0066,0.0668 0.0099,0.1338 0.0099,0.201v13.325c0,0.06713 -0.0033,0.1341 -0.0099,0.2009c-0.00653,0.0668 -0.01637,0.13313 -0.0295,0.199c-0.01307,0.06587 -0.02937,0.1309 -0.0489,0.1951c-0.01947,0.06427 -0.04203,0.12743 -0.0677,0.1895c-0.02573,0.062 -0.0544,0.1226 -0.086,0.1818c-0.03167,0.0592 -0.06617,0.11673 -0.1035,0.1726c-0.03727,0.0558 -0.0772,0.10967 -0.1198,0.1616c-0.0426,0.05187 -0.08763,0.10153 -0.1351,0.149c-0.04747,0.04747 -0.09717,0.0925 -0.1491,0.1351c-0.05187,0.0426 -0.10573,0.08257 -0.1616,0.1199c-0.0558,0.03727 -0.1133,0.07173 -0.1725,0.1034c-0.0592,0.03167 -0.11983,0.06033 -0.1819,0.086c-0.062,0.02567 -0.12513,0.04827 -0.1894,0.0678c-0.06427,0.01947 -0.12933,0.03577 -0.1952,0.0489c-0.0658,0.01307 -0.13213,0.0229 -0.199,0.0295c-0.0668,0.0066 -0.13377,0.0099 -0.2009,0.0099c-0.06713,0 -0.1341,-0.0033 -0.2009,-0.0099c-0.0668,-0.0066 -0.13313,-0.01643 -0.199,-0.0295c-0.06587,-0.01313 -0.13093,-0.02943 -0.1952,-0.0489c-0.0642,-0.01953 -0.12733,-0.04213 -0.1894,-0.0678c-0.062,-0.02567 -0.1226,-0.05433 -0.1818,-0.086c-0.05927,-0.03167 -0.1168,-0.06613 -0.1726,-0.1034c-0.0558,-0.03733 -0.10967,-0.0773 -0.1616,-0.1199c-0.05187,-0.0426 -0.10157,-0.08763 -0.1491,-0.1351c-0.04747,-0.04747 -0.0925,-0.09713 -0.1351,-0.149c-0.04253,-0.05193 -0.08247,-0.1058 -0.1198,-0.1616c-0.03733,-0.05587 -0.0718,-0.1134 -0.1034,-0.1726c-0.03167,-0.0592 -0.06033,-0.11983 -0.086,-0.1819c-0.02573,-0.062 -0.04833,-0.12513 -0.0678,-0.1894c-0.01947,-0.0642 -0.03577,-0.12923 -0.0489,-0.1951c-0.01307,-0.06587 -0.0229,-0.1322 -0.0295,-0.199c-0.0066,-0.0668 -0.0099,-0.13377 -0.0099,-0.2009z"></path><path  id="路径 3" style="fill:#FFFFFF; opacity:1;" d="M22.5506,29.7271v-13.325c0,-0.0672 0.0033,-0.1342 0.0099,-0.201c0.00653,-0.0668 0.01637,-0.13313 0.0295,-0.199c0.01307,-0.06587 0.02937,-0.1309 0.0489,-0.1951c0.01947,-0.06427 0.04203,-0.12743 0.0677,-0.1895c0.02573,-0.062 0.0544,-0.1226 0.086,-0.1818c0.03167,-0.0592 0.06617,-0.11673 0.1035,-0.1726c0.03727,-0.0558 0.0772,-0.10967 0.1198,-0.1616c0.0426,-0.05187 0.08763,-0.10153 0.1351,-0.149c0.04747,-0.04747 0.09717,-0.0925 0.1491,-0.1351c0.05187,-0.0426 0.10573,-0.08257 0.1616,-0.1199c0.0558,-0.03727 0.1133,-0.07173 0.1725,-0.1034c0.0592,-0.03167 0.11983,-0.06033 0.1819,-0.086c0.062,-0.02567 0.12513,-0.04827 0.1894,-0.0678c0.06427,-0.01947 0.1293,-0.03577 0.1951,-0.0489c0.06587,-0.01307 0.13223,-0.0229 0.1991,-0.0295c0.0668,-0.00653 0.13377,-0.0098 0.2009,-0.0098c0.06713,0 0.1341,0.00327 0.2009,0.0098c0.0668,0.0066 0.13313,0.01643 0.199,0.0295c0.06587,0.01313 0.13093,0.02943 0.1952,0.0489c0.0642,0.01953 0.12733,0.04213 0.1894,0.0678c0.062,0.02567 0.1226,0.05433 0.1818,0.086c0.05927,0.03167 0.1168,0.06613 0.1726,0.1034c0.0558,0.03733 0.10967,0.0773 0.1616,0.1199c0.05187,0.0426 0.10157,0.08763 0.1491,0.1351c0.04747,0.04747 0.0925,0.09713 0.1351,0.149c0.04253,0.05193 0.08247,0.1058 0.1198,0.1616c0.03727,0.05587 0.07173,0.1134 0.1034,0.1726c0.03167,0.0592 0.06033,0.1198 0.086,0.1818c0.02573,0.06207 0.04833,0.12523 0.0678,0.1895c0.01947,0.0642 0.03577,0.12923 0.0489,0.1951c0.01307,0.06587 0.0229,0.1322 0.0295,0.199c0.0066,0.0668 0.0099,0.1338 0.0099,0.201v13.325c0,0.06713 -0.0033,0.1341 -0.0099,0.2009c-0.0066,0.0668 -0.01643,0.13313 -0.0295,0.199c-0.01313,0.06587 -0.02943,0.1309 -0.0489,0.1951c-0.01947,0.06427 -0.04207,0.12743 -0.0678,0.1895c-0.02567,0.062 -0.05433,0.1226 -0.086,0.1818c-0.03167,0.0592 -0.06613,0.11673 -0.1034,0.1726c-0.03733,0.0558 -0.07727,0.10967 -0.1198,0.1616c-0.0426,0.05187 -0.08763,0.10153 -0.1351,0.149c-0.04753,0.04747 -0.09723,0.0925 -0.1491,0.1351c-0.05193,0.0426 -0.1058,0.08257 -0.1616,0.1199c-0.0558,0.03727 -0.11333,0.07173 -0.1726,0.1034c-0.0592,0.03167 -0.1198,0.06033 -0.1818,0.086c-0.06207,0.02567 -0.1252,0.04827 -0.1894,0.0678c-0.06427,0.01947 -0.12933,0.03577 -0.1952,0.0489c-0.06587,0.01307 -0.1322,0.0229 -0.199,0.0295c-0.0668,0.0066 -0.13377,0.0099 -0.2009,0.0099c-0.06713,0 -0.1341,-0.0033 -0.2009,-0.0099c-0.06687,-0.0066 -0.13323,-0.01643 -0.1991,-0.0295c-0.0658,-0.01313 -0.13083,-0.02943 -0.1951,-0.0489c-0.06427,-0.01953 -0.1274,-0.04213 -0.1894,-0.0678c-0.06207,-0.02567 -0.1227,-0.05433 -0.1819,-0.086c-0.0592,-0.03167 -0.1167,-0.06613 -0.1725,-0.1034c-0.05587,-0.03733 -0.10973,-0.0773 -0.1616,-0.1199c-0.05193,-0.0426 -0.10163,-0.08763 -0.1491,-0.1351c-0.04747,-0.04747 -0.0925,-0.09713 -0.1351,-0.149c-0.0426,-0.05193 -0.08253,-0.1058 -0.1198,-0.1616c-0.03733,-0.05587 -0.07183,-0.1134 -0.1035,-0.1726c-0.0316,-0.0592 -0.06027,-0.11983 -0.086,-0.1819c-0.02567,-0.062 -0.04823,-0.12513 -0.0677,-0.1894c-0.01953,-0.0642 -0.03583,-0.12923 -0.0489,-0.1951c-0.01313,-0.06587 -0.02297,-0.1322 -0.0295,-0.199c-0.0066,-0.0668 -0.0099,-0.13377 -0.0099,-0.2009z"></path><path  id="路径 4" style="fill:#FFFFFF; opacity:1;" d="M41,8.19941h-41c-0.06714,0 -0.13412,-0.00329 -0.20093,-0.00987c-0.06682,-0.00658 -0.13315,-0.01642 -0.199,-0.02952c-0.06585,-0.01309 -0.1309,-0.02939 -0.19515,-0.04888c-0.06425,-0.01949 -0.12739,-0.04208 -0.18942,-0.06777c-0.06203,-0.02569 -0.12265,-0.05437 -0.18186,-0.08602c-0.05921,-0.03165 -0.11673,-0.06612 -0.17256,-0.10342c-0.05583,-0.0373 -0.10969,-0.07725 -0.16159,-0.11984c-0.0519,-0.04259 -0.10159,-0.08763 -0.14906,-0.13511c-0.04747,-0.04747 -0.09251,-0.09716 -0.1351,-0.14906c-0.04259,-0.0519 -0.08254,-0.10576 -0.11984,-0.16159c-0.0373,-0.05582 -0.07178,-0.11334 -0.10343,-0.17255c-0.03165,-0.05921 -0.06032,-0.11984 -0.08601,-0.18187c-0.02569,-0.06203 -0.04829,-0.12516 -0.06778,-0.18941c-0.01949,-0.06425 -0.03578,-0.1293 -0.04888,-0.19515c-0.0131,-0.06585 -0.02294,-0.13219 -0.02952,-0.199c-0.00658,-0.06682 -0.00987,-0.1338 -0.00987,-0.20094c0,-0.06714 0.00329,-0.13412 0.00987,-0.20093c0.00658,-0.06682 0.01642,-0.13315 0.02952,-0.199c0.0131,-0.06585 0.02939,-0.1309 0.04888,-0.19515c0.01949,-0.06425 0.04209,-0.12739 0.06778,-0.18942c0.02569,-0.06203 0.05436,-0.12265 0.08601,-0.18186c0.03165,-0.05921 0.06613,-0.11673 0.10343,-0.17256c0.0373,-0.05582 0.07725,-0.10968 0.11984,-0.16158c0.04259,-0.0519 0.08763,-0.10159 0.1351,-0.14907c0.04747,-0.04747 0.09716,-0.09251 0.14906,-0.1351c0.0519,-0.04259 0.10576,-0.08254 0.16159,-0.11984c0.05583,-0.0373 0.11335,-0.07177 0.17256,-0.10342c0.05921,-0.03165 0.11983,-0.06033 0.18186,-0.08602c0.06203,-0.02569 0.12517,-0.04828 0.18942,-0.06777c0.06425,-0.01949 0.1293,-0.03579 0.19515,-0.04889c0.06585,-0.01309 0.13218,-0.02293 0.199,-0.02951c0.06682,-0.00659 0.1338,-0.00988 0.20094,-0.00988h41c0.06713,0 0.1341,0.00329 0.2009,0.00988c0.06687,0.00658 0.1332,0.01642 0.199,0.02951c0.06587,0.0131 0.13093,0.0294 0.1952,0.04889c0.06427,0.01949 0.1274,0.04208 0.1894,0.06777c0.062,0.02569 0.12263,0.05437 0.1819,0.08602c0.0592,0.03165 0.1167,0.06612 0.1725,0.10342c0.05587,0.0373 0.10973,0.07725 0.1616,0.11984c0.05193,0.04259 0.10163,0.08763 0.1491,0.1351c0.04747,0.04748 0.0925,0.09717 0.1351,0.14907c0.0426,0.0519 0.08253,0.10576 0.1198,0.16158c0.03733,0.05583 0.0718,0.11335 0.1034,0.17256c0.03167,0.05921 0.06033,0.11983 0.086,0.18186c0.02573,0.06203 0.04833,0.12517 0.0678,0.18942c0.01953,0.06425 0.03583,0.1293 0.0489,0.19515c0.01313,0.06585 0.02297,0.13218 0.0295,0.199c0.0066,0.06681 0.0099,0.13379 0.0099,0.20093c0,0.06714 -0.0033,0.13412 -0.0099,0.20094c-0.00653,0.06681 -0.01637,0.13315 -0.0295,0.199c-0.01307,0.06585 -0.02937,0.1309 -0.0489,0.19515c-0.01947,0.06425 -0.04207,0.12738 -0.0678,0.18941c-0.02567,0.06203 -0.05433,0.12266 -0.086,0.18187c-0.0316,0.05921 -0.06607,0.11673 -0.1034,0.17255c-0.03727,0.05583 -0.0772,0.10969 -0.1198,0.16159c-0.0426,0.0519 -0.08763,0.10159 -0.1351,0.14906c-0.04747,0.04748 -0.09717,0.09252 -0.1491,0.13511c-0.05187,0.04259 -0.10573,0.08254 -0.1616,0.11984c-0.0558,0.0373 -0.1133,0.07177 -0.1725,0.10342c-0.05927,0.03165 -0.1199,0.06033 -0.1819,0.08602c-0.062,0.02569 -0.12513,0.04828 -0.1894,0.06777c-0.06427,0.01949 -0.12933,0.03579 -0.1952,0.04888c-0.0658,0.0131 -0.13213,0.02294 -0.199,0.02952c-0.0668,0.00658 -0.13377,0.00987 -0.2009,0.00987z"></path><path  id="路径 5" style="fill:#FFFFFF; opacity:1;" d="M28.6982,6.14999v-2.05h-16.3999v2.05l1.7978,0.98512l3.37,-6.14998l-1.7978,-0.98512v2.05h9.7299v-2.05l-1.8063,0.96927l3.2999,6.14999zM30.5046,5.18071c0.1624,0.30269 0.2436,0.62578 0.2436,0.96928c0,0.06714 -0.0033,0.13412 -0.0099,0.20093c-0.0066,0.06682 -0.01643,0.13315 -0.0295,0.199c-0.01313,0.06585 -0.02943,0.1309 -0.0489,0.19515c-0.01947,0.06425 -0.04207,0.12739 -0.0678,0.18942c-0.02567,0.06203 -0.05433,0.12265 -0.086,0.18186c-0.03167,0.05921 -0.06613,0.11673 -0.1034,0.17256c-0.03733,0.05582 -0.0773,0.10968 -0.1199,0.16158c-0.04253,0.0519 -0.08757,0.10159 -0.1351,0.14906c-0.04747,0.04748 -0.09713,0.09252 -0.149,0.13511c-0.05193,0.04259 -0.1058,0.08254 -0.1616,0.11984c-0.0558,0.0373 -0.11333,0.07177 -0.1726,0.10342c-0.0592,0.03165 -0.1198,0.06033 -0.1818,0.08602c-0.06207,0.02569 -0.1252,0.04828 -0.1894,0.06777c-0.06427,0.01949 -0.12933,0.03579 -0.1952,0.04888c-0.06587,0.0131 -0.1322,0.02294 -0.199,0.02952c-0.0668,0.00658 -0.13377,0.00987 -0.2009,0.00987h-16.3999c-0.17213,0 -0.3416,-0.02135 -0.5084,-0.06405c-0.1668,-0.0427 -0.3257,-0.10542 -0.4767,-0.18816c-0.05887,-0.03227 -0.116,-0.06734 -0.1714,-0.10522c-0.05547,-0.03788 -0.10893,-0.07838 -0.1604,-0.12151c-0.05147,-0.04313 -0.10067,-0.08868 -0.1476,-0.13665c-0.047,-0.04797 -0.09153,-0.09812 -0.1336,-0.15046c-0.042,-0.05234 -0.08137,-0.10662 -0.1181,-0.16283c-0.03673,-0.05621 -0.0706,-0.11408 -0.1016,-0.17362c-0.03107,-0.05954 -0.05913,-0.12046 -0.0842,-0.18275c-0.025,-0.06229 -0.04693,-0.12566 -0.0658,-0.19011c-0.0188,-0.06445 -0.0344,-0.12966 -0.0468,-0.19564c-0.0124,-0.06599 -0.02157,-0.13242 -0.0275,-0.1993c-0.00587,-0.06688 -0.00843,-0.13389 -0.0077,-0.20103c0.00067,-0.06713 0.00463,-0.13407 0.0119,-0.20082c0.00727,-0.06674 0.0178,-0.13297 0.0316,-0.19868c0.0138,-0.06571 0.03077,-0.13058 0.0509,-0.19463c0.0202,-0.06404 0.04347,-0.12694 0.0698,-0.1887c0.02633,-0.06176 0.05563,-0.12208 0.0879,-0.18096l3.3699,-6.14998c0.044,-0.08024 0.09313,-0.15718 0.1474,-0.23083c0.05427,-0.07366 0.1132,-0.14337 0.1768,-0.20914c0.0636,-0.06577 0.1313,-0.127 0.2031,-0.18371c0.0718,-0.0567 0.14707,-0.10836 0.2258,-0.15499c0.07867,-0.04663 0.16013,-0.0878 0.2444,-0.12352c0.0842,-0.03571 0.17043,-0.06566 0.2587,-0.08983c0.08827,-0.02417 0.17773,-0.04236 0.2684,-0.05455c0.09067,-0.0122 0.18173,-0.0183 0.2732,-0.0183h9.7299c0.09227,0 0.1841,0.0062 0.2755,0.0186c0.0914,0.01239 0.18157,0.03087 0.2705,0.05544c0.08893,0.02457 0.1758,0.055 0.2606,0.09129c0.0848,0.03629 0.16677,0.07812 0.2459,0.12548c0.07913,0.04736 0.15477,0.09982 0.2269,0.15739c0.07207,0.05757 0.13993,0.11972 0.2036,0.18645c0.06367,0.06673 0.12257,0.13744 0.1767,0.21212c0.0542,0.07469 0.1031,0.15267 0.1467,0.23396z"></path></g></svg>