<svg xmlns="http://www.w3.org/2000/svg" xmlns:xlink="http://www.w3.org/1999/xlink" width="54" height="54.003662109375" viewBox="0 0 54 54.003662109375" fill="none"><g opacity="1"  transform="translate(9.5367431640625e-7 0.00006103515625)  rotate(0)"><g opacity="1"  transform="translate(0 0)  rotate(0)"><g opacity="1"  transform="translate(0 0)  rotate(0)"><path id="星形 1" fill-rule="evenodd" style="fill:#EAC645" opacity="1" d="M30.2513 5.77293C29.1913 2.66293 24.8013 2.66293 23.7513 5.77293L20.3213 15.8329C19.8613 17.1829 18.6213 18.1029 17.1913 18.1629L6.74127 18.5129C3.58127 18.6329 2.25128 22.6029 4.69127 24.6129L13.2313 31.6229C14.2813 32.4829 14.7313 33.8829 14.3713 35.2029L11.4213 45.9629C10.5713 49.0829 14.0913 51.5529 16.7213 49.6729L25.0113 43.7329C26.2013 42.8729 27.8013 42.8729 28.9913 43.7329L37.2713 49.6729C39.9112 51.5529 43.4312 49.0829 42.5812 45.9629L39.6312 35.2029C39.2712 33.8829 39.7112 32.4829 40.7712 31.6229L49.3112 24.6129C51.7512 22.6029 50.4212 18.6329 47.2512 18.5129L36.8113 18.1629C35.3813 18.1029 34.1313 17.1829 33.6813 15.8329L30.2513 5.77293Z"></path><path id="星形 1 (轮廓)" fill-rule="evenodd" style="fill:#000000" opacity="1" d="M36.92,14.72l10.46,0.35c0.75,0.03 1.47,0.17 2.16,0.43c0.67,0.24 1.28,0.59 1.84,1.03c0.53,0.42 0.99,0.91 1.38,1.47c0.37,0.54 0.66,1.13 0.87,1.75c0.21,0.63 0.33,1.27 0.36,1.93c0.03,0.68 -0.04,1.35 -0.2,2.01c-0.18,0.69 -0.46,1.33 -0.84,1.94c-0.4,0.62 -0.88,1.17 -1.47,1.65l-8.54,7.01v0l2.95,10.76c0.2,0.74 0.28,1.49 0.24,2.23c-0.04,0.73 -0.19,1.43 -0.46,2.1c-0.25,0.64 -0.59,1.24 -1.02,1.78c-0.42,0.52 -0.9,0.97 -1.45,1.35c-0.55,0.39 -1.14,0.69 -1.77,0.9c-0.66,0.22 -1.33,0.34 -2.02,0.35c-0.72,0.02 -1.43,-0.08 -2.12,-0.29c-0.71,-0.22 -1.38,-0.55 -2.01,-1l-8.28,-5.94l-8.29,5.94c-0.62,0.45 -1.29,0.78 -2,1c-0.69,0.21 -1.4,0.31 -2.12,0.29c-0.69,-0.01 -1.36,-0.13 -2.02,-0.35c-0.63,-0.21 -1.22,-0.51 -1.77,-0.9c-0.55,-0.38 -1.02999,-0.83 -1.44999,-1.35c-0.43,-0.54 -0.77,-1.14 -1.02,-1.78c-0.27,-0.67 -0.42,-1.37 -0.46,-2.1c-0.04,-0.74 0.04,-1.49 0.24,-2.23l2.94999,-10.76v0l-8.55,-7.02c-0.58,-0.47 -1.06,-1.02 -1.46,-1.64c-0.38,-0.61 -0.66,-1.25 -0.84,-1.94c-0.16,-0.66 -0.23,-1.33 -0.2,-2.01c0.03,-0.66 0.15,-1.3 0.36,-1.93c0.21,-0.62 0.5,-1.21 0.87,-1.75c0.39,-0.56 0.85,-1.05 1.38,-1.47c0.56,-0.44 1.17,-0.79 1.84,-1.03c0.69,-0.26 1.41,-0.4 2.17001,-0.43l10.42999,-0.35c0.01,0 0.01,0 0.02,0v-0.01l3.42,-10.04c0.25,-0.74 0.61,-1.41 1.07,-2.01c0.44,-0.58 0.97,-1.08 1.58,-1.49c0.57,-0.39 1.2,-0.68 1.87,-0.88c0.64,-0.19 1.3,-0.29 1.98,-0.29c0.68,0 1.34,0.1 1.98,0.29c0.67,0.2 1.3,0.49 1.87,0.88c0.61,0.41 1.14,0.91 1.58,1.49c0.46,0.6 0.82,1.27 1.06,2l3.43,10.05zM27,6.89v0v-0.01l-3.43,10.06c-0.22,0.67 -0.55,1.29 -0.96,1.86c-0.41,0.55 -0.89,1.04 -1.45,1.45c-0.55,0.41 -1.15,0.73 -1.8,0.96c-0.66,0.23 -1.34,0.36 -2.04,0.39l-10.44999,0.35l8.52999,7.01c0.52,0.42 0.97,0.92 1.35,1.47c0.36,0.55 0.65,1.14 0.85,1.77c0.2,0.63 0.31,1.27 0.32,1.93c0.02,0.68 -0.06,1.34 -0.24,1.99l-2.95,10.75v0l8.28,-5.94c0.59,-0.43 1.23,-0.75 1.92,-0.96c0.67,-0.22 1.36,-0.33 2.07,-0.33c0.71,0 1.4,0.11 2.07,0.33c0.69,0.21 1.33,0.53 1.92,0.96l8.28,5.94l-2.95,-10.76c-0.18,-0.64 -0.26,-1.3 -0.24,-1.98c0.01,-0.66 0.12,-1.3 0.32,-1.93c0.2,-0.63 0.49,-1.22 0.85,-1.77c0.38,-0.55 0.83,-1.05 1.35,-1.47l8.54,-7.01h-0.01l-10.44,-0.35c-0.71,-0.03 -1.39,-0.16 -2.05,-0.39c-0.65,-0.23 -1.25,-0.55 -1.8,-0.96c-0.56,-0.41 -1.04,-0.9 -1.45,-1.45c-0.41,-0.57 -0.73,-1.19 -0.96,-1.86v-0.01z"></path></g><path id="圆形 1" fill-rule="evenodd" style="fill:#000000" opacity="1" d="M42.4398 31.5836C36.2698 31.5836 31.2598 36.6036 31.2598 42.7936C31.2598 48.9836 36.2698 54.0036 42.4398 54.0036C48.6098 54.0036 53.6198 48.9836 53.6198 42.7936C53.6198 36.6036 48.6098 31.5836 42.4398 31.5836Z"></path><g opacity="1"  transform="translate(37.6483154296875 38.78887939453125)  rotate(0)"><path  id="直线 1" style="fill:#FFFFFF; opacity:1;" d="M9.69307,3.68422c0.03667,0.00361 0.07306,0.009 0.10919,0.01619c0.03613,0.00719 0.07183,0.01614 0.10708,0.02683c0.03525,0.01069 0.06991,0.02309 0.10396,0.03719c0.034,0.01409 0.06727,0.02982 0.0998,0.04719c0.03247,0.01737 0.064,0.03628 0.0946,0.05675c0.03067,0.02047 0.06023,0.04239 0.0887,0.06576c0.02847,0.02337 0.05573,0.04808 0.0818,0.07413c0.02607,0.02605 0.05077,0.05332 0.0741,0.08179c0.0234,0.02848 0.04533,0.05804 0.0658,0.08867c0.02047,0.03063 0.03937,0.06219 0.0567,0.09468c0.0174,0.03249 0.03313,0.06575 0.0472,0.09979c0.01413,0.03403 0.02653,0.06868 0.0372,0.10393c0.01073,0.03525 0.01967,0.07095 0.0268,0.10708c0.0072,0.03613 0.0126,0.07253 0.0162,0.1092c0.00367,0.03666 0.0055,0.07341 0.0055,0.11025c0,0.03684 -0.00183,0.07359 -0.0055,0.11025c-0.0036,0.03667 -0.009,0.07307 -0.0162,0.1092c-0.00713,0.03613 -0.01607,0.07182 -0.0268,0.10708c-0.01067,0.03525 -0.02307,0.0699 -0.0372,0.10393c-0.01407,0.03403 -0.0298,0.0673 -0.0472,0.09979c-0.01733,0.03249 -0.03623,0.06405 -0.0567,0.09468c-0.02047,0.03063 -0.0424,0.06019 -0.0658,0.08867c-0.02333,0.02847 -0.04803,0.05574 -0.0741,0.08179c-0.02607,0.02605 -0.05333,0.05076 -0.0818,0.07413c-0.02847,0.02337 -0.05803,0.04529 -0.0887,0.06576c-0.0306,0.02047 -0.06213,0.03938 -0.0946,0.05675c-0.03253,0.01737 -0.0658,0.0331 -0.0998,0.04719c-0.03405,0.0141 -0.06871,0.0265 -0.10396,0.03719c-0.03525,0.01069 -0.07095,0.01963 -0.10708,0.02682c-0.03613,0.00719 -0.07252,0.01259 -0.10919,0.0162c-0.03666,0.00361 -0.07341,0.00542 -0.11025,0.00542h-9.58294c-0.03684,0 -0.07359,-0.00181 -0.11025,-0.00542c-0.03666,-0.00361 -0.07306,-0.00901 -0.10919,-0.0162c-0.03613,-0.00719 -0.07183,-0.01613 -0.10708,-0.02682c-0.03525,-0.01069 -0.0699,-0.02309 -0.10393,-0.03719c-0.03404,-0.01409 -0.0673,-0.02982 -0.09979,-0.04719c-0.03249,-0.01737 -0.06405,-0.03628 -0.09468,-0.05675c-0.03063,-0.02047 -0.06019,-0.04239 -0.08866,-0.06576c-0.02848,-0.02337 -0.05574,-0.04808 -0.08179,-0.07413c-0.02605,-0.02605 -0.05076,-0.05332 -0.07413,-0.08179c-0.02337,-0.02848 -0.04529,-0.05804 -0.06576,-0.08867c-0.02047,-0.03063 -0.03938,-0.06219 -0.05675,-0.09468c-0.01737,-0.03249 -0.0331,-0.06576 -0.0472,-0.09979c-0.01409,-0.03403 -0.02649,-0.06868 -0.03718,-0.10393c-0.0107,-0.03526 -0.01964,-0.07095 -0.02683,-0.10708c-0.00719,-0.03613 -0.01258,-0.07253 -0.01619,-0.1092c-0.00361,-0.03666 -0.00542,-0.07341 -0.00542,-0.11025c0,-0.03684 0.00181,-0.07359 0.00542,-0.11025c0.00361,-0.03667 0.009,-0.07307 0.01619,-0.1092c0.00719,-0.03613 0.01613,-0.07183 0.02683,-0.10708c0.01069,-0.03525 0.02309,-0.0699 0.03718,-0.10393c0.0141,-0.03404 0.02983,-0.0673 0.0472,-0.09979c0.01737,-0.03249 0.03628,-0.06405 0.05675,-0.09468c0.02047,-0.03063 0.04239,-0.06019 0.06576,-0.08867c0.02337,-0.02847 0.04808,-0.05574 0.07413,-0.08179c0.02605,-0.02605 0.05331,-0.05076 0.08179,-0.07413c0.02848,-0.02337 0.05803,-0.04529 0.08866,-0.06576c0.03063,-0.02047 0.06219,-0.03938 0.09468,-0.05675c0.03249,-0.01737 0.06575,-0.0331 0.09979,-0.04719c0.03404,-0.0141 0.06868,-0.0265 0.10394,-0.03719c0.03525,-0.01069 0.07095,-0.01963 0.10708,-0.02682c0.03613,-0.00719 0.07253,-0.01259 0.10919,-0.0162c0.03666,-0.00361 0.07341,-0.00542 0.11025,-0.00542h9.58294c0.03684,0 0.07359,0.00181 0.11025,0.00542z"></path><path  id="直线 1" style="fill:#FFFFFF; opacity:1;" d="M5.91094,9.71719c-0.00361,0.03666 -0.00901,0.07306 -0.0162,0.10919c-0.00719,0.03613 -0.01613,0.07183 -0.02682,0.10708c-0.01069,0.03525 -0.02309,0.0699 -0.03719,0.10394c-0.0141,0.034 -0.02983,0.06727 -0.0472,0.0998c-0.01737,0.03247 -0.03628,0.06403 -0.05675,0.0947c-0.02047,0.0306 -0.04239,0.06013 -0.06576,0.0886c-0.02337,0.02847 -0.04808,0.05573 -0.07413,0.0818c-0.02605,0.02607 -0.05331,0.0508 -0.08179,0.0742c-0.02848,0.02333 -0.05803,0.04523 -0.08866,0.0657c-0.03063,0.02047 -0.0622,0.0394 -0.09469,0.0568c-0.03249,0.01733 -0.06575,0.03307 -0.09979,0.0472c-0.03403,0.01407 -0.06868,0.02643 -0.10393,0.0371c-0.03525,0.01073 -0.07095,0.0197 -0.10708,0.0269c-0.03613,0.00713 -0.07253,0.01253 -0.10919,0.0162c-0.03667,0.0036 -0.07342,0.0054 -0.11026,0.0054c-0.03684,0 -0.07359,-0.0018 -0.11025,-0.0054c-0.03667,-0.00367 -0.07306,-0.00907 -0.10919,-0.0162c-0.03613,-0.0072 -0.07183,-0.01617 -0.10708,-0.0269c-0.03525,-0.01067 -0.0699,-0.02303 -0.10394,-0.0371c-0.03403,-0.01413 -0.0673,-0.02987 -0.09979,-0.0472c-0.03249,-0.0174 -0.06405,-0.03633 -0.09468,-0.0568c-0.03063,-0.02047 -0.06019,-0.04237 -0.08866,-0.0657c-0.02848,-0.0234 -0.05574,-0.04813 -0.08179,-0.0742c-0.02605,-0.02607 -0.05077,-0.05333 -0.07414,-0.0818c-0.02337,-0.02847 -0.04528,-0.058 -0.06575,-0.0886c-0.02047,-0.03067 -0.03938,-0.06223 -0.05675,-0.0947c-0.01737,-0.03253 -0.0331,-0.0658 -0.0472,-0.0998c-0.0141,-0.03404 -0.0265,-0.06869 -0.03719,-0.10394c-0.01069,-0.03525 -0.01963,-0.07095 -0.02682,-0.10708c-0.00719,-0.03613 -0.01259,-0.07253 -0.0162,-0.10919c-0.00361,-0.03667 -0.00541,-0.07342 -0.00541,-0.11026v-9.60693c0,-0.03684 0.0018,-0.07359 0.00541,-0.11025c0.00361,-0.03666 0.00901,-0.07306 0.0162,-0.10919c0.00719,-0.03613 0.01613,-0.07183 0.02682,-0.10708c0.01069,-0.03525 0.02309,-0.0699 0.03719,-0.10393c0.0141,-0.03404 0.02983,-0.0673 0.0472,-0.09979c0.01737,-0.03249 0.03628,-0.06405 0.05675,-0.09468c0.02047,-0.03063 0.04238,-0.06019 0.06575,-0.08866c0.02337,-0.02848 0.04809,-0.05574 0.07414,-0.08179c0.02605,-0.02605 0.05331,-0.05076 0.08179,-0.07413c0.02847,-0.02337 0.05803,-0.04529 0.08866,-0.06576c0.03063,-0.02047 0.06219,-0.03938 0.09468,-0.05675c0.03249,-0.01737 0.06576,-0.0331 0.09979,-0.04719c0.03404,-0.0141 0.06869,-0.0265 0.10394,-0.03719c0.03525,-0.01069 0.07095,-0.01963 0.10708,-0.02682c0.03613,-0.00719 0.07252,-0.01259 0.10919,-0.0162c0.03666,-0.00361 0.07341,-0.00542 0.11025,-0.00542c0.03684,0 0.07359,0.00181 0.11026,0.00542c0.03666,0.00361 0.07306,0.00901 0.10919,0.0162c0.03613,0.00719 0.07183,0.01613 0.10708,0.02682c0.03525,0.01069 0.0699,0.02309 0.10393,0.03719c0.03404,0.01409 0.0673,0.02982 0.09979,0.04719c0.03249,0.01737 0.06406,0.03628 0.09469,0.05675c0.03063,0.02047 0.06018,0.04239 0.08866,0.06576c0.02848,0.02337 0.05574,0.04808 0.08179,0.07413c0.02605,0.02605 0.05076,0.05331 0.07413,0.08179c0.02337,0.02848 0.04529,0.05803 0.06576,0.08866c0.02047,0.03063 0.03938,0.06219 0.05675,0.09468c0.01737,0.03249 0.0331,0.06575 0.0472,0.09979c0.0141,0.03404 0.0265,0.06868 0.03719,0.10394c0.01069,0.03525 0.01963,0.07095 0.02682,0.10708c0.00719,0.03613 0.01259,0.07253 0.0162,0.10919c0.00361,0.03666 0.00541,0.07341 0.00541,0.11025v9.60693c0,0.03684 -0.0018,0.07359 -0.00541,0.11026z"></path></g></g></g></svg>