<svg xmlns="http://www.w3.org/2000/svg" xmlns:xlink="http://www.w3.org/1999/xlink" width="70.85693359375" height="62.81689453125" viewBox="0 0 70.85693359375 62.81689453125" fill="none"><g opacity="1"  transform="translate(7.928466796875 5.90625)  rotate(0)"><g id="undefined" filter="url(#filter_0)"></g><path  id="路径 1" style="fill:#FFFFFF; opacity:1;" d="M0,43.0979h54.9999v3.9065l-3.3957,1.9644l-27.5,-47.00439l3.3958,-1.96441l3.3957,1.96441l-27.49999,47.00439l-3.39571,-1.9644zM0,50.9109c-0.347,0 -0.68802,-0.04493 -1.02305,-0.1348c-0.33503,-0.08987 -0.65252,-0.22157 -0.95245,-0.3951c-0.11122,-0.06433 -0.219,-0.13393 -0.32333,-0.2088c-0.10434,-0.07487 -0.20474,-0.15463 -0.30119,-0.2393c-0.09645,-0.08467 -0.1885,-0.17383 -0.27614,-0.2675c-0.08765,-0.09367 -0.17046,-0.19137 -0.24845,-0.2931c-0.07799,-0.1018 -0.15077,-0.20713 -0.21836,-0.316c-0.06758,-0.10887 -0.12963,-0.22077 -0.18616,-0.3357c-0.05653,-0.11493 -0.10725,-0.23233 -0.15217,-0.3522c-0.04493,-0.11993 -0.08383,-0.24173 -0.11672,-0.3654c-0.03289,-0.12367 -0.05961,-0.24867 -0.08015,-0.375c-0.02054,-0.12627 -0.0348,-0.25327 -0.04279,-0.381c-0.00799,-0.12767 -0.00967,-0.25543 -0.00504,-0.3833c0.00463,-0.12787 0.01556,-0.2552 0.03278,-0.382c0.01721,-0.1268 0.04064,-0.25243 0.07027,-0.3769c0.02963,-0.12453 0.06532,-0.2473 0.10708,-0.3683c0.04176,-0.121 0.08938,-0.2397 0.14287,-0.3561c0.05349,-0.11633 0.11259,-0.2298 0.17729,-0.3404l27.49991,-47.00441c0.1712,-0.29258 0.37717,-0.55854 0.6179,-0.79789c0.24067,-0.23935 0.50813,-0.44413 0.8024,-0.61434c0.1112,-0.06433 0.2253,-0.12309 0.3423,-0.17628c0.117,-0.05319 0.23637,-0.10055 0.3581,-0.14207c0.12167,-0.04153 0.2451,-0.07702 0.3703,-0.10649c0.1252,-0.02947 0.25157,-0.05276 0.3791,-0.06987c0.12753,-0.01712 0.25557,-0.02798 0.3841,-0.03259c0.1286,-0.00461 0.2571,-0.00295 0.3855,0.005c0.12847,0.00795 0.2562,0.02213 0.3832,0.04256c0.127,0.02042 0.2527,0.04698 0.3771,0.07969c0.1244,0.03271 0.24687,0.0714 0.3674,0.11607c0.1206,0.04467 0.2387,0.0951 0.3543,0.15131c0.11553,0.05621 0.22807,0.11792 0.3376,0.18512c0.10947,0.0672 0.21537,0.13958 0.3177,0.21713c0.10233,0.07755 0.2006,0.1599 0.2948,0.24705c0.0942,0.08715 0.18387,0.17869 0.269,0.2746c0.0852,0.09591 0.16543,0.19574 0.2407,0.29949c0.07527,0.10375 0.14527,0.21092 0.21,0.32151l27.4999,47.00441c0.17453,0.29827 0.30697,0.61397 0.3973,0.9471c0.0904,0.33313 0.1356,0.67223 0.1356,1.0173c0,0.12793 -0.00633,0.25557 -0.019,0.3829c-0.0126,0.12733 -0.03143,0.25373 -0.0565,0.3792c-0.02513,0.12547 -0.05637,0.24943 -0.0937,0.3719c-0.03733,0.1224 -0.08063,0.2427 -0.1299,0.3609c-0.0492,0.1182 -0.10413,0.23373 -0.1648,0.3466c-0.06067,0.11287 -0.12673,0.22247 -0.1982,0.3288c-0.07153,0.1064 -0.1481,0.20903 -0.2297,0.3079c-0.0816,0.09893 -0.1679,0.19363 -0.2589,0.2841c-0.091,0.09047 -0.1862,0.17627 -0.2856,0.2574c-0.09947,0.0812 -0.2027,0.15733 -0.3097,0.2284c-0.107,0.07107 -0.21723,0.13677 -0.3307,0.1971c-0.11347,0.06033 -0.22963,0.11497 -0.3485,0.1639c-0.11887,0.049 -0.23987,0.09207 -0.363,0.1292c-0.12313,0.03713 -0.2478,0.06817 -0.374,0.0931c-0.1262,0.025 -0.2533,0.04377 -0.3813,0.0563c-0.12807,0.01253 -0.25643,0.0188 -0.3851,0.0188h-54.9999z"></path><path  id="路径 2" style="fill:#FF4D4D; opacity:1;" d="M24.9224,36.2915v-1.09c0,-0.0844 0.00413,-0.16863 0.0124,-0.2527c0.00827,-0.084 0.02063,-0.16743 0.0371,-0.2503c0.01647,-0.0828 0.03697,-0.1646 0.0615,-0.2454c0.02447,-0.0808 0.05287,-0.1602 0.0852,-0.2382c0.03233,-0.078 0.0684,-0.15423 0.1082,-0.2287c0.0398,-0.07447 0.08317,-0.1468 0.1301,-0.217c0.04687,-0.0702 0.0971,-0.13793 0.1507,-0.2032c0.05353,-0.06527 0.11017,-0.12777 0.1699,-0.1875c0.05967,-0.05973 0.12213,-0.11637 0.1874,-0.1699c0.06527,-0.0536 0.13303,-0.10383 0.2033,-0.1507c0.0702,-0.04693 0.14253,-0.0903 0.217,-0.1301c0.07447,-0.0398 0.1507,-0.07587 0.2287,-0.1082c0.078,-0.03227 0.1574,-0.06067 0.2382,-0.0852c0.0808,-0.02453 0.1626,-0.04503 0.2454,-0.0615c0.0828,-0.01647 0.16623,-0.02883 0.2503,-0.0371c0.084,-0.00827 0.16823,-0.0124 0.2527,-0.0124c0.0844,0 0.16863,0.00413 0.2527,0.0124c0.084,0.00827 0.16743,0.02063 0.2503,0.0371c0.0828,0.01647 0.1646,0.03697 0.2454,0.0615c0.0808,0.02453 0.1602,0.05293 0.2382,0.0852c0.078,0.03233 0.15423,0.0684 0.2287,0.1082c0.07447,0.0398 0.1468,0.08317 0.217,0.1301c0.0702,0.04687 0.13793,0.0971 0.2032,0.1507c0.06527,0.05353 0.12777,0.11017 0.1875,0.1699c0.05973,0.05967 0.11637,0.12217 0.1699,0.1875c0.0536,0.06527 0.10383,0.133 0.1507,0.2032c0.04693,0.0702 0.0903,0.14253 0.1301,0.217c0.0398,0.07447 0.07587,0.1507 0.1082,0.2287c0.03227,0.078 0.06067,0.1574 0.0852,0.2382c0.02453,0.0808 0.04503,0.1626 0.0615,0.2454c0.01647,0.08287 0.02883,0.1663 0.0371,0.2503c0.00827,0.08407 0.0124,0.1683 0.0124,0.2527v1.09c0,0.08447 -0.00413,0.1687 -0.0124,0.2527c-0.00827,0.084 -0.02063,0.16743 -0.0371,0.2503c-0.01647,0.0828 -0.03697,0.1646 -0.0615,0.2454c-0.02453,0.0808 -0.05293,0.1602 -0.0852,0.2382c-0.03233,0.078 -0.0684,0.15423 -0.1082,0.2287c-0.0398,0.07447 -0.08317,0.1468 -0.1301,0.217c-0.04687,0.0702 -0.0971,0.13793 -0.1507,0.2032c-0.05353,0.06533 -0.11017,0.12783 -0.1699,0.1875c-0.05973,0.05973 -0.12223,0.11637 -0.1875,0.1699c-0.06527,0.0536 -0.133,0.10383 -0.2032,0.1507c-0.0702,0.04693 -0.14253,0.0903 -0.217,0.1301c-0.07447,0.0398 -0.1507,0.07587 -0.2287,0.1082c-0.078,0.03233 -0.1574,0.06073 -0.2382,0.0852c-0.0808,0.02453 -0.1626,0.04503 -0.2454,0.0615c-0.08287,0.01647 -0.1663,0.02883 -0.2503,0.0371c-0.08407,0.00827 -0.1683,0.0124 -0.2527,0.0124c-0.08447,0 -0.1687,-0.00413 -0.2527,-0.0124c-0.08407,-0.00827 -0.1675,-0.02063 -0.2503,-0.0371c-0.0828,-0.01647 -0.1646,-0.03697 -0.2454,-0.0615c-0.0808,-0.02447 -0.1602,-0.05287 -0.2382,-0.0852c-0.078,-0.03233 -0.15423,-0.0684 -0.2287,-0.1082c-0.07447,-0.0398 -0.1468,-0.08317 -0.217,-0.1301c-0.07027,-0.04687 -0.13803,-0.0971 -0.2033,-0.1507c-0.06527,-0.05353 -0.12773,-0.11017 -0.1874,-0.1699c-0.05973,-0.05967 -0.11637,-0.12217 -0.1699,-0.1875c-0.0536,-0.06527 -0.10383,-0.133 -0.1507,-0.2032c-0.04693,-0.0702 -0.0903,-0.14253 -0.1301,-0.217c-0.0398,-0.07447 -0.07587,-0.1507 -0.1082,-0.2287c-0.03233,-0.078 -0.06073,-0.1574 -0.0852,-0.2382c-0.02453,-0.0808 -0.04503,-0.1626 -0.0615,-0.2454c-0.01647,-0.08287 -0.02883,-0.1663 -0.0371,-0.2503c-0.00827,-0.084 -0.0124,-0.16823 -0.0124,-0.2527z"></path><path  id="路径 3" style="fill:#FF9191; opacity:1;" d="M30.0914,17.7977l0.0091,10.8757c0.00007,0.0844 -0.00403,0.16857 -0.0123,0.2525c-0.00827,0.084 -0.02063,0.1674 -0.0371,0.2502c-0.01647,0.08273 -0.037,0.1645 -0.0616,0.2453c-0.02453,0.08073 -0.053,0.1601 -0.0854,0.2381c-0.0324,0.078 -0.06857,0.1542 -0.1085,0.2286c-0.04,0.07447 -0.08353,0.1468 -0.1306,0.217c-0.04707,0.0702 -0.0975,0.13793 -0.1513,0.2032c-0.05373,0.06527 -0.1106,0.12777 -0.1706,0.1875c-0.05993,0.05973 -0.12267,0.11637 -0.1882,0.1699c-0.0656,0.0536 -0.13363,0.10387 -0.2041,0.1508c-0.07053,0.04693 -0.1432,0.09033 -0.218,0.1302c-0.0748,0.0398 -0.1514,0.0759 -0.2298,0.1083c-0.07833,0.03233 -0.1581,0.0608 -0.2393,0.0854c-0.0812,0.02453 -0.1634,0.04507 -0.2466,0.0616c-0.0832,0.01653 -0.16703,0.02897 -0.2515,0.0373c-0.0844,0.00833 -0.16903,0.01253 -0.2539,0.0126c-0.08487,0.00007 -0.16953,-0.004 -0.254,-0.0122c-0.08447,-0.0082 -0.1683,-0.0205 -0.2515,-0.0369c-0.08327,-0.0164 -0.1655,-0.0368 -0.2467,-0.0612c-0.08127,-0.02447 -0.1611,-0.0528 -0.2395,-0.085c-0.0784,-0.0322 -0.15503,-0.06817 -0.2299,-0.1079c-0.07493,-0.03973 -0.14767,-0.083 -0.2182,-0.1298c-0.0706,-0.0468 -0.13873,-0.09697 -0.2044,-0.1505c-0.06567,-0.05347 -0.1285,-0.11 -0.1885,-0.1696c-0.06007,-0.0596 -0.11703,-0.122 -0.1709,-0.1872c-0.05393,-0.0652 -0.1045,-0.13283 -0.1517,-0.2029c-0.0472,-0.07013 -0.09083,-0.1424 -0.1309,-0.2168c-0.04007,-0.0744 -0.07637,-0.15057 -0.1089,-0.2285c-0.03253,-0.07793 -0.06113,-0.15727 -0.0858,-0.238c-0.02473,-0.08067 -0.0454,-0.1624 -0.062,-0.2452c-0.0166,-0.08273 -0.0291,-0.16607 -0.0375,-0.25c-0.0084,-0.084 -0.01263,-0.1682 -0.0127,-0.2526l-0.0091,-10.8757c-0.00007,-0.08433 0.00403,-0.1685 0.0123,-0.2525c0.00827,-0.084 0.02063,-0.16737 0.0371,-0.2501c0.01647,-0.0828 0.037,-0.16457 0.0616,-0.2453c0.02453,-0.0808 0.053,-0.1602 0.0854,-0.2382c0.03247,-0.07793 0.06867,-0.15413 0.1086,-0.2286c0.03993,-0.07447 0.08343,-0.1468 0.1305,-0.217c0.04707,-0.0702 0.0975,-0.13793 0.1513,-0.2032c0.0538,-0.06527 0.11067,-0.12777 0.1706,-0.1875c0.05993,-0.05973 0.1227,-0.11637 0.1883,-0.1699c0.06553,-0.0536 0.13353,-0.10387 0.204,-0.1508c0.07053,-0.04693 0.1432,-0.09033 0.218,-0.1302c0.0748,-0.0398 0.1514,-0.0759 0.2298,-0.1083c0.07833,-0.03233 0.1581,-0.06077 0.2393,-0.0853c0.0812,-0.0246 0.1634,-0.04517 0.2466,-0.0617c0.0832,-0.01653 0.16703,-0.02897 0.2515,-0.0373c0.08447,-0.00833 0.1691,-0.01253 0.2539,-0.0126c0.08487,-0.00007 0.16953,0.004 0.254,0.0122c0.08447,0.0082 0.16833,0.0205 0.2516,0.0369c0.0832,0.0164 0.16543,0.0368 0.2467,0.0612c0.0812,0.02447 0.161,0.0528 0.2394,0.085c0.07847,0.0322 0.15513,0.06817 0.23,0.1079c0.07487,0.03973 0.1476,0.083 0.2182,0.1298c0.0706,0.04687 0.1387,0.09703 0.2043,0.1505c0.06567,0.05347 0.12853,0.11 0.1886,0.1696c0.06,0.0596 0.11697,0.122 0.1709,0.1872c0.05387,0.0652 0.1044,0.13287 0.1516,0.203c0.0472,0.07007 0.09083,0.1423 0.1309,0.2167c0.04007,0.0744 0.07637,0.15057 0.1089,0.2285c0.03253,0.07793 0.06117,0.15727 0.0859,0.238c0.02467,0.08073 0.0453,0.16247 0.0619,0.2452c0.01667,0.08273 0.0292,0.1661 0.0376,0.2501c0.00833,0.08393 0.01253,0.1681 0.0126,0.2525z"></path></g><defs><filter id="filter_0" x="744" y="675" width="63" height="59" filterUnits="userSpaceOnUse" color-interpolation-filters="sRGB"><feFlood flood-opacity="0" result="feFloodId"/>
          <feColorMatrix in="SourceAlpha" type="matrix" values="0 0 0 0 0 0 0 0 0 0 0 0 0 0 0 0 0 0 127 0" result="hardAlpha"/>
          
          <feOffset dx="0" dy="2"/>
          <feComposite in2="hardAlpha" operator="out"/>
          <feGaussianBlur stdDeviation="2"/>
          <feColorMatrix type="matrix" values="0 0 0 0 0 0 0 0 0 0 0 0 0 0 0 0 0 0 0.25 0"/>
          <feBlend mode="normal" in2="filter_feFlood" result="filter_feFlood_1"/>
          <feBlend mode="normal" in="SourceGraphic" in2="filter_0" result="shape"/></filter></defs></svg>