<svg xmlns="http://www.w3.org/2000/svg" xmlns:xlink="http://www.w3.org/1999/xlink" width="49.181396484375" height="56.4677734375" viewBox="0 0 49.181396484375 56.4677734375" fill="none"><g opacity="1"  transform="translate(2.588134765625 2.56689453125)  rotate(0)"><path  id="路径 1" style="fill:#FFFFFF; opacity:1;" d="M5.18913,7.44862c0.00831,-0.08366 0.02073,-0.16671 0.03726,-0.24916c0.01654,-0.08245 0.03711,-0.16389 0.06172,-0.24434c0.02461,-0.08044 0.05313,-0.15949 0.08557,-0.23716c0.03244,-0.07766 0.06864,-0.15356 0.1086,-0.2277c0.03996,-0.07413 0.08349,-0.14615 0.13058,-0.21604c0.04709,-0.0699 0.09753,-0.13734 0.1513,-0.20232c0.05378,-0.06498 0.11064,-0.12719 0.17058,-0.18663c0.05994,-0.05944 0.12267,-0.11583 0.1882,-0.16916c0.06553,-0.05333 0.13353,-0.10334 0.20401,-0.15004c0.07048,-0.04671 0.1431,-0.08987 0.21786,-0.1295c0.07476,-0.03963 0.1513,-0.07552 0.22961,-0.10769c0.07831,-0.03217 0.15803,-0.06045 0.23915,-0.08486c0.08111,-0.0244 0.16324,-0.0448 0.24638,-0.0612c0.08314,-0.0164 0.16689,-0.02872 0.25125,-0.03696c0.08436,-0.00824 0.16892,-0.01236 0.25369,-0.01236h36.24001c0.0848,0 0.16937,0.00412 0.2537,0.01236c0.0844,0.00824 0.16817,0.02056 0.2513,0.03696c0.08313,0.0164 0.16527,0.0368 0.2464,0.0612c0.08107,0.02441 0.16077,0.05269 0.2391,0.08486c0.07833,0.03217 0.15487,0.06806 0.2296,0.10769c0.0748,0.03963 0.14743,0.08279 0.2179,0.1295c0.07047,0.0467 0.13847,0.09671 0.204,0.15004c0.06553,0.05333 0.12827,0.10972 0.1882,0.16916c0.05993,0.05944 0.1168,0.12165 0.1706,0.18663c0.05373,0.06498 0.10417,0.13242 0.1513,0.20232c0.04707,0.06989 0.0906,0.14191 0.1306,0.21604c0.03993,0.07414 0.07613,0.15004 0.1086,0.2277c0.0324,0.07767 0.0609,0.15672 0.0855,0.23716c0.0246,0.08045 0.04517,0.16189 0.0617,0.24434c0.0166,0.08245 0.02903,0.1655 0.0373,0.24916c0.00833,0.08365 0.0125,0.16751 0.0125,0.25158v43.634c0,0.08407 -0.00417,0.1679 -0.0125,0.2515c-0.00827,0.08367 -0.0207,0.16673 -0.0373,0.2492c-0.01653,0.08247 -0.0371,0.1639 -0.0617,0.2443c-0.0246,0.08047 -0.0531,0.15953 -0.0855,0.2372c-0.03247,0.07767 -0.06867,0.15357 -0.1086,0.2277c-0.04,0.07413 -0.08353,0.14613 -0.1306,0.216c-0.04713,0.06993 -0.09757,0.13737 -0.1513,0.2023c-0.0538,0.065 -0.11067,0.12723 -0.1706,0.1867c-0.05993,0.0594 -0.12267,0.11577 -0.1882,0.1691c-0.06553,0.05333 -0.13353,0.10337 -0.204,0.1501c-0.07047,0.04667 -0.1431,0.08983 -0.2179,0.1295c-0.07473,0.0396 -0.15127,0.0755 -0.2296,0.1077c-0.07833,0.03213 -0.15803,0.0604 -0.2391,0.0848c-0.08113,0.0244 -0.16327,0.0448 -0.2464,0.0612c-0.08313,0.0164 -0.1669,0.02873 -0.2513,0.037c-0.08433,0.00827 -0.1689,0.0124 -0.2537,0.0124h-36.24001c-0.08477,0 -0.16933,-0.00413 -0.25369,-0.0124c-0.08436,-0.00827 -0.16811,-0.0206 -0.25125,-0.037c-0.08313,-0.0164 -0.16526,-0.0368 -0.24638,-0.0612c-0.08112,-0.0244 -0.16084,-0.05267 -0.23915,-0.0848c-0.07831,-0.0322 -0.15485,-0.0681 -0.22961,-0.1077c-0.07476,-0.03967 -0.14738,-0.08283 -0.21786,-0.1295c-0.07048,-0.04673 -0.13848,-0.09677 -0.20401,-0.1501c-0.06553,-0.05333 -0.12826,-0.1097 -0.1882,-0.1691c-0.05994,-0.05947 -0.1168,-0.1217 -0.17058,-0.1867c-0.05377,-0.06493 -0.10421,-0.13237 -0.1513,-0.2023c-0.04709,-0.06987 -0.09062,-0.14187 -0.13058,-0.216c-0.03996,-0.07413 -0.07616,-0.15003 -0.1086,-0.2277c-0.03244,-0.07767 -0.06096,-0.15673 -0.08557,-0.2372c-0.02461,-0.0804 -0.04518,-0.16183 -0.06172,-0.2443c-0.01653,-0.08247 -0.02895,-0.16553 -0.03726,-0.2492c-0.00831,-0.0836 -0.01247,-0.16743 -0.01247,-0.2515v-43.634c0,-0.08407 0.00416,-0.16793 0.01247,-0.25158zM10.3531,48.7675h31.0636v-38.5006h-31.0636z"></path><path  id="路径 2" style="fill:#FFFFFF; opacity:1;" d="M33.6518,7.69544v-7.69544h2.5883v2.56669h-34.9501c-0.71699,0 1.29823,-1.99845 1.29823,-1.28742v42.35473h-2.58823v-2.5667h7.76001c0.08477,0 0.16933,0.0041 0.25369,0.0123c0.08436,0.00827 0.16811,0.0206 0.25125,0.037c0.08314,0.0164 0.16527,0.0368 0.24638,0.0612c0.08112,0.0244 0.16084,0.05267 0.23915,0.0848c0.07832,0.0322 0.15486,0.0681 0.22961,0.1077c0.07476,0.03967 0.14738,0.08283 0.21786,0.1295c0.07049,0.04673 0.13849,0.09677 0.20402,0.1501c0.06553,0.05333 0.12826,0.1097 0.1882,0.1691c0.05994,0.05947 0.1168,0.1217 0.17057,0.1867c0.05377,0.06493 0.10421,0.13237 0.15131,0.2023c0.04709,0.06987 0.09061,0.14187 0.13055,0.216c0.04,0.07413 0.0762,0.15003 0.1086,0.2277c0.03247,0.07767 0.061,0.15673 0.0856,0.2372c0.0246,0.08047 0.04517,0.1619 0.0617,0.2443c0.01653,0.08247 0.02897,0.16553 0.0373,0.2492c0.00827,0.08367 0.0124,0.16753 0.0124,0.2516c0,0.08407 -0.00413,0.1679 -0.0124,0.2515c-0.00833,0.08367 -0.02077,0.16673 -0.0373,0.2492c-0.01653,0.08247 -0.0371,0.1639 -0.0617,0.2443c-0.0246,0.08047 -0.05313,0.15953 -0.0856,0.2372c-0.0324,0.07767 -0.0686,0.15357 -0.1086,0.2277c-0.03994,0.07413 -0.08346,0.14613 -0.13055,0.216c-0.0471,0.06993 -0.09754,0.1374 -0.15131,0.2024c-0.05377,0.06493 -0.11063,0.12713 -0.17057,0.1866c-0.05994,0.0594 -0.12267,0.11577 -0.1882,0.1691c-0.06553,0.05333 -0.13353,0.10337 -0.20402,0.1501c-0.07048,0.04667 -0.1431,0.08983 -0.21786,0.1295c-0.07475,0.0396 -0.15129,0.0755 -0.22961,0.1077c-0.07831,0.03213 -0.15803,0.0604 -0.23915,0.0848c-0.08111,0.0244 -0.16324,0.0448 -0.24638,0.0612c-0.08314,0.0164 -0.16689,0.02873 -0.25125,0.037c-0.08436,0.00827 -0.16892,0.0124 -0.25369,0.0124h-7.76001c-0.08477,0 -0.16933,-0.00413 -0.25369,-0.0124c-0.08436,-0.00827 -0.16811,-0.0206 -0.25125,-0.037c-0.08314,-0.0164 -0.16527,-0.0368 -0.24638,-0.0612c-0.08112,-0.0244 -0.16083,-0.05267 -0.23915,-0.0848c-0.07832,-0.0322 -0.15485,-0.0681 -0.22961,-0.1077c-0.07476,-0.03967 -0.14738,-0.08283 -0.21786,-0.1295c-0.07049,-0.04673 -0.13849,-0.09677 -0.20402,-0.1501c-0.06553,-0.05333 -0.12826,-0.1097 -0.18819,-0.1691c-0.05994,-0.05947 -0.1168,-0.12167 -0.17058,-0.1866c-0.05377,-0.065 -0.10421,-0.13247 -0.1513,-0.2024c-0.0471,-0.06987 -0.09063,-0.14187 -0.13058,-0.216c-0.03996,-0.07413 -0.07616,-0.15003 -0.1086,-0.2277c-0.03244,-0.07767 -0.06096,-0.15673 -0.08557,-0.2372c-0.02461,-0.0804 -0.04518,-0.16183 -0.06172,-0.2443c-0.01653,-0.08247 -0.02896,-0.16553 -0.03727,-0.2492c-0.00831,-0.0836 -0.01246,-0.16743 -0.01246,-0.2515v-42.35473c0,-2.12407 1.73634,-3.84596 3.87823,-3.84596h34.9501c0.08473,0 0.16927,0.00412 0.2536,0.01235c0.0844,0.00824 0.16817,0.02056 0.2513,0.03696c0.08313,0.0164 0.16527,0.0368 0.2464,0.06121c0.08113,0.0244 0.16083,0.05268 0.2391,0.08485c0.07833,0.03217 0.15487,0.06807 0.2296,0.1077c0.0748,0.03963 0.14743,0.08279 0.2179,0.12949c0.07047,0.04671 0.13847,0.09672 0.204,0.15005c0.06553,0.05333 0.12827,0.10971 0.1882,0.16915c0.05993,0.05944 0.1168,0.12165 0.1706,0.18664c0.05373,0.06498 0.10417,0.13242 0.1513,0.20231c0.04707,0.06989 0.0906,0.14191 0.1306,0.21605c0.03993,0.07413 0.07613,0.15003 0.1086,0.2277c0.0324,0.07766 0.0609,0.15672 0.0855,0.23716c0.0246,0.08044 0.04517,0.16189 0.0617,0.24433c0.0166,0.08245 0.02903,0.1655 0.0373,0.24916c0.00833,0.08366 0.0125,0.16752 0.0125,0.25158v7.69544c0,0.08407 -0.00417,0.16793 -0.0125,0.25158c-0.00827,0.08366 -0.0207,0.16671 -0.0373,0.24916c-0.01653,0.08245 -0.0371,0.16389 -0.0617,0.24434c-0.0246,0.08044 -0.0531,0.15949 -0.0855,0.23715c-0.03247,0.07767 -0.06867,0.15357 -0.1086,0.2277c-0.04,0.07414 -0.08353,0.14616 -0.1306,0.21605c-0.04713,0.06989 -0.09757,0.13733 -0.1513,0.20232c-0.0538,0.06498 -0.11067,0.12719 -0.1706,0.18663c-0.05993,0.05944 -0.12267,0.11583 -0.1882,0.16916c-0.06553,0.05333 -0.13353,0.10334 -0.204,0.15004c-0.07047,0.04671 -0.1431,0.08987 -0.2179,0.1295c-0.07473,0.03962 -0.15127,0.07553 -0.2296,0.10773c-0.07827,0.03213 -0.15797,0.0604 -0.2391,0.0848c-0.08113,0.0244 -0.16327,0.0448 -0.2464,0.0612c-0.08313,0.0164 -0.1669,0.02873 -0.2513,0.037c-0.08433,0.0082 -0.16887,0.0123 -0.2536,0.0123c-0.0848,0 -0.16937,-0.0041 -0.2537,-0.0123c-0.0844,-0.00827 -0.16817,-0.0206 -0.2513,-0.037c-0.08313,-0.0164 -0.16527,-0.0368 -0.2464,-0.0612c-0.08107,-0.0244 -0.16077,-0.05267 -0.2391,-0.0848c-0.07833,-0.0322 -0.15487,-0.06811 -0.2296,-0.10773c-0.0748,-0.03963 -0.14743,-0.08279 -0.2179,-0.1295c-0.07047,-0.0467 -0.13847,-0.09671 -0.204,-0.15004c-0.06553,-0.05333 -0.12827,-0.10972 -0.1882,-0.16916c-0.05993,-0.05944 -0.1168,-0.12165 -0.1706,-0.18663c-0.05373,-0.06499 -0.10417,-0.13243 -0.1513,-0.20232c-0.04707,-0.06989 -0.0906,-0.14191 -0.1306,-0.21605c-0.03993,-0.07413 -0.07613,-0.15003 -0.1086,-0.2277c-0.0324,-0.07766 -0.0609,-0.15671 -0.0855,-0.23715c-0.0246,-0.08045 -0.04517,-0.16189 -0.0617,-0.24434c-0.01653,-0.08245 -0.02897,-0.1655 -0.0373,-0.24916c-0.00833,-0.08365 -0.0125,-0.16751 -0.0125,-0.25158z"></path><path  id="路径 3" style="fill:#FFFFFF; opacity:1;" d="M18.1187,20.5128h15.53c0.08473,0 0.16927,0.00417 0.2536,0.0125c0.0844,0.00833 0.16817,0.02077 0.2513,0.0373c0.08313,0.01653 0.16527,0.0371 0.2464,0.0617c0.08107,0.0246 0.16077,0.05313 0.2391,0.0856c0.07833,0.0324 0.15487,0.0686 0.2296,0.1086c0.0748,0.03993 0.14743,0.08343 0.2179,0.1305c0.07047,0.04713 0.13847,0.09757 0.204,0.1513c0.06553,0.0538 0.12827,0.11067 0.1882,0.1706c0.05993,0.05993 0.1168,0.12267 0.1706,0.1882c0.05373,0.06553 0.10417,0.13353 0.1513,0.204c0.04707,0.07053 0.0906,0.14317 0.1306,0.2179c0.03993,0.07473 0.07613,0.15127 0.1086,0.2296c0.0324,0.07833 0.0609,0.15807 0.0855,0.2392c0.0246,0.08107 0.04517,0.16317 0.0617,0.2463c0.0166,0.08313 0.02903,0.1669 0.0373,0.2513c0.00833,0.08433 0.0125,0.1689 0.0125,0.2537c0,0.08473 -0.00417,0.1693 -0.0125,0.2537c-0.00827,0.08433 -0.0207,0.16807 -0.0373,0.2512c-0.01653,0.08313 -0.0371,0.16527 -0.0617,0.2464c-0.0246,0.08113 -0.0531,0.16083 -0.0855,0.2391c-0.03247,0.07833 -0.06867,0.1549 -0.1086,0.2297c-0.04,0.07473 -0.08353,0.14733 -0.1306,0.2178c-0.04713,0.07047 -0.09757,0.13847 -0.1513,0.204c-0.0538,0.06553 -0.11067,0.12827 -0.1706,0.1882c-0.05993,0.05993 -0.12267,0.1168 -0.1882,0.1706c-0.06553,0.0538 -0.13353,0.10423 -0.204,0.1513c-0.07047,0.04707 -0.1431,0.0906 -0.2179,0.1306c-0.07473,0.03993 -0.15127,0.07613 -0.2296,0.1086c-0.07833,0.0324 -0.15803,0.06093 -0.2391,0.0856c-0.08113,0.0246 -0.16327,0.04517 -0.2464,0.0617c-0.08313,0.01653 -0.1669,0.02893 -0.2513,0.0372c-0.08433,0.00833 -0.16887,0.0125 -0.2536,0.0125h-15.53c-0.0848,0 -0.16937,-0.00417 -0.2537,-0.0125c-0.0844,-0.00827 -0.16817,-0.02067 -0.2513,-0.0372c-0.08313,-0.01653 -0.16527,-0.0371 -0.2464,-0.0617c-0.08107,-0.02467 -0.16077,-0.0532 -0.2391,-0.0856c-0.07833,-0.03247 -0.15487,-0.06867 -0.2296,-0.1086c-0.0748,-0.04 -0.14743,-0.08353 -0.2179,-0.1306c-0.07047,-0.04707 -0.13847,-0.0975 -0.204,-0.1513c-0.06553,-0.0538 -0.12827,-0.11067 -0.1882,-0.1706c-0.05993,-0.05993 -0.1168,-0.12267 -0.1706,-0.1882c-0.05373,-0.06553 -0.10417,-0.13353 -0.1513,-0.204c-0.04707,-0.07047 -0.0906,-0.14307 -0.1306,-0.2178c-0.03993,-0.0748 -0.07613,-0.15137 -0.1086,-0.2297c-0.0324,-0.07827 -0.0609,-0.15797 -0.0855,-0.2391c-0.0246,-0.08113 -0.04517,-0.16327 -0.0617,-0.2464c-0.01653,-0.08313 -0.02897,-0.16687 -0.0373,-0.2512c-0.00833,-0.0844 -0.0125,-0.16897 -0.0125,-0.2537c0,-0.0848 0.00417,-0.16937 0.0125,-0.2537c0.00833,-0.0844 0.02077,-0.16817 0.0373,-0.2513c0.01653,-0.08313 0.0371,-0.16523 0.0617,-0.2463c0.0246,-0.08113 0.0531,-0.16087 0.0855,-0.2392c0.03247,-0.07833 0.06867,-0.15487 0.1086,-0.2296c0.04,-0.07473 0.08353,-0.14737 0.1306,-0.2179c0.04713,-0.07047 0.09757,-0.13847 0.1513,-0.204c0.0538,-0.06553 0.11067,-0.12827 0.1706,-0.1882c0.05993,-0.05993 0.12267,-0.1168 0.1882,-0.1706c0.06553,-0.05373 0.13353,-0.10417 0.204,-0.1513c0.07047,-0.04707 0.1431,-0.09057 0.2179,-0.1305c0.07473,-0.04 0.15127,-0.0762 0.2296,-0.1086c0.07833,-0.03247 0.15803,-0.061 0.2391,-0.0856c0.08113,-0.0246 0.16327,-0.04517 0.2464,-0.0617c0.08313,-0.01653 0.1669,-0.02897 0.2513,-0.0373c0.08433,-0.00833 0.1689,-0.0125 0.2537,-0.0125z"></path><path  id="路径 4" style="fill:#FFFFFF; opacity:1;" d="M18.1187,30.7785h15.53c0.08473,0 0.16927,0.00413 0.2536,0.0124c0.0844,0.00833 0.16817,0.02077 0.2513,0.0373c0.08313,0.01653 0.16527,0.0371 0.2464,0.0617c0.08107,0.0246 0.16077,0.05313 0.2391,0.0856c0.07833,0.0324 0.15487,0.0686 0.2296,0.1086c0.0748,0.03993 0.14743,0.08347 0.2179,0.1306c0.07047,0.04707 0.13847,0.0975 0.204,0.1513c0.06553,0.05373 0.12827,0.11057 0.1882,0.1705c0.05993,0.06 0.1168,0.12273 0.1706,0.1882c0.05373,0.06553 0.10417,0.13357 0.1513,0.2041c0.04707,0.07047 0.0906,0.14307 0.1306,0.2178c0.03993,0.0748 0.07613,0.15133 0.1086,0.2296c0.0324,0.07833 0.0609,0.15807 0.0855,0.2392c0.0246,0.08113 0.04517,0.16327 0.0617,0.2464c0.0166,0.08313 0.02903,0.16687 0.0373,0.2512c0.00833,0.08433 0.0125,0.1689 0.0125,0.2537c0,0.0848 -0.00417,0.16937 -0.0125,0.2537c-0.00827,0.08433 -0.0207,0.16807 -0.0373,0.2512c-0.01653,0.08313 -0.0371,0.16527 -0.0617,0.2464c-0.0246,0.08113 -0.0531,0.16087 -0.0855,0.2392c-0.03247,0.07827 -0.06867,0.1548 -0.1086,0.2296c-0.04,0.07473 -0.08353,0.14733 -0.1306,0.2178c-0.04713,0.07053 -0.09757,0.13857 -0.1513,0.2041c-0.0538,0.06547 -0.11067,0.12817 -0.1706,0.1881c-0.05993,0.06 -0.12267,0.11687 -0.1882,0.1706c-0.06553,0.0538 -0.13353,0.10423 -0.204,0.1513c-0.07047,0.04713 -0.1431,0.09067 -0.2179,0.1306c-0.07473,0.04 -0.15127,0.0762 -0.2296,0.1086c-0.07833,0.03247 -0.15803,0.061 -0.2391,0.0856c-0.08113,0.0246 -0.16327,0.04517 -0.2464,0.0617c-0.08313,0.01653 -0.1669,0.02897 -0.2513,0.0373c-0.08433,0.00827 -0.16887,0.0124 -0.2536,0.0124h-15.53c-0.0848,0 -0.16937,-0.00413 -0.2537,-0.0124c-0.0844,-0.00833 -0.16817,-0.02077 -0.2513,-0.0373c-0.08313,-0.01653 -0.16527,-0.0371 -0.2464,-0.0617c-0.08107,-0.0246 -0.16077,-0.05313 -0.2391,-0.0856c-0.07833,-0.0324 -0.15487,-0.0686 -0.2296,-0.1086c-0.0748,-0.03993 -0.14743,-0.08347 -0.2179,-0.1306c-0.07047,-0.04707 -0.13847,-0.0975 -0.204,-0.1513c-0.06553,-0.05373 -0.12827,-0.1106 -0.1882,-0.1706c-0.05993,-0.05993 -0.1168,-0.12263 -0.1706,-0.1881c-0.05373,-0.06553 -0.10417,-0.13357 -0.1513,-0.2041c-0.04707,-0.07047 -0.0906,-0.14307 -0.1306,-0.2178c-0.03993,-0.0748 -0.07613,-0.15133 -0.1086,-0.2296c-0.0324,-0.07833 -0.0609,-0.15807 -0.0855,-0.2392c-0.0246,-0.08113 -0.04517,-0.16327 -0.0617,-0.2464c-0.01653,-0.08313 -0.02897,-0.16687 -0.0373,-0.2512c-0.00833,-0.08433 -0.0125,-0.1689 -0.0125,-0.2537c0,-0.0848 0.00417,-0.16937 0.0125,-0.2537c0.00833,-0.08433 0.02077,-0.16807 0.0373,-0.2512c0.01653,-0.08313 0.0371,-0.16527 0.0617,-0.2464c0.0246,-0.08113 0.0531,-0.16087 0.0855,-0.2392c0.03247,-0.07827 0.06867,-0.1548 0.1086,-0.2296c0.04,-0.07473 0.08353,-0.14733 0.1306,-0.2178c0.04713,-0.07053 0.09757,-0.13857 0.1513,-0.2041c0.0538,-0.06547 0.11067,-0.1282 0.1706,-0.1882c0.05993,-0.05993 0.12267,-0.11677 0.1882,-0.1705c0.06553,-0.0538 0.13353,-0.10423 0.204,-0.1513c0.07047,-0.04713 0.1431,-0.09067 0.2179,-0.1306c0.07473,-0.04 0.15127,-0.0762 0.2296,-0.1086c0.07833,-0.03247 0.15803,-0.061 0.2391,-0.0856c0.08113,-0.0246 0.16327,-0.04517 0.2464,-0.0617c0.08313,-0.01653 0.1669,-0.02897 0.2513,-0.0373c0.08433,-0.00827 0.1689,-0.0124 0.2537,-0.0124z"></path></g></svg>