<svg xmlns="http://www.w3.org/2000/svg" xmlns:xlink="http://www.w3.org/1999/xlink" width="69.00384330749512" height="69.0029296875" viewBox="0 0 69.00384330749512 69.0029296875" fill="none"><g opacity="1"  transform="translate(0.0003719329833984375 0.00244140625)  rotate(0)"><path id="圆形 3 (轮廓)" fill-rule="evenodd" style="fill:#FFFFFF" opacity="1" d="M69,41.638h-23.58v-7.14c0,-1.08 -0.15,-2.13 -0.47,-3.17c-0.31,-1.03 -0.77,-2 -1.37,-2.9c-0.6,-0.9 -1.32,-1.69 -2.15,-2.37c-0.84,-0.69 -1.75,-1.23 -2.75,-1.65c-1,-0.41 -2.03,-0.67 -3.11,-0.78c-1.07,-0.1 -2.14,-0.05 -3.2,0.16c-1.06,0.21 -2.06,0.57 -3.02,1.08c-0.95,0.51 -1.81,1.15 -2.57,1.91c-0.76,0.76 -1.4,1.62 -1.91,2.57c-0.51,0.96 -0.87,1.96 -1.08,3.01c-0.21,1.07 -0.26,2.14 -0.16,3.21c0.11,1.08 0.37,2.11 0.79,3.12c0.41,0.99 0.95,1.9 1.64,2.74c0.68,0.83 1.48,1.55 2.38,2.15c0.9,0.6 1.86,1.06 2.89,1.37c1.04,0.32 2.09,0.47 3.17,0.47h7.14v23.58h-7.14c-3.41,0 -6.75,-0.5 -10.01,-1.49c-3.27,-0.98 -6.32,-2.43 -9.16,-4.32c-2.83,-1.9 -5.33,-4.17 -7.5,-6.8c-2.16,-2.64 -3.9,-5.54 -5.2,-8.68c-1.31,-3.16 -2.13,-6.43 -2.46,-9.83c-0.34,-3.4 -0.17,-6.77 0.5,-10.11c0.66,-3.34 1.8,-6.52 3.41,-9.53c1.6,-3.01 3.61,-5.72 6.03,-8.14c2.41,-2.40995 5.12,-4.41995 8.13,-6.01995c3.01,-1.61 6.18,-2.75 9.52,-3.41c3.35,-0.67 6.72,-0.84 10.12,-0.5c3.4,0.33 6.67,1.15 9.82,2.46c3.15,1.3 6.05,3.04 8.69,5.19999c2.63,2.17 4.9,4.66996 6.8,7.50996c1.89,2.83 3.33,5.88 4.32,9.15c0.99,3.26 1.49,6.6 1.49,10.01zM57.25,19.298c-3.01,-4.5 -7.28,-8.01 -12.28,-10.07995c-5,-2.07 -10.5,-2.61 -15.81,-1.55c-5.3,1.05 -10.18,3.65995 -14.01,7.47995c-3.82,3.83 -6.43,8.71 -7.48,14.01c-1.06,5.31 -0.52,10.81 1.55,15.81c2.07,5 5.58,9.28 10.08,12.28c4.5,3.01 9.79,4.61 15.2,4.61v-9.3c-3.57,0 -7.06,-1.06 -10.03,-3.05c-2.97,-1.98 -5.29,-4.8 -6.65,-8.1c-1.37,-3.3 -1.73,-6.93 -1.03,-10.43c0.7,-3.51 2.42,-6.72 4.94,-9.25c2.53,-2.52 5.74,-4.24 9.25,-4.94c3.5,-0.7 7.13,-0.34 10.43,1.03c3.3,1.36 6.12,3.68 8.1,6.65c1.99,2.97 3.05,6.46 3.05,10.03h9.3c0,-5.41 -1.6,-10.7 -4.61,-15.2z"></path><path id="圆形 4" fill-rule="evenodd" style="fill:#FFFFFF" opacity="1" d="M55.8135 42.6309C48.5335 42.6309 42.6335 48.5308 42.6335 55.8108C42.6335 63.0908 48.5335 69.0008 55.8135 69.0008C63.0935 69.0008 69.0035 63.0908 69.0035 55.8108C69.0035 48.5308 63.0935 42.6309 55.8135 42.6309Z"></path></g></svg>