<svg xmlns="http://www.w3.org/2000/svg" xmlns:xlink="http://www.w3.org/1999/xlink" width="76.67003631591797" height="75.2255859375" viewBox="0 0 76.67003631591797 75.2255859375" fill="none"><g opacity="1"  transform="translate(3.833587646484375 3.7568359375)  rotate(0)"><path  id="路径 1" style="fill:#B37FEB; opacity:1;" d="M14.2103,2.66342l-11.49997,11.28338c-0.08877,0.08707 -0.18168,0.16967 -0.27873,0.2478c-0.09705,0.0782 -0.19777,0.1515 -0.30216,0.2199c-0.10439,0.06847 -0.21194,0.13173 -0.32266,0.1898c-0.11073,0.05807 -0.22408,0.11067 -0.34007,0.1578c-0.11599,0.04713 -0.23406,0.08857 -0.3542,0.1243c-0.12014,0.0358 -0.24177,0.0657 -0.36491,0.0897c-0.12313,0.024 -0.24717,0.04207 -0.37211,0.0542c-0.12494,0.01207 -0.25019,0.0181 -0.37573,0.0181c-0.12555,0 -0.25079,-0.00603 -0.37573,-0.0181c-0.12494,-0.01213 -0.24898,-0.0302 -0.37211,-0.0542c-0.12313,-0.024 -0.24477,-0.0539 -0.36491,-0.0897c-0.12014,-0.03573 -0.23821,-0.07717 -0.3542,-0.1243c-0.11599,-0.04713 -0.22934,-0.09973 -0.34007,-0.1578c-0.11072,-0.05807 -0.21827,-0.12133 -0.32266,-0.1898c-0.10439,-0.0684 -0.20511,-0.1417 -0.30216,-0.2199c-0.09705,-0.07813 -0.18996,-0.16073 -0.27873,-0.2478c-0.08877,-0.08713 -0.17298,-0.1783 -0.25263,-0.2735c-0.07965,-0.09527 -0.15434,-0.1941 -0.22409,-0.2965c-0.06975,-0.1024 -0.13422,-0.20793 -0.1934,-0.3166c-0.05919,-0.1086 -0.1128,-0.2198 -0.16084,-0.3336c-0.04805,-0.1138 -0.09029,-0.22967 -0.12674,-0.3476c-0.03644,-0.11787 -0.06691,-0.2372 -0.0914,-0.358c-0.02449,-0.1208 -0.04289,-0.2425 -0.0552,-0.3651c-0.01231,-0.1226 -0.01846,-0.24547 -0.01846,-0.3686c0,-0.1232 0.00615,-0.2461 0.01846,-0.3687c0.01231,-0.1226 0.03071,-0.2443 0.0552,-0.3651c0.02449,-0.1208 0.05496,-0.24013 0.0914,-0.358c0.03645,-0.11793 0.07869,-0.23379 0.12674,-0.34757c0.04804,-0.1138 0.10165,-0.22502 0.16084,-0.33366c0.05918,-0.10863 0.12365,-0.21416 0.1934,-0.31658c0.06975,-0.10242 0.14444,-0.20124 0.22409,-0.29646c0.07965,-0.09522 0.16386,-0.18638 0.25263,-0.27349l11.5,-11.28334c0.08877,-0.08711 0.18169,-0.16973 0.27874,-0.24788c0.09705,-0.07814 0.19776,-0.15143 0.30215,-0.21987c0.10439,-0.06843 0.21194,-0.13168 0.32267,-0.18975c0.11072,-0.05807 0.22407,-0.11067 0.34006,-0.15781c0.116,-0.04714 0.23407,-0.08859 0.3542,-0.12435c0.12013,-0.03575 0.24177,-0.06565 0.3649,-0.08968c0.12313,-0.02403 0.24717,-0.04209 0.3721,-0.05416c0.12493,-0.01207 0.2502,-0.01811 0.3758,-0.01811c0.12553,0 0.25077,0.00604 0.3757,0.01811c0.12493,0.01207 0.24897,0.03013 0.3721,0.05416c0.12313,0.02403 0.24477,0.05393 0.3649,0.08968c0.12013,0.03576 0.2382,0.07721 0.3542,0.12435c0.116,0.04714 0.22937,0.09974 0.3401,0.15781c0.11073,0.05807 0.21827,0.12132 0.3226,0.18975c0.1044,0.06844 0.20513,0.14173 0.3022,0.21987c0.09707,0.07815 0.18997,0.16077 0.2787,0.24788c0.0888,0.0871 0.17303,0.17826 0.2527,0.27348c0.0796,0.09522 0.1543,0.19404 0.2241,0.29646c0.06973,0.10242 0.1342,0.20795 0.1934,0.31659c0.05913,0.10863 0.11273,0.21985 0.1608,0.33366c0.04807,0.11381 0.0903,0.22965 0.1267,0.34752c0.03647,0.11788 0.06693,0.23723 0.0914,0.35804c0.02453,0.12081 0.04293,0.24252 0.0552,0.3651c0.01233,0.12259 0.0185,0.24547 0.0185,0.36865c0,0.12318 -0.00617,0.24607 -0.0185,0.36865c-0.01227,0.12259 -0.03067,0.24429 -0.0552,0.3651c-0.02447,0.12081 -0.05493,0.24016 -0.0914,0.35804c-0.0364,0.11788 -0.07863,0.23372 -0.1267,0.34752c-0.04807,0.11381 -0.10167,0.22503 -0.1608,0.33366c-0.0592,0.10864 -0.12367,0.21417 -0.1934,0.31659c-0.0698,0.10242 -0.1445,0.20124 -0.2241,0.29646c-0.07967,0.09522 -0.1639,0.18638 -0.2527,0.27349z"></path><path  id="路径 2" style="fill:#B37FEB; opacity:1;" d="M71.7104,59.0804l-11.4999,11.2833c-0.0888,0.08713 -0.18173,0.16977 -0.2788,0.2479c-0.09707,0.07813 -0.19777,0.15143 -0.3021,0.2199c-0.1044,0.0684 -0.21197,0.13163 -0.3227,0.1897c-0.11073,0.05807 -0.2241,0.11067 -0.3401,0.1578c-0.116,0.0472 -0.23407,0.08867 -0.3542,0.1244c-0.12013,0.03573 -0.24177,0.06563 -0.3649,0.0897c-0.12313,0.024 -0.24717,0.04207 -0.3721,0.0542c-0.12493,0.012 -0.25017,0.018 -0.3757,0.018c-0.12553,0 -0.2508,-0.00603 -0.3758,-0.0181c-0.12493,-0.01207 -0.24897,-0.0301 -0.3721,-0.0541c-0.12313,-0.02407 -0.24477,-0.05397 -0.3649,-0.0897c-0.12013,-0.03573 -0.2382,-0.0772 -0.3542,-0.1244c-0.116,-0.04713 -0.22933,-0.09973 -0.34,-0.1578c-0.11073,-0.05807 -0.2183,-0.1213 -0.3227,-0.1897c-0.1044,-0.06847 -0.20513,-0.14177 -0.3022,-0.2199c-0.097,-0.07813 -0.1899,-0.16077 -0.2787,-0.2479c-0.0888,-0.08707 -0.173,-0.1782 -0.2526,-0.2734c-0.07967,-0.09527 -0.15437,-0.1941 -0.2241,-0.2965c-0.06973,-0.1024 -0.1342,-0.20793 -0.1934,-0.3166c-0.0592,-0.1086 -0.11283,-0.21983 -0.1609,-0.3337c-0.048,-0.1138 -0.09023,-0.22963 -0.1267,-0.3475c-0.03647,-0.11787 -0.06693,-0.2372 -0.0914,-0.358c-0.02447,-0.1208 -0.04287,-0.2425 -0.0552,-0.3651c-0.01233,-0.1226 -0.0185,-0.2455 -0.0185,-0.3687c0,-0.12313 0.00617,-0.246 0.0185,-0.3686c0.01233,-0.1226 0.03073,-0.2443 0.0552,-0.3651c0.02447,-0.1208 0.05493,-0.24017 0.0914,-0.3581c0.03647,-0.11787 0.0787,-0.2337 0.1267,-0.3475c0.04807,-0.1138 0.1017,-0.225 0.1609,-0.3336c0.0592,-0.10867 0.12367,-0.2142 0.1934,-0.3166c0.06973,-0.10247 0.14443,-0.2013 0.2241,-0.2965c0.0796,-0.0952 0.1638,-0.18637 0.2526,-0.2735l11.5,-11.2833c0.0888,-0.08713 0.1817,-0.16977 0.2787,-0.2479c0.09707,-0.07813 0.1978,-0.15143 0.3022,-0.2199c0.1044,-0.0684 0.21197,-0.13163 0.3227,-0.1897c0.11067,-0.05807 0.224,-0.11067 0.34,-0.1578c0.116,-0.04713 0.23407,-0.0886 0.3542,-0.1244c0.12013,-0.03573 0.24177,-0.06563 0.3649,-0.0897c0.12313,-0.024 0.24717,-0.04203 0.3721,-0.0541c0.125,-0.01207 0.25027,-0.0181 0.3758,-0.0181c0.12553,0 0.25077,0.00603 0.3757,0.0181c0.12493,0.01207 0.24897,0.03013 0.3721,0.0542c0.12313,0.024 0.24477,0.05387 0.3649,0.0896c0.12013,0.0358 0.2382,0.07727 0.3542,0.1244c0.116,0.04713 0.22937,0.09973 0.3401,0.1578c0.11073,0.05807 0.2183,0.1213 0.3227,0.1897c0.10433,0.06847 0.20503,0.14177 0.3021,0.2199c0.09707,0.07813 0.18997,0.16077 0.2787,0.2479c0.0888,0.08707 0.17303,0.17823 0.2527,0.2735c0.07967,0.0952 0.15437,0.194 0.2241,0.2964c0.06973,0.10247 0.1342,0.208 0.1934,0.3166c0.05913,0.10867 0.11273,0.2199 0.1608,0.3337c0.04807,0.1138 0.0903,0.22963 0.1267,0.3475c0.03647,0.11787 0.06697,0.2372 0.0915,0.358c0.02447,0.12087 0.04287,0.24257 0.0552,0.3651c0.01227,0.1226 0.0184,0.2455 0.0184,0.3687c0,0.1232 -0.00613,0.24607 -0.0184,0.3686c-0.01233,0.1226 -0.03073,0.2443 -0.0552,0.3651c-0.02453,0.12087 -0.055,0.24023 -0.0914,0.3581c-0.03647,0.11787 -0.07873,0.2337 -0.1268,0.3475c-0.04807,0.1138 -0.10167,0.22503 -0.1608,0.3337c-0.0592,0.1086 -0.12367,0.21413 -0.1934,0.3166c-0.06973,0.1024 -0.14443,0.2012 -0.2241,0.2964c-0.07967,0.09527 -0.1639,0.18643 -0.2527,0.2735z"></path><path  id="路径 3" style="fill:#B37FEB; opacity:1;" d="M33.3803,2.66341l-30.66997,30.09219c-0.08877,0.08707 -0.18168,0.1697 -0.27873,0.2479c-0.09705,0.07813 -0.19777,0.1514 -0.30216,0.2198c-0.10439,0.06847 -0.21194,0.13173 -0.32266,0.1898c-0.11073,0.05807 -0.22408,0.11067 -0.34007,0.1578c-0.11599,0.04713 -0.23406,0.08857 -0.3542,0.1243c-0.12014,0.0358 -0.24177,0.0657 -0.36491,0.0897c-0.12313,0.02407 -0.24717,0.04213 -0.37211,0.0542c-0.12494,0.01207 -0.25019,0.0181 -0.37573,0.0181c-0.12555,0 -0.25079,-0.00603 -0.37573,-0.0181c-0.12494,-0.01207 -0.24898,-0.03013 -0.37211,-0.0542c-0.12313,-0.024 -0.24477,-0.0539 -0.36491,-0.0897c-0.12014,-0.03573 -0.23821,-0.07717 -0.3542,-0.1243c-0.11599,-0.04713 -0.22934,-0.09973 -0.34006,-0.1578c-0.11073,-0.05807 -0.21828,-0.12133 -0.32267,-0.1898c-0.10439,-0.0684 -0.2051,-0.14167 -0.30215,-0.2198c-0.09705,-0.0782 -0.18997,-0.16083 -0.27874,-0.2479c-0.08877,-0.08713 -0.17298,-0.1783 -0.25263,-0.2735c-0.07965,-0.0952 -0.15434,-0.19403 -0.22409,-0.2965c-0.06975,-0.1024 -0.13422,-0.2079 -0.1934,-0.3165c-0.05918,-0.10867 -0.11279,-0.2199 -0.16084,-0.3337c-0.04805,-0.1138 -0.09029,-0.22963 -0.12673,-0.3475c-0.03645,-0.11787 -0.06692,-0.23723 -0.09141,-0.3581c-0.02449,-0.1208 -0.04289,-0.2425 -0.0552,-0.3651c-0.01231,-0.12253 -0.01846,-0.2454 -0.01846,-0.3686c0,-0.1232 0.00615,-0.2461 0.01846,-0.3687c0.01231,-0.1226 0.03071,-0.2443 0.0552,-0.3651c0.02449,-0.1208 0.05496,-0.24013 0.09141,-0.358c0.03644,-0.11787 0.07868,-0.2337 0.12673,-0.3475c0.04805,-0.1138 0.10166,-0.22503 0.16084,-0.3337c0.05918,-0.10867 0.12365,-0.2142 0.1934,-0.3166c0.06975,-0.1024 0.14444,-0.2012 0.22409,-0.2964c0.07965,-0.09527 0.16386,-0.18643 0.25263,-0.2735l30.67002,-30.0922c0.08873,-0.08711 0.18163,-0.16973 0.2787,-0.24787c0.09707,-0.07815 0.1978,-0.15144 0.3022,-0.21987c0.10433,-0.06844 0.21187,-0.13169 0.3226,-0.18976c0.11073,-0.05807 0.2241,-0.11067 0.3401,-0.15781c0.116,-0.04714 0.23407,-0.08859 0.3542,-0.12434c0.12013,-0.03576 0.24177,-0.06566 0.3649,-0.08969c0.12313,-0.02403 0.24717,-0.04209 0.3721,-0.05416c0.12493,-0.01207 0.25017,-0.01811 0.3757,-0.01811c0.1256,0 0.25087,0.00604 0.3758,0.01811c0.12493,0.01207 0.24897,0.03013 0.3721,0.05416c0.12313,0.02403 0.24477,0.05393 0.3649,0.08969c0.12013,0.03575 0.2382,0.0772 0.3542,0.12434c0.116,0.04714 0.22937,0.09974 0.3401,0.15781c0.11073,0.05807 0.21827,0.12132 0.3226,0.18976c0.1044,0.06843 0.20513,0.14172 0.3022,0.21987c0.09707,0.07814 0.18997,0.16076 0.2787,0.24787c0.0888,0.0871 0.17303,0.17826 0.2527,0.27348c0.0796,0.09522 0.15427,0.19404 0.224,0.29646c0.0698,0.10243 0.13427,0.20796 0.1934,0.31659c0.0592,0.10863 0.11283,0.21985 0.1609,0.33366c0.04807,0.11381 0.0903,0.22965 0.1267,0.34752c0.03647,0.11788 0.06693,0.23723 0.0914,0.35804c0.02453,0.12081 0.04293,0.24251 0.0552,0.3651c0.01233,0.12259 0.0185,0.24547 0.0185,0.36865c0,0.12318 -0.00617,0.24607 -0.0185,0.36865c-0.01227,0.12259 -0.03067,0.24429 -0.0552,0.3651c-0.02447,0.12081 -0.05493,0.24016 -0.0914,0.35804c-0.0364,0.11788 -0.07863,0.23372 -0.1267,0.34752c-0.04807,0.11381 -0.1017,0.22503 -0.1609,0.33366c-0.05913,0.10864 -0.1236,0.21417 -0.1934,0.31659c-0.06973,0.10242 -0.1444,0.20124 -0.224,0.29646c-0.07967,0.09522 -0.1639,0.18638 -0.2527,0.27348z"></path><path  id="路径 4" style="fill:#B37FEB; opacity:1;" d="M52.5403,2.66342l-49.82997,48.89128c-0.08877,0.08707 -0.18168,0.16967 -0.27873,0.2478c-0.09705,0.0782 -0.19777,0.1515 -0.30216,0.2199c-0.10439,0.06847 -0.21194,0.13173 -0.32266,0.1898c-0.11073,0.05807 -0.22408,0.11067 -0.34007,0.1578c-0.11599,0.04713 -0.23406,0.08857 -0.3542,0.1243c-0.12014,0.0358 -0.24177,0.0657 -0.36491,0.0897c-0.12313,0.024 -0.24717,0.04207 -0.37211,0.0542c-0.12494,0.01207 -0.25019,0.0181 -0.37573,0.0181c-0.12555,0 -0.25079,-0.00603 -0.37573,-0.0181c-0.12494,-0.01213 -0.24898,-0.0302 -0.37211,-0.0542c-0.12313,-0.024 -0.24477,-0.0539 -0.36491,-0.0897c-0.12014,-0.03573 -0.23821,-0.07717 -0.3542,-0.1243c-0.11599,-0.04713 -0.22934,-0.09973 -0.34007,-0.1578c-0.11072,-0.05807 -0.21827,-0.12133 -0.32266,-0.1898c-0.10439,-0.0684 -0.20511,-0.1417 -0.30216,-0.2199c-0.09705,-0.07813 -0.18996,-0.16073 -0.27873,-0.2478c-0.08877,-0.08713 -0.17298,-0.1783 -0.25263,-0.2735c-0.07965,-0.0952 -0.15434,-0.19403 -0.22409,-0.2965c-0.06975,-0.1024 -0.13422,-0.20793 -0.1934,-0.3166c-0.05919,-0.1086 -0.1128,-0.2198 -0.16084,-0.3336c-0.04805,-0.1138 -0.09029,-0.22967 -0.12674,-0.3476c-0.03644,-0.11787 -0.06691,-0.2372 -0.0914,-0.358c-0.02449,-0.1208 -0.04289,-0.2425 -0.0552,-0.3651c-0.01231,-0.1226 -0.01846,-0.24547 -0.01846,-0.3686c0,-0.1232 0.00615,-0.2461 0.01846,-0.3687c0.01231,-0.1226 0.03071,-0.2443 0.0552,-0.3651c0.02449,-0.1208 0.05496,-0.24013 0.0914,-0.358c0.03645,-0.11793 0.07869,-0.2338 0.12674,-0.3476c0.04804,-0.1138 0.10165,-0.225 0.16084,-0.3336c0.05918,-0.10867 0.12365,-0.2142 0.1934,-0.3166c0.06975,-0.1024 0.14444,-0.20123 0.22409,-0.2965c0.07965,-0.0952 0.16386,-0.18637 0.25263,-0.2735l49.83002,-48.8912c0.08873,-0.08711 0.18163,-0.16973 0.2787,-0.24788c0.09707,-0.07814 0.1978,-0.15143 0.3022,-0.21987c0.1044,-0.06843 0.21193,-0.13168 0.3226,-0.18975c0.11073,-0.05807 0.2241,-0.11067 0.3401,-0.15781c0.116,-0.04714 0.23407,-0.08859 0.3542,-0.12435c0.12013,-0.03575 0.24177,-0.06565 0.3649,-0.08968c0.12313,-0.02403 0.24717,-0.04209 0.3721,-0.05416c0.12493,-0.01207 0.2502,-0.01811 0.3758,-0.01811c0.12553,0 0.25077,0.00604 0.3757,0.01811c0.12493,0.01207 0.24897,0.03013 0.3721,0.05416c0.12313,0.02403 0.24477,0.05393 0.3649,0.08968c0.12013,0.03576 0.2382,0.07721 0.3542,0.12435c0.116,0.04714 0.22937,0.09974 0.3401,0.15781c0.11073,0.05807 0.21827,0.12132 0.3226,0.18975c0.1044,0.06844 0.20513,0.14173 0.3022,0.21987c0.09707,0.07815 0.18997,0.16077 0.2787,0.24788c0.0888,0.0871 0.17303,0.17826 0.2527,0.27348c0.0796,0.09522 0.1543,0.19404 0.2241,0.29646c0.06973,0.10242 0.1342,0.20795 0.1934,0.31659c0.05913,0.10863 0.11273,0.21985 0.1608,0.33366c0.04807,0.11381 0.0903,0.22965 0.1267,0.34752c0.03647,0.11788 0.06693,0.23722 0.0914,0.35804c0.02453,0.12081 0.04293,0.24252 0.0552,0.3651c0.01233,0.12259 0.0185,0.24547 0.0185,0.36865c0,0.12318 -0.00617,0.24607 -0.0185,0.36865c-0.01227,0.12259 -0.03067,0.24429 -0.0552,0.3651c-0.02447,0.12081 -0.05493,0.24016 -0.0914,0.35804c-0.0364,0.11788 -0.07863,0.23372 -0.1267,0.34752c-0.04807,0.11381 -0.10167,0.22503 -0.1608,0.33366c-0.0592,0.10864 -0.12367,0.21417 -0.1934,0.31659c-0.0698,0.10242 -0.1445,0.20124 -0.2241,0.29646c-0.07967,0.09522 -0.1639,0.18638 -0.2527,0.27349z"></path><path  id="路径 5" style="fill:#B37FEB; opacity:1;" d="M71.7103,2.66342l-68.99997,67.70008c-0.08877,0.08713 -0.18168,0.16977 -0.27873,0.2479c-0.09705,0.07813 -0.19777,0.15143 -0.30216,0.2199c-0.10439,0.0684 -0.21194,0.13163 -0.32266,0.1897c-0.11073,0.05807 -0.22408,0.11067 -0.34007,0.1578c-0.11599,0.04713 -0.23406,0.0886 -0.3542,0.1244c-0.12014,0.03573 -0.24177,0.06563 -0.36491,0.0897c-0.12313,0.024 -0.24717,0.04203 -0.37211,0.0541c-0.12494,0.01207 -0.25019,0.0181 -0.37573,0.0181c-0.12555,0 -0.25079,-0.00603 -0.37573,-0.0181c-0.12494,-0.01207 -0.24898,-0.0301 -0.37211,-0.0541c-0.12313,-0.02407 -0.24477,-0.05397 -0.36491,-0.0897c-0.12014,-0.0358 -0.23821,-0.07727 -0.3542,-0.1244c-0.11599,-0.04713 -0.22934,-0.09973 -0.34007,-0.1578c-0.11072,-0.05807 -0.21827,-0.1213 -0.32266,-0.1897c-0.10439,-0.06847 -0.20511,-0.14177 -0.30216,-0.2199c-0.09705,-0.07813 -0.18996,-0.16077 -0.27873,-0.2479c-0.08877,-0.08707 -0.17298,-0.1782 -0.25263,-0.2734c-0.07965,-0.09527 -0.15434,-0.1941 -0.22409,-0.2965c-0.06975,-0.1024 -0.13422,-0.20793 -0.1934,-0.3166c-0.05919,-0.10867 -0.1128,-0.2199 -0.16084,-0.3337c-0.04805,-0.1138 -0.09029,-0.22963 -0.12674,-0.3475c-0.03644,-0.11787 -0.06691,-0.2372 -0.0914,-0.358c-0.02449,-0.1208 -0.04289,-0.2425 -0.0552,-0.3651c-0.01231,-0.1226 -0.01846,-0.2455 -0.01846,-0.3687c0,-0.1232 0.00615,-0.24607 0.01846,-0.3686c0.01231,-0.1226 0.03071,-0.2443 0.0552,-0.3651c0.02449,-0.12087 0.05496,-0.24023 0.0914,-0.3581c0.03645,-0.11787 0.07869,-0.2337 0.12674,-0.3475c0.04804,-0.1138 0.10165,-0.22503 0.16084,-0.3337c0.05918,-0.1086 0.12365,-0.21413 0.1934,-0.3166c0.06975,-0.1024 0.14444,-0.2012 0.22409,-0.2964c0.07965,-0.0952 0.16386,-0.18637 0.25263,-0.2735l69.00002,-67.70011c0.08873,-0.0871 0.18163,-0.16972 0.2787,-0.24787c0.09707,-0.07814 0.1978,-0.15143 0.3022,-0.21987c0.1044,-0.06843 0.21193,-0.13168 0.3226,-0.18975c0.11073,-0.05807 0.2241,-0.11067 0.3401,-0.15781c0.116,-0.04714 0.23407,-0.08859 0.3542,-0.12435c0.12013,-0.03575 0.24177,-0.06565 0.3649,-0.08968c0.12313,-0.02403 0.24717,-0.04209 0.3721,-0.05416c0.12493,-0.01207 0.2502,-0.01811 0.3758,-0.01811c0.12553,0 0.25077,0.00604 0.3757,0.01811c0.12493,0.01207 0.24897,0.03013 0.3721,0.05416c0.12313,0.02403 0.24477,0.05393 0.3649,0.08968c0.12013,0.03576 0.2382,0.07721 0.3542,0.12435c0.116,0.04714 0.22937,0.09974 0.3401,0.15781c0.11073,0.05807 0.21827,0.12132 0.3226,0.18975c0.1044,0.06844 0.20513,0.14173 0.3022,0.21987c0.09707,0.07815 0.18997,0.16077 0.2787,0.24787c0.0888,0.08711 0.17303,0.17827 0.2527,0.27349c0.0796,0.09522 0.1543,0.19404 0.2241,0.29646c0.06973,0.10242 0.1342,0.20795 0.1934,0.31659c0.05913,0.10863 0.11273,0.21985 0.1608,0.33366c0.04807,0.11381 0.0903,0.22965 0.1267,0.34752c0.03647,0.11788 0.06693,0.23722 0.0914,0.35804c0.02453,0.12081 0.04293,0.24252 0.0552,0.3651c0.01233,0.12259 0.0185,0.24547 0.0185,0.36865c0,0.12318 -0.00617,0.24607 -0.0185,0.36865c-0.01227,0.12259 -0.03067,0.24429 -0.0552,0.3651c-0.02447,0.12081 -0.05493,0.24016 -0.0914,0.35804c-0.0364,0.11788 -0.07863,0.23372 -0.1267,0.34752c-0.04807,0.11381 -0.10167,0.22503 -0.1608,0.33366c-0.0592,0.10864 -0.12367,0.21417 -0.1934,0.31659c-0.0698,0.10242 -0.1445,0.20124 -0.2241,0.29646c-0.07967,0.09522 -0.1639,0.18638 -0.2527,0.27349z"></path><path  id="路径 6" style="fill:#B37FEB; opacity:1;" d="M71.7071,21.4683l-49.83,48.8913c-0.0888,0.08713 -0.18173,0.16977 -0.2788,0.2479c-0.097,0.07813 -0.1977,0.1514 -0.3021,0.2198c-0.1044,0.06847 -0.21197,0.13173 -0.3227,0.1898c-0.11073,0.05807 -0.22407,0.11067 -0.34,0.1578c-0.116,0.04713 -0.23407,0.0886 -0.3542,0.1244c-0.12013,0.03573 -0.2418,0.0656 -0.365,0.0896c-0.12313,0.02407 -0.24717,0.04213 -0.3721,0.0542c-0.12493,0.01207 -0.25017,0.0181 -0.3757,0.0181c-0.12553,0 -0.25077,-0.00603 -0.3757,-0.0181c-0.12493,-0.01207 -0.24897,-0.03013 -0.3721,-0.0542c-0.12313,-0.024 -0.2448,-0.05387 -0.365,-0.0896c-0.12013,-0.0358 -0.2382,-0.07727 -0.3542,-0.1244c-0.11593,-0.04713 -0.22927,-0.09973 -0.34,-0.1578c-0.11073,-0.05807 -0.2183,-0.12133 -0.3227,-0.1898c-0.1044,-0.0684 -0.2051,-0.14167 -0.3021,-0.2198c-0.09707,-0.07813 -0.19,-0.16077 -0.2788,-0.2479c-0.08873,-0.08707 -0.17293,-0.17823 -0.2526,-0.2735c-0.07967,-0.0952 -0.15437,-0.194 -0.2241,-0.2964c-0.06973,-0.10247 -0.1342,-0.208 -0.1934,-0.3166c-0.0592,-0.10867 -0.1128,-0.2199 -0.1608,-0.3337c-0.04807,-0.1138 -0.09033,-0.22963 -0.1268,-0.3475c-0.0364,-0.11787 -0.06687,-0.23723 -0.0914,-0.3581c-0.02447,-0.1208 -0.04287,-0.2425 -0.0552,-0.3651c-0.01227,-0.12253 -0.0184,-0.2454 -0.0184,-0.3686c0,-0.1232 0.00613,-0.2461 0.0184,-0.3687c0.01233,-0.12253 0.03073,-0.24423 0.0552,-0.3651c0.02453,-0.1208 0.055,-0.24013 0.0914,-0.358c0.03647,-0.11787 0.07873,-0.2337 0.1268,-0.3475c0.048,-0.1138 0.1016,-0.22503 0.1608,-0.3337c0.0592,-0.10867 0.12367,-0.2142 0.1934,-0.3166c0.06973,-0.1024 0.14443,-0.2012 0.2241,-0.2964c0.07967,-0.09527 0.16387,-0.18643 0.2526,-0.2735l49.83,-48.8913c0.0888,-0.08707 0.18173,-0.16967 0.2788,-0.2478c0.097,-0.0782 0.1977,-0.1515 0.3021,-0.2199c0.1044,-0.06847 0.21197,-0.13173 0.3227,-0.1898c0.11073,-0.05807 0.2241,-0.11067 0.3401,-0.1578c0.116,-0.04713 0.23407,-0.08857 0.3542,-0.1243c0.12013,-0.0358 0.24177,-0.0657 0.3649,-0.0897c0.12313,-0.02407 0.24717,-0.04213 0.3721,-0.0542c0.12493,-0.01207 0.25017,-0.0181 0.3757,-0.0181c0.12553,0 0.25077,0.00603 0.3757,0.0181c0.125,0.01207 0.24907,0.03013 0.3722,0.0542c0.12313,0.024 0.24477,0.0539 0.3649,0.0897c0.12013,0.03573 0.2382,0.07717 0.3542,0.1243c0.116,0.04713 0.22933,0.09973 0.34,0.1578c0.11073,0.05807 0.2183,0.12133 0.3227,0.1898c0.1044,0.0684 0.20513,0.1417 0.3022,0.2199c0.097,0.07813 0.1899,0.16073 0.2787,0.2478c0.0888,0.08713 0.173,0.1783 0.2526,0.2735c0.07967,0.0952 0.15437,0.19403 0.2241,0.2965c0.06973,0.1024 0.1342,0.20793 0.1934,0.3166c0.0592,0.1086 0.1128,0.2198 0.1608,0.3336c0.04807,0.1138 0.09033,0.22963 0.1268,0.3475c0.0364,0.11793 0.06687,0.2373 0.0914,0.3581c0.02447,0.1208 0.04287,0.2425 0.0552,0.3651c0.01227,0.1226 0.0184,0.24547 0.0184,0.3686c0,0.1232 -0.00613,0.2461 -0.0184,0.3687c-0.01233,0.1226 -0.03073,0.2443 -0.0552,0.3651c-0.02453,0.1208 -0.055,0.24013 -0.0914,0.358c-0.03647,0.11787 -0.07873,0.23373 -0.1268,0.3476c-0.048,0.1138 -0.1016,0.225 -0.1608,0.3336c-0.0592,0.10867 -0.12367,0.2142 -0.1934,0.3166c-0.06973,0.1024 -0.14443,0.20123 -0.2241,0.2965c-0.0796,0.0952 -0.1638,0.18633 -0.2526,0.2734z"></path><path  id="路径 7" style="fill:#B37FEB; opacity:1;" d="M71.7137,40.2747l-30.67,30.0922c-0.0888,0.08713 -0.1817,0.16977 -0.2787,0.2479c-0.09707,0.07813 -0.1978,0.15143 -0.3022,0.2199c-0.1044,0.0684 -0.21197,0.13163 -0.3227,0.1897c-0.11067,0.05807 -0.224,0.11067 -0.34,0.1578c-0.116,0.04713 -0.23407,0.0886 -0.3542,0.1244c-0.12013,0.03573 -0.24177,0.06563 -0.3649,0.0897c-0.12313,0.024 -0.24717,0.04203 -0.3721,0.0541c-0.12493,0.01207 -0.2502,0.0181 -0.3758,0.0181c-0.12553,0 -0.25077,-0.00603 -0.3757,-0.0181c-0.12493,-0.01207 -0.24897,-0.0301 -0.3721,-0.0541c-0.12313,-0.02407 -0.24477,-0.05397 -0.3649,-0.0897c-0.12013,-0.0358 -0.2382,-0.07727 -0.3542,-0.1244c-0.116,-0.04713 -0.22937,-0.09973 -0.3401,-0.1578c-0.11073,-0.05807 -0.2183,-0.1213 -0.3227,-0.1897c-0.10433,-0.06847 -0.20503,-0.14177 -0.3021,-0.2199c-0.09707,-0.07813 -0.18997,-0.16077 -0.2787,-0.2479c-0.0888,-0.08707 -0.17303,-0.1782 -0.2527,-0.2734c-0.0796,-0.09527 -0.1543,-0.1941 -0.2241,-0.2965c-0.06973,-0.1024 -0.1342,-0.20793 -0.1934,-0.3166c-0.05913,-0.1086 -0.11273,-0.21983 -0.1608,-0.3337c-0.04807,-0.1138 -0.0903,-0.22963 -0.1267,-0.3475c-0.03647,-0.11787 -0.06697,-0.2372 -0.0915,-0.358c-0.02447,-0.1208 -0.04283,-0.2425 -0.0551,-0.3651c-0.01233,-0.1226 -0.0185,-0.2455 -0.0185,-0.3687c0,-0.12313 0.00617,-0.246 0.0185,-0.3686c0.01227,-0.1226 0.03067,-0.2443 0.0552,-0.3651c0.02447,-0.12087 0.05493,-0.24023 0.0914,-0.3581c0.0364,-0.11787 0.07863,-0.2337 0.1267,-0.3475c0.04807,-0.1138 0.10167,-0.22503 0.1608,-0.3337c0.0592,-0.1086 0.12367,-0.2141 0.1934,-0.3165c0.0698,-0.10247 0.1445,-0.2013 0.2241,-0.2965c0.07967,-0.0952 0.1639,-0.18637 0.2527,-0.2735l30.6699,-30.0922c0.0888,-0.08707 0.18173,-0.16967 0.2788,-0.2478c0.09707,-0.0782 0.19777,-0.1515 0.3021,-0.2199c0.1044,-0.06847 0.21197,-0.13173 0.3227,-0.1898c0.11073,-0.05807 0.2241,-0.11067 0.3401,-0.1578c0.116,-0.04713 0.23407,-0.08857 0.3542,-0.1243c0.12013,-0.0358 0.24177,-0.0657 0.3649,-0.0897c0.12313,-0.02407 0.24717,-0.04213 0.3721,-0.0542c0.12493,-0.01207 0.25017,-0.0181 0.3757,-0.0181c0.12553,0 0.2508,0.00603 0.3758,0.0181c0.12493,0.01207 0.24897,0.03013 0.3721,0.0542c0.12313,0.024 0.24477,0.0539 0.3649,0.0897c0.12013,0.03573 0.2382,0.07717 0.3542,0.1243c0.116,0.04713 0.22933,0.09973 0.34,0.1578c0.11073,0.05807 0.2183,0.12133 0.3227,0.1898c0.1044,0.0684 0.20513,0.1417 0.3022,0.2199c0.097,0.07813 0.1899,0.16073 0.2787,0.2478c0.0888,0.08713 0.173,0.1783 0.2526,0.2735c0.07967,0.0952 0.15437,0.19403 0.2241,0.2965c0.0698,0.1024 0.13427,0.20793 0.1934,0.3166c0.0592,0.1086 0.11283,0.2198 0.1609,0.3336c0.048,0.1138 0.09023,0.22963 0.1267,0.3475c0.03647,0.11787 0.06693,0.23723 0.0914,0.3581c0.02447,0.1208 0.04287,0.2425 0.0552,0.3651c0.01233,0.1226 0.0185,0.24547 0.0185,0.3686c0,0.1232 -0.00617,0.2461 -0.0185,0.3687c-0.01233,0.1226 -0.03073,0.2443 -0.0552,0.3651c-0.02447,0.1208 -0.05493,0.24013 -0.0914,0.358c-0.03647,0.11787 -0.0787,0.2337 -0.1267,0.3475c-0.04807,0.11387 -0.1017,0.2251 -0.1609,0.3337c-0.05913,0.10867 -0.1236,0.2142 -0.1934,0.3166c-0.06973,0.1024 -0.14443,0.20123 -0.2241,0.2965c-0.0796,0.0952 -0.1638,0.18633 -0.2526,0.2734z"></path></g></svg>