<svg xmlns="http://www.w3.org/2000/svg" xmlns:xlink="http://www.w3.org/1999/xlink" width="75.06939697265625" height="78.26171875" viewBox="0 0 75.06939697265625 78.26171875" fill="none"><path id="星形 1" fill-rule="evenodd" style="fill:#EAC645" opacity="1" d="M49.23 27.2735L42.68 10.3489C41.26 6.69576 36.09 6.69576 34.67 10.3489L28.11 27.2735C27.69 28.3544 26.86 29.2152 25.8 29.6755L9.17 36.8317C5.7 38.323 5.7 43.2472 9.17 44.7385L25.8 51.8947C26.86 52.3551 27.69 53.2158 28.11 54.2967L34.67 71.2213C36.09 74.8745 41.26 74.8745 42.68 71.2213L49.23 54.2967C49.65 53.2158 50.48 52.3551 51.54 51.8947L68.17 44.7385C71.64 43.2472 71.64 38.323 68.17 36.8317L51.54 29.6755C50.48 29.2152 49.65 28.3544 49.23 27.2735Z"></path><path  id="星形 1" style="fill:#000000; opacity:1;" d="M45.2232,28.8268l-6.55,-16.9245l0.0018,0.0073l-0.0005,-0.0014l-6.5585,16.9207c-0.41887,1.07793 -1.0276,2.03183 -1.8262,2.8617c-0.79693,0.82807 -1.72337,1.47143 -2.7793,1.9301l-16.6433,7.1619c-0.01527,0.00653 -0.02683,0.01227 -0.0347,0.0172l0.0022,-0.0021c0.01047,-0.009 0.01957,-0.01967 0.0273,-0.032c0.0036,-0.00573 0.00557,-0.0092 0.0059,-0.0104c-0.00233,0.00827 -0.0035,0.0182 -0.0035,0.0298c0,0.0116 0.00117,0.02153 0.0035,0.0298c-0.00033,-0.0012 -0.0023,-0.00467 -0.0059,-0.0104c-0.00773,-0.01233 -0.01683,-0.023 -0.0273,-0.032l-0.0023,-0.0021c0.00793,0.00493 0.01893,0.0104 0.033,0.0164l16.6318,7.157c1.0648,0.46247 1.99567,1.10773 2.7926,1.9358c0.7986,0.82987 1.4069,1.78267 1.8249,2.8584l6.5613,16.9279l-0.001,-0.0053l0.0005,0.0015l6.5477,-16.9187c0.4194,-1.07933 1.0284,-2.03393 1.827,-2.8638c0.79693,-0.82807 1.72333,-1.4714 2.7792,-1.93l16.6434,-7.162c0.0152,-0.00653 0.02677,-0.01227 0.0347,-0.0172l-0.0022,0.0021c-0.01053,0.00907 -0.01963,0.01973 -0.0273,0.032c-0.0036,0.00573 -0.00557,0.0092 -0.0059,0.0104c0.00233,-0.00827 0.0035,-0.0182 0.0035,-0.0298c0,-0.0116 -0.00117,-0.02153 -0.0035,-0.0298c0.00033,0.0012 0.0023,0.00467 0.0059,0.0104c0.00767,0.01233 0.01677,0.023 0.0273,0.032l0.0022,0.0021c-0.00793,-0.00493 -0.0189,-0.0104 -0.0329,-0.0164l-16.6318,-7.157c-1.0648,-0.46247 -1.99567,-1.10773 -2.7926,-1.9358c-0.7986,-0.82987 -1.4069,-1.78267 -1.8249,-2.8584zM53.2347,25.7147c0.00273,0.00707 0.00357,0.0104 0.0025,0.01l16.6282,7.1553c0.82813,0.35593 1.57697,0.82233 2.2465,1.3992c0.649,0.5592 1.20027,1.20193 1.6538,1.9282c0.4328,0.6932 0.76007,1.43603 0.9818,2.2285c0.2146,0.76687 0.3219,1.54993 0.3219,2.3492c0,0.79933 -0.1073,1.5824 -0.3219,2.3492c-0.22173,0.79253 -0.549,1.53537 -0.9818,2.2285c-0.45353,0.72633 -1.0048,1.3691 -1.6538,1.9283c-0.66953,0.5768 -1.41777,1.0429 -2.2447,1.3983l-16.6166,7.1504c-0.00787,0.0034 -0.01247,0.00683 -0.0138,0.0103l-6.5523,16.9305c-0.33793,0.86933 -0.79557,1.65703 -1.3729,2.3631c-0.55947,0.68427 -1.21,1.26603 -1.9516,1.7453c-0.7054,0.45587 -1.46477,0.8007 -2.2781,1.0345c-0.78473,0.22547 -1.58703,0.3382 -2.4069,0.3382c-0.81987,0 -1.62217,-0.11273 -2.4069,-0.3382c-0.81333,-0.2338 -1.5727,-0.57863 -2.2781,-1.0345c-0.7416,-0.47927 -1.39213,-1.06103 -1.9516,-1.7453c-0.57733,-0.70607 -1.03547,-1.49507 -1.3744,-2.367l-6.5587,-16.9212c-0.00273,-0.00707 -0.00357,-0.01037 -0.0025,-0.0099l-16.62817,-7.1554c-0.82816,-0.35593 -1.577,-0.8223 -2.24651,-1.3991c-0.64904,-0.5592 -1.20032,-1.20197 -1.65383,-1.9283c-0.43282,-0.69313 -0.7601,-1.43597 -0.98183,-2.2285c-0.21456,-0.7668 -0.32184,-1.54987 -0.32184,-2.3492c0,-0.79927 0.10728,-1.58233 0.32184,-2.3492c0.22173,-0.79247 0.54901,-1.5353 0.98183,-2.2285c0.45351,-0.72633 1.00479,-1.36907 1.65383,-1.9282c0.66951,-0.57687 1.41774,-1.043 2.24468,-1.3984l16.6166,-7.1504c0.00787,-0.0034 0.01273,-0.0075 0.0146,-0.0123l6.5615,-16.92845c0.33793,-0.86937 0.79557,-1.65707 1.3729,-2.36311c0.55947,-0.68427 1.21,-1.26606 1.9516,-1.74535c0.7054,-0.45588 1.46477,-0.80069 2.2781,-1.03444c0.78473,-0.22552 1.58703,-0.33828 2.4069,-0.33828c0.81987,0 1.62217,0.11276 2.4069,0.33828c0.81333,0.23375 1.5727,0.57857 2.2781,1.03444c0.7416,0.47929 1.39213,1.06108 1.9516,1.74535c0.57733,0.70604 1.03573,1.49571 1.3752,2.36902l6.55,16.92454z"></path></svg>