<svg xmlns="http://www.w3.org/2000/svg" xmlns:xlink="http://www.w3.org/1999/xlink" width="63.23974609375" height="63.06005859375" viewBox="0 0 63.23974609375 63.06005859375" fill="none"><g opacity="1"  transform="translate(0 0)  rotate(0)"><path id="矩形 2" fill-rule="evenodd" style="fill:#00C40A" opacity="1" d="M31.6199 63.0602L31.6199 63.0602C49.0799 63.0602 63.2398 48.9404 63.2398 31.5301L63.2398 31.5301C63.2398 14.1197 49.0799 0 31.6199 0L31.6199 0C14.16 0 0 14.1197 0 31.5301L0 31.5301C0 48.9404 14.16 63.0602 31.6199 63.0602Z"></path><path  id="路径 1" style="fill:#FFFFFF; opacity:1;" d="M46.9521,20.4092c0,0.19547 -0.0145,0.38987 -0.0435,0.5832c-0.029,0.1934 -0.0722,0.38357 -0.1296,0.5705c-0.0574,0.18693 -0.12837,0.3686 -0.2129,0.545c-0.08447,0.1764 -0.1816,0.3456 -0.2914,0.5076l-14.5998,21.5484c-0.22713,0.33527 -0.4996,0.62867 -0.8174,0.8802c-0.1014,0.08027 -0.20647,0.1554 -0.3152,0.2254c-0.1088,0.06993 -0.22077,0.1344 -0.3359,0.1934c-0.11513,0.059 -0.2329,0.11223 -0.3533,0.1597c-0.12033,0.04747 -0.24273,0.08893 -0.3672,0.1244c-0.12447,0.03547 -0.25037,0.06477 -0.3777,0.0879c-0.1274,0.02313 -0.2556,0.03997 -0.3846,0.0505c-0.129,0.0106 -0.2582,0.01487 -0.3876,0.0128c-0.12947,-0.00213 -0.2585,-0.01057 -0.3871,-0.0253c-0.1286,-0.01473 -0.25617,-0.0357 -0.3827,-0.0629c-0.12653,-0.0272 -0.2514,-0.06053 -0.3746,-0.1c-0.12327,-0.03947 -0.2443,-0.08487 -0.3631,-0.1362c-0.11873,-0.05133 -0.2347,-0.10833 -0.3479,-0.171c-0.11313,-0.06267 -0.22293,-0.13073 -0.3294,-0.2042c-0.10647,-0.0734 -0.20903,-0.15187 -0.3077,-0.2354c-0.09873,-0.08347 -0.19313,-0.17157 -0.2832,-0.2643c-0.09,-0.09273 -0.17527,-0.18963 -0.2558,-0.2907l-8.3448,-10.4807c-0.14627,-0.1756 -0.27623,-0.36243 -0.3899,-0.5605c-0.11367,-0.19807 -0.2094,-0.4044 -0.2872,-0.619c-0.07773,-0.21467 -0.13633,-0.4344 -0.1758,-0.6592c-0.0394,-0.2248 -0.0591,-0.4513 -0.0591,-0.6795c0,-0.12907 0.00633,-0.25783 0.019,-0.3863c0.01267,-0.12847 0.03163,-0.256 0.0569,-0.3826c0.02527,-0.1266 0.05667,-0.25167 0.0942,-0.3752c0.0376,-0.12347 0.08117,-0.24483 0.1307,-0.3641c0.04953,-0.11927 0.1048,-0.23583 0.1658,-0.3497c0.06107,-0.1138 0.12753,-0.22437 0.1994,-0.3317c0.07193,-0.10733 0.14897,-0.21087 0.2311,-0.3106c0.08213,-0.0998 0.16897,-0.19533 0.2605,-0.2866c0.09153,-0.09127 0.18733,-0.17783 0.2874,-0.2597c0.10007,-0.08193 0.2039,-0.15873 0.3115,-0.2304c0.1076,-0.07173 0.2185,-0.13803 0.3327,-0.1989c0.11413,-0.0608 0.231,-0.1159 0.3506,-0.1653c0.1196,-0.0494 0.24133,-0.09283 0.3652,-0.1303c0.12387,-0.03747 0.24927,-0.0688 0.3762,-0.094c0.127,-0.0252 0.2549,-0.04413 0.3837,-0.0568c0.1288,-0.0126 0.25793,-0.0189 0.3874,-0.0189c0.14827,0 0.29607,0.00827 0.4434,0.0248c0.14733,0.0166 0.2933,0.0414 0.4379,0.0744c0.14453,0.03293 0.28677,0.07387 0.4267,0.1228c0.13987,0.04893 0.27657,0.10553 0.4101,0.1698c0.13353,0.06433 0.26303,0.1359 0.3885,0.2147c0.12547,0.0788 0.2461,0.16437 0.3619,0.2567c0.1158,0.09233 0.22603,0.19087 0.3307,0.2956c0.10473,0.10473 0.2032,0.21497 0.2954,0.3307l0.0008,-0.0006l5.0477,6.3396l11.5772,-17.0871l0.0045,-0.0067c0.09013,-0.13307 0.18807,-0.26017 0.2938,-0.3813c0.10573,-0.12113 0.21847,-0.23537 0.3382,-0.3427c0.11973,-0.1074 0.24557,-0.20713 0.3775,-0.2992c0.132,-0.092 0.2691,-0.17567 0.4113,-0.251c0.1422,-0.07533 0.28847,-0.14177 0.4388,-0.1993c0.15033,-0.05747 0.30363,-0.1056 0.4599,-0.1444c0.15627,-0.03887 0.31433,-0.06807 0.4742,-0.0876c0.1598,-0.01953 0.32023,-0.0293 0.4813,-0.0293c0.1294,0 0.25853,0.0063 0.3874,0.0189c0.1288,0.01267 0.25667,0.0316 0.3836,0.0568c0.127,0.0252 0.25243,0.05653 0.3763,0.094c0.12387,0.03747 0.2456,0.0809 0.3652,0.1303c0.11953,0.0494 0.2364,0.1045 0.3506,0.1653c0.11413,0.06087 0.22503,0.12717 0.3327,0.1989c0.1076,0.07167 0.21143,0.14847 0.3115,0.2304c0.10007,0.08187 0.19587,0.16843 0.2874,0.2597c0.09153,0.09127 0.17837,0.1868 0.2605,0.2866c0.08207,0.09973 0.15907,0.20327 0.231,0.3106c0.07193,0.10733 0.1384,0.2179 0.1994,0.3317c0.06107,0.11387 0.11633,0.23043 0.1658,0.3497c0.0496,0.11927 0.09317,0.24063 0.1307,0.3641c0.0376,0.12353 0.06903,0.2486 0.0943,0.3752c0.0252,0.1266 0.04417,0.25413 0.0569,0.3826c0.01267,0.12847 0.019,0.25723 0.019,0.3863z"></path></g></svg>