<svg xmlns="http://www.w3.org/2000/svg" xmlns:xlink="http://www.w3.org/1999/xlink" width="62.26007080078125" height="62.3328857421875" viewBox="0 0 62.26007080078125 62.3328857421875" fill="none"><g opacity="1"  transform="translate(2.830047607421875 2.8333740234375)  rotate(0)"><path  id="路径 1" style="fill:#FFFFFF; opacity:1;" d="M34.6697,36.3781c0.6644,-0.7524 1.50117,-1.4116 2.5103,-1.9776c0.805,-0.45147 1.74663,-0.8572 2.8249,-1.2172c0.83933,-0.28027 1.825,-0.55267 2.957,-0.8172c0.65307,-0.1526 1.6375,-0.36337 2.9533,-0.6323c1.65393,-0.338 2.8537,-0.60333 3.5993,-0.796c1.14327,-0.2954 2.05333,-0.60423 2.7302,-0.9265c0.61267,-0.29173 1.0394,-0.58897 1.2802,-0.8917c0.08047,-0.1012 0.13937,-0.20567 0.1767,-0.3134c0.0456,-0.13147 0.0684,-0.28917 0.0684,-0.4731c0,-3.45993 -0.6668,-6.76827 -2.0004,-9.925c-1.28867,-3.0504 -3.1085,-5.75247 -5.4595,-8.1062c-2.351,-2.35373 -5.0499,-4.17568 -8.0967,-5.46587c-3.153,-1.33513 -6.45747,-2.00269 -9.9134,-2.00269c-3.45593,0 -6.7604,0.66756 -9.9134,2.00269c-3.0468,1.29019 -5.7457,3.11214 -8.0967,5.46587c-2.351,2.35373 -4.17084,5.05583 -5.45952,8.1063c-1.33357,3.15667 -2.00035,6.46497 -2.00035,9.9249c0,3.46 0.66678,6.76833 2.00035,9.925c1.28868,3.0504 3.10852,5.75247 5.45952,8.1062c2.351,2.35373 5.0499,4.1757 8.0967,5.4659c3.153,1.33513 6.45747,2.0027 9.9134,2.0027c0.60687,0 1.05447,-0.09183 1.3428,-0.2755c0.21173,-0.13487 0.40027,-0.3798 0.5656,-0.7348c0.2246,-0.48227 0.4096,-1.1677 0.555,-2.0563c0.10233,-0.62573 0.21957,-1.6663 0.3517,-3.1217c0.10807,-1.19067 0.20083,-2.09267 0.2783,-2.706c0.1358,-1.0746 0.30423,-2.03253 0.5053,-2.8738c0.5578,-2.33313 1.48197,-4.22927 2.7725,-5.6884zM38.9088,40.133c-0.6654,0.75233 -1.16723,1.83597 -1.5055,3.2509c-0.15313,0.6406 -0.28467,1.39587 -0.3946,2.2658c-0.06913,0.54747 -0.15473,1.3834 -0.2568,2.5078c-0.07107,0.7824 -0.12743,1.36693 -0.1691,1.7536c-0.07193,0.66733 -0.14987,1.25763 -0.2338,1.7709c-0.2294,1.40273 -0.56637,2.58127 -1.0109,3.5356c-0.63067,1.35393 -1.5163,2.39417 -2.6569,3.1207c-1.21527,0.7742 -2.67567,1.1613 -4.3812,1.1613c-2.1202,0 -4.2105,-0.21107 -6.2709,-0.6332c-2.0094,-0.41167 -3.9585,-1.0174 -5.8473,-1.8172c-1.85387,-0.785 -3.61687,-1.743 -5.289,-2.874c-1.65553,-1.11973 -3.19059,-2.38773 -4.60518,-3.804c-1.41459,-1.4162 -2.68111,-2.95303 -3.79955,-4.6105c-1.12966,-1.67413 -2.08654,-3.4392 -2.87064,-5.2952c-0.79887,-1.891 -1.40389,-3.8424 -1.81507,-5.8542c-0.42159,-2.06273 -0.63239,-4.15547 -0.63239,-6.2782c0,-2.12273 0.2108,-4.21547 0.63239,-6.2782c0.41118,-2.0118 1.0162,-3.9632 1.81507,-5.8542c0.7841,-1.856 1.74098,-3.62107 2.87064,-5.2952c1.11843,-1.65743 2.38495,-3.19428 3.79955,-4.61053c1.41459,-1.41625 2.94965,-2.68424 4.60518,-3.80399c1.67213,-1.13098 3.43513,-2.08898 5.289,-2.874c1.8888,-0.7998 3.8379,-1.40553 5.8473,-1.81719c2.0604,-0.42209 4.1507,-0.63313 6.2709,-0.63313c2.12027,0 4.21057,0.21104 6.2709,0.63313c2.0094,0.41166 3.9585,1.01739 5.8473,1.81719c1.85387,0.78501 3.61687,1.74302 5.289,2.874c1.65553,1.11975 3.1906,2.38774 4.6052,3.80399c1.4146,1.41625 2.6811,2.9531 3.7995,4.61053c1.12967,1.67413 2.08657,3.4392 2.8707,5.2952c0.79887,1.891 1.40387,3.8424 1.815,5.8542c0.4216,2.06273 0.6324,4.15547 0.6324,6.2782c0,1.6392 -0.49243,3.07797 -1.4773,4.3163c-0.78427,0.98607 -1.87663,1.8125 -3.2771,2.4793c-1.00387,0.478 -2.25273,0.91 -3.7466,1.296c-0.8392,0.2168 -2.1331,0.5039 -3.8817,0.8613c-1.26427,0.2584 -2.19723,0.4579 -2.7989,0.5985c-0.96173,0.22473 -1.77933,0.44953 -2.4528,0.6744c-1.41513,0.47247 -2.3769,0.9966 -2.8853,1.5724z"></path><path  id="路径 2" style="fill:#FF5E5E; opacity:1;" d="M35.3753,14.1721c0,-0.39433 -0.1384,-0.7303 -0.4152,-1.0079c-0.27507,-0.2758 -0.60667,-0.4137 -0.9948,-0.4137c-0.39347,0 -0.7285,0.13843 -1.0051,0.4153c-0.27653,0.27687 -0.4148,0.6123 -0.4148,1.0063c0,0.3886 0.13773,0.72057 0.4132,0.9959c0.27727,0.27713 0.61283,0.4157 1.0067,0.4157c0.38853,0 0.72067,-0.13803 0.9964,-0.4141c0.27573,-0.27607 0.4136,-0.60857 0.4136,-0.9975zM41.0354,14.1721c0,0.9586 -0.18577,1.8773 -0.5573,2.7561c-0.35807,0.8468 -0.86277,1.59627 -1.5141,2.2484c-0.6514,0.65213 -1.4,1.1574 -2.2458,1.5158c-0.87773,0.372 -1.79537,0.558 -2.7529,0.558c-0.95893,0 -1.8776,-0.18563 -2.756,-0.5569c-0.8474,-0.35813 -1.5973,-0.86323 -2.2497,-1.5153c-0.65253,-0.6522 -1.15803,-1.402 -1.5165,-2.2494c-0.37187,-0.8788 -0.5578,-1.7977 -0.5578,-2.7567c0,-0.96047 0.18557,-1.88047 0.5567,-2.76c0.3582,-0.84893 0.86353,-1.60002 1.516,-2.25325c0.6524,-0.65321 1.4026,-1.15914 2.2506,-1.51777c0.87853,-0.37153 1.79743,-0.5573 2.7567,-0.5573c0.95793,0 1.8758,0.18613 2.7536,0.5584c0.84633,0.35895 1.59523,0.86505 2.2467,1.5183c0.65133,0.65315 1.15587,1.40392 1.5136,2.25232c0.3708,0.87947 0.5562,1.79923 0.5562,2.7593z"></path><path  id="路径 3" style="fill:#4265FF; opacity:1;" d="M18.395,19.8388c0,-0.39433 -0.13843,-0.7303 -0.4153,-1.0079c-0.275,-0.2758 -0.60657,-0.4137 -0.9947,-0.4137c-0.39353,0 -0.72857,0.13843 -1.0051,0.4153c-0.2766,0.27693 -0.4149,0.61237 -0.4149,1.0063c0,0.3886 0.13773,0.72057 0.4132,0.9959c0.27727,0.2772 0.61287,0.4158 1.0068,0.4158c0.38853,0 0.72067,-0.13803 0.9964,-0.4141c0.27573,-0.27607 0.4136,-0.6086 0.4136,-0.9976zM24.055,19.8388c0,0.95867 -0.18577,1.87737 -0.5573,2.7561c-0.358,0.8468 -0.8627,1.59627 -1.5141,2.2484c-0.65133,0.65213 -1.39993,1.15743 -2.2458,1.5159c-0.87773,0.37193 -1.79533,0.5579 -2.7528,0.5579c-0.95893,0 -1.87763,-0.1856 -2.7561,-0.5568c-0.8474,-0.35813 -1.5973,-0.86327 -2.2497,-1.5154c-0.65247,-0.65213 -1.15797,-1.4019 -1.5165,-2.2493c-0.37183,-0.8788 -0.55774,-1.79773 -0.55774,-2.7568c0,-0.9604 0.18555,-1.88037 0.55664,-2.7599c0.3582,-0.849 0.86353,-1.6001 1.516,-2.2533c0.65247,-0.6532 1.4027,-1.15913 2.2507,-1.5178c0.87847,-0.37153 1.79737,-0.5573 2.7567,-0.5573c0.95787,0 1.8757,0.18613 2.7535,0.5584c0.8464,0.35893 1.5953,0.86503 2.2467,1.5183c0.65133,0.6532 1.15587,1.404 1.5136,2.2524c0.3708,0.87947 0.5562,1.7992 0.5562,2.7592z"></path><path  id="路径 4" style="fill:#FFC745; opacity:1;" d="M19.8101,38.2548c0,-0.39433 -0.1384,-0.7303 -0.4152,-1.0079c-0.27507,-0.2758 -0.60667,-0.4137 -0.9948,-0.4137c-0.39347,0 -0.7285,0.13847 -1.0051,0.4154c-0.27653,0.27687 -0.4148,0.61227 -0.4148,1.0062c0,0.3886 0.13773,0.7206 0.4132,0.996c0.27727,0.27713 0.61283,0.4157 1.0067,0.4157c0.38853,0 0.72067,-0.13803 0.9964,-0.4141c0.27573,-0.27607 0.4136,-0.6086 0.4136,-0.9976zM25.4702,38.2548c0,0.95867 -0.18577,1.87737 -0.5573,2.7561c-0.35807,0.8468 -0.86277,1.59627 -1.5141,2.2484c-0.6514,0.65213 -1.4,1.15743 -2.2458,1.5159c-0.87773,0.37193 -1.79537,0.5579 -2.7529,0.5579c-0.95887,0 -1.87753,-0.1856 -2.756,-0.5568c-0.8474,-0.35813 -1.5973,-0.86323 -2.2497,-1.5153c-0.65247,-0.6522 -1.15797,-1.402 -1.5165,-2.2494c-0.37187,-0.8788 -0.5578,-1.79773 -0.5578,-2.7568c0,-0.9604 0.18557,-1.88037 0.5567,-2.7599c0.3582,-0.849 0.86353,-1.6001 1.516,-2.2533c0.6524,-0.6532 1.4026,-1.15913 2.2506,-1.5178c0.87853,-0.37153 1.79743,-0.5573 2.7567,-0.5573c0.95793,0 1.8758,0.18613 2.7536,0.5584c0.8464,0.359 1.5953,0.8651 2.2467,1.5183c0.65133,0.6532 1.15587,1.404 1.5136,2.2524c0.3708,0.87947 0.5562,1.7992 0.5562,2.7592z"></path></g></svg>